G04 #@! TF.GenerationSoftware,KiCad,Pcbnew,(5.1.7)-1*
G04 #@! TF.CreationDate,2020-12-28T13:52:33+01:00*
G04 #@! TF.ProjectId,6Layers_trl-board,364c6179-6572-4735-9f74-726c2d626f61,0.3*
G04 #@! TF.SameCoordinates,Original*
G04 #@! TF.FileFunction,Profile,NP*
%FSLAX46Y46*%
G04 Gerber Fmt 4.6, Leading zero omitted, Abs format (unit mm)*
G04 Created by KiCad (PCBNEW (5.1.7)-1) date 2020-12-28 13:52:33*
%MOMM*%
%LPD*%
G01*
G04 APERTURE LIST*
G04 #@! TA.AperFunction,Profile*
%ADD10C,0.150000*%
G04 #@! TD*
G04 APERTURE END LIST*
D10*
X137060000Y-110709998D02*
G75*
G02*
X137670000Y-110080000I619999J9999D01*
G01*
X134860000Y-65330000D02*
G75*
G02*
X134230002Y-64720000I-9999J619999D01*
G01*
X103860000Y-139580000D02*
G75*
G02*
X103230002Y-138970000I-9999J619999D01*
G01*
X135629999Y-138950001D02*
G75*
G02*
X135019999Y-139579999I-619999J-9999D01*
G01*
X135630000Y-125710000D02*
G75*
G02*
X136240000Y-125080002I619999J9999D01*
G01*
X137060000Y-124450000D02*
G75*
G02*
X136450000Y-125079998I-619999J-9999D01*
G01*
X179230000Y-109450002D02*
G75*
G02*
X178620000Y-110080000I-619999J-9999D01*
G01*
X178600002Y-65330000D02*
G75*
G02*
X179230000Y-65940000I9999J-619999D01*
G01*
X133600000Y-50830000D02*
G75*
G02*
X134229998Y-51440000I9999J-619999D01*
G01*
X103230000Y-51459998D02*
G75*
G02*
X103840000Y-50830000I619999J9999D01*
G01*
X178620000Y-110080000D02*
X137670000Y-110080000D01*
X179230000Y-65940000D02*
X179230000Y-109450002D01*
X134860000Y-65330000D02*
X178600002Y-65330000D01*
X134229998Y-51440000D02*
X134230002Y-64720000D01*
X103840000Y-50830000D02*
X133600000Y-50830000D01*
X137060000Y-124450000D02*
X137060000Y-110709998D01*
X136240000Y-125080002D02*
X136450000Y-125079998D01*
X135629999Y-138950001D02*
X135630000Y-125710000D01*
X103860000Y-139580000D02*
X135019999Y-139579999D01*
X103230000Y-51459998D02*
X103230002Y-138970000D01*
M02*
