G04 #@! TF.GenerationSoftware,KiCad,Pcbnew,(5.1.5)-2*
G04 #@! TF.CreationDate,2020-02-16T11:04:41+01:00*
G04 #@! TF.ProjectId,OSHPark_4Layers_trl-board_v0_1,4f534850-6172-46b5-9f34-4c6179657273,rev?*
G04 #@! TF.SameCoordinates,Original*
G04 #@! TF.FileFunction,Copper,L1,Top*
G04 #@! TF.FilePolarity,Positive*
%FSLAX46Y46*%
G04 Gerber Fmt 4.6, Leading zero omitted, Abs format (unit mm)*
G04 Created by KiCad (PCBNEW (5.1.5)-2) date 2020-02-16 11:04:41*
%MOMM*%
%LPD*%
G04 APERTURE LIST*
%ADD10R,0.889000X0.406400*%
%ADD11R,5.537200X3.225800*%
%ADD12C,0.152400*%
%ADD13C,0.762000*%
%ADD14C,0.600000*%
%ADD15C,0.340360*%
%ADD16C,1.000000*%
G04 APERTURE END LIST*
D10*
X214955500Y-165000000D03*
D11*
X212631400Y-167463800D03*
X212631400Y-162536200D03*
D10*
X183444500Y-165000000D03*
D11*
X185768600Y-162536200D03*
X185768600Y-167463800D03*
D10*
X216385500Y-150000000D03*
D11*
X214061400Y-152463800D03*
X214061400Y-147536200D03*
D10*
X183444500Y-150000000D03*
D11*
X185768600Y-147536200D03*
X185768600Y-152463800D03*
D10*
X258555500Y-135250000D03*
D11*
X256231400Y-137713800D03*
X256231400Y-132786200D03*
D10*
X183444500Y-135250000D03*
D11*
X185768600Y-132786200D03*
X185768600Y-137713800D03*
D10*
X258555500Y-120250000D03*
D11*
X256231400Y-122713800D03*
X256231400Y-117786200D03*
D10*
X183444500Y-120250000D03*
D11*
X185768600Y-117786200D03*
X185768600Y-122713800D03*
D10*
X258555500Y-105250000D03*
D11*
X256231400Y-107713800D03*
X256231400Y-102786200D03*
D10*
X183444500Y-105250000D03*
D11*
X185768600Y-102786200D03*
X185768600Y-107713800D03*
D10*
X213555500Y-90250000D03*
D11*
X211231400Y-92713800D03*
X211231400Y-87786200D03*
D10*
X183444500Y-90250000D03*
D11*
X185768600Y-87786200D03*
X185768600Y-92713800D03*
G04 #@! TA.AperFunction,SMDPad,CuDef*
D12*
G36*
X199255142Y-149301174D02*
G01*
X199278803Y-149304684D01*
X199302007Y-149310496D01*
X199324529Y-149318554D01*
X199346153Y-149328782D01*
X199366670Y-149341079D01*
X199385883Y-149355329D01*
X199403607Y-149371393D01*
X199419671Y-149389117D01*
X199433921Y-149408330D01*
X199446218Y-149428847D01*
X199456446Y-149450471D01*
X199464504Y-149472993D01*
X199470316Y-149496197D01*
X199473826Y-149519858D01*
X199475000Y-149543750D01*
X199475000Y-150456250D01*
X199473826Y-150480142D01*
X199470316Y-150503803D01*
X199464504Y-150527007D01*
X199456446Y-150549529D01*
X199446218Y-150571153D01*
X199433921Y-150591670D01*
X199419671Y-150610883D01*
X199403607Y-150628607D01*
X199385883Y-150644671D01*
X199366670Y-150658921D01*
X199346153Y-150671218D01*
X199324529Y-150681446D01*
X199302007Y-150689504D01*
X199278803Y-150695316D01*
X199255142Y-150698826D01*
X199231250Y-150700000D01*
X198743750Y-150700000D01*
X198719858Y-150698826D01*
X198696197Y-150695316D01*
X198672993Y-150689504D01*
X198650471Y-150681446D01*
X198628847Y-150671218D01*
X198608330Y-150658921D01*
X198589117Y-150644671D01*
X198571393Y-150628607D01*
X198555329Y-150610883D01*
X198541079Y-150591670D01*
X198528782Y-150571153D01*
X198518554Y-150549529D01*
X198510496Y-150527007D01*
X198504684Y-150503803D01*
X198501174Y-150480142D01*
X198500000Y-150456250D01*
X198500000Y-149543750D01*
X198501174Y-149519858D01*
X198504684Y-149496197D01*
X198510496Y-149472993D01*
X198518554Y-149450471D01*
X198528782Y-149428847D01*
X198541079Y-149408330D01*
X198555329Y-149389117D01*
X198571393Y-149371393D01*
X198589117Y-149355329D01*
X198608330Y-149341079D01*
X198628847Y-149328782D01*
X198650471Y-149318554D01*
X198672993Y-149310496D01*
X198696197Y-149304684D01*
X198719858Y-149301174D01*
X198743750Y-149300000D01*
X199231250Y-149300000D01*
X199255142Y-149301174D01*
G37*
G04 #@! TD.AperFunction*
G04 #@! TA.AperFunction,SMDPad,CuDef*
G36*
X201130142Y-149301174D02*
G01*
X201153803Y-149304684D01*
X201177007Y-149310496D01*
X201199529Y-149318554D01*
X201221153Y-149328782D01*
X201241670Y-149341079D01*
X201260883Y-149355329D01*
X201278607Y-149371393D01*
X201294671Y-149389117D01*
X201308921Y-149408330D01*
X201321218Y-149428847D01*
X201331446Y-149450471D01*
X201339504Y-149472993D01*
X201345316Y-149496197D01*
X201348826Y-149519858D01*
X201350000Y-149543750D01*
X201350000Y-150456250D01*
X201348826Y-150480142D01*
X201345316Y-150503803D01*
X201339504Y-150527007D01*
X201331446Y-150549529D01*
X201321218Y-150571153D01*
X201308921Y-150591670D01*
X201294671Y-150610883D01*
X201278607Y-150628607D01*
X201260883Y-150644671D01*
X201241670Y-150658921D01*
X201221153Y-150671218D01*
X201199529Y-150681446D01*
X201177007Y-150689504D01*
X201153803Y-150695316D01*
X201130142Y-150698826D01*
X201106250Y-150700000D01*
X200618750Y-150700000D01*
X200594858Y-150698826D01*
X200571197Y-150695316D01*
X200547993Y-150689504D01*
X200525471Y-150681446D01*
X200503847Y-150671218D01*
X200483330Y-150658921D01*
X200464117Y-150644671D01*
X200446393Y-150628607D01*
X200430329Y-150610883D01*
X200416079Y-150591670D01*
X200403782Y-150571153D01*
X200393554Y-150549529D01*
X200385496Y-150527007D01*
X200379684Y-150503803D01*
X200376174Y-150480142D01*
X200375000Y-150456250D01*
X200375000Y-149543750D01*
X200376174Y-149519858D01*
X200379684Y-149496197D01*
X200385496Y-149472993D01*
X200393554Y-149450471D01*
X200403782Y-149428847D01*
X200416079Y-149408330D01*
X200430329Y-149389117D01*
X200446393Y-149371393D01*
X200464117Y-149355329D01*
X200483330Y-149341079D01*
X200503847Y-149328782D01*
X200525471Y-149318554D01*
X200547993Y-149310496D01*
X200571197Y-149304684D01*
X200594858Y-149301174D01*
X200618750Y-149300000D01*
X201106250Y-149300000D01*
X201130142Y-149301174D01*
G37*
G04 #@! TD.AperFunction*
G04 #@! TA.AperFunction,SMDPad,CuDef*
G36*
X199680142Y-102401174D02*
G01*
X199703803Y-102404684D01*
X199727007Y-102410496D01*
X199749529Y-102418554D01*
X199771153Y-102428782D01*
X199791670Y-102441079D01*
X199810883Y-102455329D01*
X199828607Y-102471393D01*
X199844671Y-102489117D01*
X199858921Y-102508330D01*
X199871218Y-102528847D01*
X199881446Y-102550471D01*
X199889504Y-102572993D01*
X199895316Y-102596197D01*
X199898826Y-102619858D01*
X199900000Y-102643750D01*
X199900000Y-103131250D01*
X199898826Y-103155142D01*
X199895316Y-103178803D01*
X199889504Y-103202007D01*
X199881446Y-103224529D01*
X199871218Y-103246153D01*
X199858921Y-103266670D01*
X199844671Y-103285883D01*
X199828607Y-103303607D01*
X199810883Y-103319671D01*
X199791670Y-103333921D01*
X199771153Y-103346218D01*
X199749529Y-103356446D01*
X199727007Y-103364504D01*
X199703803Y-103370316D01*
X199680142Y-103373826D01*
X199656250Y-103375000D01*
X198743750Y-103375000D01*
X198719858Y-103373826D01*
X198696197Y-103370316D01*
X198672993Y-103364504D01*
X198650471Y-103356446D01*
X198628847Y-103346218D01*
X198608330Y-103333921D01*
X198589117Y-103319671D01*
X198571393Y-103303607D01*
X198555329Y-103285883D01*
X198541079Y-103266670D01*
X198528782Y-103246153D01*
X198518554Y-103224529D01*
X198510496Y-103202007D01*
X198504684Y-103178803D01*
X198501174Y-103155142D01*
X198500000Y-103131250D01*
X198500000Y-102643750D01*
X198501174Y-102619858D01*
X198504684Y-102596197D01*
X198510496Y-102572993D01*
X198518554Y-102550471D01*
X198528782Y-102528847D01*
X198541079Y-102508330D01*
X198555329Y-102489117D01*
X198571393Y-102471393D01*
X198589117Y-102455329D01*
X198608330Y-102441079D01*
X198628847Y-102428782D01*
X198650471Y-102418554D01*
X198672993Y-102410496D01*
X198696197Y-102404684D01*
X198719858Y-102401174D01*
X198743750Y-102400000D01*
X199656250Y-102400000D01*
X199680142Y-102401174D01*
G37*
G04 #@! TD.AperFunction*
G04 #@! TA.AperFunction,SMDPad,CuDef*
G36*
X199680142Y-104276174D02*
G01*
X199703803Y-104279684D01*
X199727007Y-104285496D01*
X199749529Y-104293554D01*
X199771153Y-104303782D01*
X199791670Y-104316079D01*
X199810883Y-104330329D01*
X199828607Y-104346393D01*
X199844671Y-104364117D01*
X199858921Y-104383330D01*
X199871218Y-104403847D01*
X199881446Y-104425471D01*
X199889504Y-104447993D01*
X199895316Y-104471197D01*
X199898826Y-104494858D01*
X199900000Y-104518750D01*
X199900000Y-105006250D01*
X199898826Y-105030142D01*
X199895316Y-105053803D01*
X199889504Y-105077007D01*
X199881446Y-105099529D01*
X199871218Y-105121153D01*
X199858921Y-105141670D01*
X199844671Y-105160883D01*
X199828607Y-105178607D01*
X199810883Y-105194671D01*
X199791670Y-105208921D01*
X199771153Y-105221218D01*
X199749529Y-105231446D01*
X199727007Y-105239504D01*
X199703803Y-105245316D01*
X199680142Y-105248826D01*
X199656250Y-105250000D01*
X198743750Y-105250000D01*
X198719858Y-105248826D01*
X198696197Y-105245316D01*
X198672993Y-105239504D01*
X198650471Y-105231446D01*
X198628847Y-105221218D01*
X198608330Y-105208921D01*
X198589117Y-105194671D01*
X198571393Y-105178607D01*
X198555329Y-105160883D01*
X198541079Y-105141670D01*
X198528782Y-105121153D01*
X198518554Y-105099529D01*
X198510496Y-105077007D01*
X198504684Y-105053803D01*
X198501174Y-105030142D01*
X198500000Y-105006250D01*
X198500000Y-104518750D01*
X198501174Y-104494858D01*
X198504684Y-104471197D01*
X198510496Y-104447993D01*
X198518554Y-104425471D01*
X198528782Y-104403847D01*
X198541079Y-104383330D01*
X198555329Y-104364117D01*
X198571393Y-104346393D01*
X198589117Y-104330329D01*
X198608330Y-104316079D01*
X198628847Y-104303782D01*
X198650471Y-104293554D01*
X198672993Y-104285496D01*
X198696197Y-104279684D01*
X198719858Y-104276174D01*
X198743750Y-104275000D01*
X199656250Y-104275000D01*
X199680142Y-104276174D01*
G37*
G04 #@! TD.AperFunction*
G04 #@! TA.AperFunction,SMDPad,CuDef*
G36*
X199680142Y-107126174D02*
G01*
X199703803Y-107129684D01*
X199727007Y-107135496D01*
X199749529Y-107143554D01*
X199771153Y-107153782D01*
X199791670Y-107166079D01*
X199810883Y-107180329D01*
X199828607Y-107196393D01*
X199844671Y-107214117D01*
X199858921Y-107233330D01*
X199871218Y-107253847D01*
X199881446Y-107275471D01*
X199889504Y-107297993D01*
X199895316Y-107321197D01*
X199898826Y-107344858D01*
X199900000Y-107368750D01*
X199900000Y-107856250D01*
X199898826Y-107880142D01*
X199895316Y-107903803D01*
X199889504Y-107927007D01*
X199881446Y-107949529D01*
X199871218Y-107971153D01*
X199858921Y-107991670D01*
X199844671Y-108010883D01*
X199828607Y-108028607D01*
X199810883Y-108044671D01*
X199791670Y-108058921D01*
X199771153Y-108071218D01*
X199749529Y-108081446D01*
X199727007Y-108089504D01*
X199703803Y-108095316D01*
X199680142Y-108098826D01*
X199656250Y-108100000D01*
X198743750Y-108100000D01*
X198719858Y-108098826D01*
X198696197Y-108095316D01*
X198672993Y-108089504D01*
X198650471Y-108081446D01*
X198628847Y-108071218D01*
X198608330Y-108058921D01*
X198589117Y-108044671D01*
X198571393Y-108028607D01*
X198555329Y-108010883D01*
X198541079Y-107991670D01*
X198528782Y-107971153D01*
X198518554Y-107949529D01*
X198510496Y-107927007D01*
X198504684Y-107903803D01*
X198501174Y-107880142D01*
X198500000Y-107856250D01*
X198500000Y-107368750D01*
X198501174Y-107344858D01*
X198504684Y-107321197D01*
X198510496Y-107297993D01*
X198518554Y-107275471D01*
X198528782Y-107253847D01*
X198541079Y-107233330D01*
X198555329Y-107214117D01*
X198571393Y-107196393D01*
X198589117Y-107180329D01*
X198608330Y-107166079D01*
X198628847Y-107153782D01*
X198650471Y-107143554D01*
X198672993Y-107135496D01*
X198696197Y-107129684D01*
X198719858Y-107126174D01*
X198743750Y-107125000D01*
X199656250Y-107125000D01*
X199680142Y-107126174D01*
G37*
G04 #@! TD.AperFunction*
G04 #@! TA.AperFunction,SMDPad,CuDef*
G36*
X199680142Y-105251174D02*
G01*
X199703803Y-105254684D01*
X199727007Y-105260496D01*
X199749529Y-105268554D01*
X199771153Y-105278782D01*
X199791670Y-105291079D01*
X199810883Y-105305329D01*
X199828607Y-105321393D01*
X199844671Y-105339117D01*
X199858921Y-105358330D01*
X199871218Y-105378847D01*
X199881446Y-105400471D01*
X199889504Y-105422993D01*
X199895316Y-105446197D01*
X199898826Y-105469858D01*
X199900000Y-105493750D01*
X199900000Y-105981250D01*
X199898826Y-106005142D01*
X199895316Y-106028803D01*
X199889504Y-106052007D01*
X199881446Y-106074529D01*
X199871218Y-106096153D01*
X199858921Y-106116670D01*
X199844671Y-106135883D01*
X199828607Y-106153607D01*
X199810883Y-106169671D01*
X199791670Y-106183921D01*
X199771153Y-106196218D01*
X199749529Y-106206446D01*
X199727007Y-106214504D01*
X199703803Y-106220316D01*
X199680142Y-106223826D01*
X199656250Y-106225000D01*
X198743750Y-106225000D01*
X198719858Y-106223826D01*
X198696197Y-106220316D01*
X198672993Y-106214504D01*
X198650471Y-106206446D01*
X198628847Y-106196218D01*
X198608330Y-106183921D01*
X198589117Y-106169671D01*
X198571393Y-106153607D01*
X198555329Y-106135883D01*
X198541079Y-106116670D01*
X198528782Y-106096153D01*
X198518554Y-106074529D01*
X198510496Y-106052007D01*
X198504684Y-106028803D01*
X198501174Y-106005142D01*
X198500000Y-105981250D01*
X198500000Y-105493750D01*
X198501174Y-105469858D01*
X198504684Y-105446197D01*
X198510496Y-105422993D01*
X198518554Y-105400471D01*
X198528782Y-105378847D01*
X198541079Y-105358330D01*
X198555329Y-105339117D01*
X198571393Y-105321393D01*
X198589117Y-105305329D01*
X198608330Y-105291079D01*
X198628847Y-105278782D01*
X198650471Y-105268554D01*
X198672993Y-105260496D01*
X198696197Y-105254684D01*
X198719858Y-105251174D01*
X198743750Y-105250000D01*
X199656250Y-105250000D01*
X199680142Y-105251174D01*
G37*
G04 #@! TD.AperFunction*
G04 #@! TA.AperFunction,SMDPad,CuDef*
G36*
X243280142Y-102401174D02*
G01*
X243303803Y-102404684D01*
X243327007Y-102410496D01*
X243349529Y-102418554D01*
X243371153Y-102428782D01*
X243391670Y-102441079D01*
X243410883Y-102455329D01*
X243428607Y-102471393D01*
X243444671Y-102489117D01*
X243458921Y-102508330D01*
X243471218Y-102528847D01*
X243481446Y-102550471D01*
X243489504Y-102572993D01*
X243495316Y-102596197D01*
X243498826Y-102619858D01*
X243500000Y-102643750D01*
X243500000Y-103131250D01*
X243498826Y-103155142D01*
X243495316Y-103178803D01*
X243489504Y-103202007D01*
X243481446Y-103224529D01*
X243471218Y-103246153D01*
X243458921Y-103266670D01*
X243444671Y-103285883D01*
X243428607Y-103303607D01*
X243410883Y-103319671D01*
X243391670Y-103333921D01*
X243371153Y-103346218D01*
X243349529Y-103356446D01*
X243327007Y-103364504D01*
X243303803Y-103370316D01*
X243280142Y-103373826D01*
X243256250Y-103375000D01*
X242343750Y-103375000D01*
X242319858Y-103373826D01*
X242296197Y-103370316D01*
X242272993Y-103364504D01*
X242250471Y-103356446D01*
X242228847Y-103346218D01*
X242208330Y-103333921D01*
X242189117Y-103319671D01*
X242171393Y-103303607D01*
X242155329Y-103285883D01*
X242141079Y-103266670D01*
X242128782Y-103246153D01*
X242118554Y-103224529D01*
X242110496Y-103202007D01*
X242104684Y-103178803D01*
X242101174Y-103155142D01*
X242100000Y-103131250D01*
X242100000Y-102643750D01*
X242101174Y-102619858D01*
X242104684Y-102596197D01*
X242110496Y-102572993D01*
X242118554Y-102550471D01*
X242128782Y-102528847D01*
X242141079Y-102508330D01*
X242155329Y-102489117D01*
X242171393Y-102471393D01*
X242189117Y-102455329D01*
X242208330Y-102441079D01*
X242228847Y-102428782D01*
X242250471Y-102418554D01*
X242272993Y-102410496D01*
X242296197Y-102404684D01*
X242319858Y-102401174D01*
X242343750Y-102400000D01*
X243256250Y-102400000D01*
X243280142Y-102401174D01*
G37*
G04 #@! TD.AperFunction*
G04 #@! TA.AperFunction,SMDPad,CuDef*
G36*
X243280142Y-104276174D02*
G01*
X243303803Y-104279684D01*
X243327007Y-104285496D01*
X243349529Y-104293554D01*
X243371153Y-104303782D01*
X243391670Y-104316079D01*
X243410883Y-104330329D01*
X243428607Y-104346393D01*
X243444671Y-104364117D01*
X243458921Y-104383330D01*
X243471218Y-104403847D01*
X243481446Y-104425471D01*
X243489504Y-104447993D01*
X243495316Y-104471197D01*
X243498826Y-104494858D01*
X243500000Y-104518750D01*
X243500000Y-105006250D01*
X243498826Y-105030142D01*
X243495316Y-105053803D01*
X243489504Y-105077007D01*
X243481446Y-105099529D01*
X243471218Y-105121153D01*
X243458921Y-105141670D01*
X243444671Y-105160883D01*
X243428607Y-105178607D01*
X243410883Y-105194671D01*
X243391670Y-105208921D01*
X243371153Y-105221218D01*
X243349529Y-105231446D01*
X243327007Y-105239504D01*
X243303803Y-105245316D01*
X243280142Y-105248826D01*
X243256250Y-105250000D01*
X242343750Y-105250000D01*
X242319858Y-105248826D01*
X242296197Y-105245316D01*
X242272993Y-105239504D01*
X242250471Y-105231446D01*
X242228847Y-105221218D01*
X242208330Y-105208921D01*
X242189117Y-105194671D01*
X242171393Y-105178607D01*
X242155329Y-105160883D01*
X242141079Y-105141670D01*
X242128782Y-105121153D01*
X242118554Y-105099529D01*
X242110496Y-105077007D01*
X242104684Y-105053803D01*
X242101174Y-105030142D01*
X242100000Y-105006250D01*
X242100000Y-104518750D01*
X242101174Y-104494858D01*
X242104684Y-104471197D01*
X242110496Y-104447993D01*
X242118554Y-104425471D01*
X242128782Y-104403847D01*
X242141079Y-104383330D01*
X242155329Y-104364117D01*
X242171393Y-104346393D01*
X242189117Y-104330329D01*
X242208330Y-104316079D01*
X242228847Y-104303782D01*
X242250471Y-104293554D01*
X242272993Y-104285496D01*
X242296197Y-104279684D01*
X242319858Y-104276174D01*
X242343750Y-104275000D01*
X243256250Y-104275000D01*
X243280142Y-104276174D01*
G37*
G04 #@! TD.AperFunction*
G04 #@! TA.AperFunction,SMDPad,CuDef*
G36*
X243280142Y-107126174D02*
G01*
X243303803Y-107129684D01*
X243327007Y-107135496D01*
X243349529Y-107143554D01*
X243371153Y-107153782D01*
X243391670Y-107166079D01*
X243410883Y-107180329D01*
X243428607Y-107196393D01*
X243444671Y-107214117D01*
X243458921Y-107233330D01*
X243471218Y-107253847D01*
X243481446Y-107275471D01*
X243489504Y-107297993D01*
X243495316Y-107321197D01*
X243498826Y-107344858D01*
X243500000Y-107368750D01*
X243500000Y-107856250D01*
X243498826Y-107880142D01*
X243495316Y-107903803D01*
X243489504Y-107927007D01*
X243481446Y-107949529D01*
X243471218Y-107971153D01*
X243458921Y-107991670D01*
X243444671Y-108010883D01*
X243428607Y-108028607D01*
X243410883Y-108044671D01*
X243391670Y-108058921D01*
X243371153Y-108071218D01*
X243349529Y-108081446D01*
X243327007Y-108089504D01*
X243303803Y-108095316D01*
X243280142Y-108098826D01*
X243256250Y-108100000D01*
X242343750Y-108100000D01*
X242319858Y-108098826D01*
X242296197Y-108095316D01*
X242272993Y-108089504D01*
X242250471Y-108081446D01*
X242228847Y-108071218D01*
X242208330Y-108058921D01*
X242189117Y-108044671D01*
X242171393Y-108028607D01*
X242155329Y-108010883D01*
X242141079Y-107991670D01*
X242128782Y-107971153D01*
X242118554Y-107949529D01*
X242110496Y-107927007D01*
X242104684Y-107903803D01*
X242101174Y-107880142D01*
X242100000Y-107856250D01*
X242100000Y-107368750D01*
X242101174Y-107344858D01*
X242104684Y-107321197D01*
X242110496Y-107297993D01*
X242118554Y-107275471D01*
X242128782Y-107253847D01*
X242141079Y-107233330D01*
X242155329Y-107214117D01*
X242171393Y-107196393D01*
X242189117Y-107180329D01*
X242208330Y-107166079D01*
X242228847Y-107153782D01*
X242250471Y-107143554D01*
X242272993Y-107135496D01*
X242296197Y-107129684D01*
X242319858Y-107126174D01*
X242343750Y-107125000D01*
X243256250Y-107125000D01*
X243280142Y-107126174D01*
G37*
G04 #@! TD.AperFunction*
G04 #@! TA.AperFunction,SMDPad,CuDef*
G36*
X243280142Y-105251174D02*
G01*
X243303803Y-105254684D01*
X243327007Y-105260496D01*
X243349529Y-105268554D01*
X243371153Y-105278782D01*
X243391670Y-105291079D01*
X243410883Y-105305329D01*
X243428607Y-105321393D01*
X243444671Y-105339117D01*
X243458921Y-105358330D01*
X243471218Y-105378847D01*
X243481446Y-105400471D01*
X243489504Y-105422993D01*
X243495316Y-105446197D01*
X243498826Y-105469858D01*
X243500000Y-105493750D01*
X243500000Y-105981250D01*
X243498826Y-106005142D01*
X243495316Y-106028803D01*
X243489504Y-106052007D01*
X243481446Y-106074529D01*
X243471218Y-106096153D01*
X243458921Y-106116670D01*
X243444671Y-106135883D01*
X243428607Y-106153607D01*
X243410883Y-106169671D01*
X243391670Y-106183921D01*
X243371153Y-106196218D01*
X243349529Y-106206446D01*
X243327007Y-106214504D01*
X243303803Y-106220316D01*
X243280142Y-106223826D01*
X243256250Y-106225000D01*
X242343750Y-106225000D01*
X242319858Y-106223826D01*
X242296197Y-106220316D01*
X242272993Y-106214504D01*
X242250471Y-106206446D01*
X242228847Y-106196218D01*
X242208330Y-106183921D01*
X242189117Y-106169671D01*
X242171393Y-106153607D01*
X242155329Y-106135883D01*
X242141079Y-106116670D01*
X242128782Y-106096153D01*
X242118554Y-106074529D01*
X242110496Y-106052007D01*
X242104684Y-106028803D01*
X242101174Y-106005142D01*
X242100000Y-105981250D01*
X242100000Y-105493750D01*
X242101174Y-105469858D01*
X242104684Y-105446197D01*
X242110496Y-105422993D01*
X242118554Y-105400471D01*
X242128782Y-105378847D01*
X242141079Y-105358330D01*
X242155329Y-105339117D01*
X242171393Y-105321393D01*
X242189117Y-105305329D01*
X242208330Y-105291079D01*
X242228847Y-105278782D01*
X242250471Y-105268554D01*
X242272993Y-105260496D01*
X242296197Y-105254684D01*
X242319858Y-105251174D01*
X242343750Y-105250000D01*
X243256250Y-105250000D01*
X243280142Y-105251174D01*
G37*
G04 #@! TD.AperFunction*
G04 #@! TA.AperFunction,SMDPad,CuDef*
G36*
X199680142Y-164513674D02*
G01*
X199703803Y-164517184D01*
X199727007Y-164522996D01*
X199749529Y-164531054D01*
X199771153Y-164541282D01*
X199791670Y-164553579D01*
X199810883Y-164567829D01*
X199828607Y-164583893D01*
X199844671Y-164601617D01*
X199858921Y-164620830D01*
X199871218Y-164641347D01*
X199881446Y-164662971D01*
X199889504Y-164685493D01*
X199895316Y-164708697D01*
X199898826Y-164732358D01*
X199900000Y-164756250D01*
X199900000Y-165243750D01*
X199898826Y-165267642D01*
X199895316Y-165291303D01*
X199889504Y-165314507D01*
X199881446Y-165337029D01*
X199871218Y-165358653D01*
X199858921Y-165379170D01*
X199844671Y-165398383D01*
X199828607Y-165416107D01*
X199810883Y-165432171D01*
X199791670Y-165446421D01*
X199771153Y-165458718D01*
X199749529Y-165468946D01*
X199727007Y-165477004D01*
X199703803Y-165482816D01*
X199680142Y-165486326D01*
X199656250Y-165487500D01*
X198743750Y-165487500D01*
X198719858Y-165486326D01*
X198696197Y-165482816D01*
X198672993Y-165477004D01*
X198650471Y-165468946D01*
X198628847Y-165458718D01*
X198608330Y-165446421D01*
X198589117Y-165432171D01*
X198571393Y-165416107D01*
X198555329Y-165398383D01*
X198541079Y-165379170D01*
X198528782Y-165358653D01*
X198518554Y-165337029D01*
X198510496Y-165314507D01*
X198504684Y-165291303D01*
X198501174Y-165267642D01*
X198500000Y-165243750D01*
X198500000Y-164756250D01*
X198501174Y-164732358D01*
X198504684Y-164708697D01*
X198510496Y-164685493D01*
X198518554Y-164662971D01*
X198528782Y-164641347D01*
X198541079Y-164620830D01*
X198555329Y-164601617D01*
X198571393Y-164583893D01*
X198589117Y-164567829D01*
X198608330Y-164553579D01*
X198628847Y-164541282D01*
X198650471Y-164531054D01*
X198672993Y-164522996D01*
X198696197Y-164517184D01*
X198719858Y-164513674D01*
X198743750Y-164512500D01*
X199656250Y-164512500D01*
X199680142Y-164513674D01*
G37*
G04 #@! TD.AperFunction*
G04 #@! TA.AperFunction,SMDPad,CuDef*
G36*
X199680142Y-166388674D02*
G01*
X199703803Y-166392184D01*
X199727007Y-166397996D01*
X199749529Y-166406054D01*
X199771153Y-166416282D01*
X199791670Y-166428579D01*
X199810883Y-166442829D01*
X199828607Y-166458893D01*
X199844671Y-166476617D01*
X199858921Y-166495830D01*
X199871218Y-166516347D01*
X199881446Y-166537971D01*
X199889504Y-166560493D01*
X199895316Y-166583697D01*
X199898826Y-166607358D01*
X199900000Y-166631250D01*
X199900000Y-167118750D01*
X199898826Y-167142642D01*
X199895316Y-167166303D01*
X199889504Y-167189507D01*
X199881446Y-167212029D01*
X199871218Y-167233653D01*
X199858921Y-167254170D01*
X199844671Y-167273383D01*
X199828607Y-167291107D01*
X199810883Y-167307171D01*
X199791670Y-167321421D01*
X199771153Y-167333718D01*
X199749529Y-167343946D01*
X199727007Y-167352004D01*
X199703803Y-167357816D01*
X199680142Y-167361326D01*
X199656250Y-167362500D01*
X198743750Y-167362500D01*
X198719858Y-167361326D01*
X198696197Y-167357816D01*
X198672993Y-167352004D01*
X198650471Y-167343946D01*
X198628847Y-167333718D01*
X198608330Y-167321421D01*
X198589117Y-167307171D01*
X198571393Y-167291107D01*
X198555329Y-167273383D01*
X198541079Y-167254170D01*
X198528782Y-167233653D01*
X198518554Y-167212029D01*
X198510496Y-167189507D01*
X198504684Y-167166303D01*
X198501174Y-167142642D01*
X198500000Y-167118750D01*
X198500000Y-166631250D01*
X198501174Y-166607358D01*
X198504684Y-166583697D01*
X198510496Y-166560493D01*
X198518554Y-166537971D01*
X198528782Y-166516347D01*
X198541079Y-166495830D01*
X198555329Y-166476617D01*
X198571393Y-166458893D01*
X198589117Y-166442829D01*
X198608330Y-166428579D01*
X198628847Y-166416282D01*
X198650471Y-166406054D01*
X198672993Y-166397996D01*
X198696197Y-166392184D01*
X198719858Y-166388674D01*
X198743750Y-166387500D01*
X199656250Y-166387500D01*
X199680142Y-166388674D01*
G37*
G04 #@! TD.AperFunction*
D13*
X185300000Y-165812800D03*
X186600000Y-165812800D03*
X187900000Y-165812800D03*
X189200000Y-165812800D03*
X190500000Y-165812800D03*
X191800000Y-165812800D03*
X193100000Y-165812800D03*
X194400000Y-165812800D03*
X195700000Y-165812800D03*
X197000000Y-165812800D03*
X200900000Y-165812800D03*
X202200000Y-165812800D03*
X203500000Y-165812800D03*
X204800000Y-165812800D03*
X206100000Y-165812800D03*
X207400000Y-165812800D03*
X208700000Y-165812800D03*
X210000000Y-165812800D03*
X211300000Y-165812800D03*
X212600000Y-165812800D03*
X184000000Y-165812800D03*
X213900000Y-165812800D03*
X212600000Y-164187200D03*
X211300000Y-164187200D03*
X210000000Y-164187200D03*
X208700000Y-164187200D03*
X207400000Y-164187200D03*
X206100000Y-164187200D03*
X204800000Y-164187200D03*
X203500000Y-164187200D03*
X202200000Y-164187200D03*
X200900000Y-164187200D03*
X197000000Y-164187200D03*
X195700000Y-164187200D03*
X194400000Y-164187200D03*
X193100000Y-164187200D03*
X191800000Y-164187200D03*
X190500000Y-164187200D03*
X189200000Y-164187200D03*
X187900000Y-164187200D03*
X186600000Y-164187200D03*
X185300000Y-164187200D03*
X213900000Y-164187200D03*
X184000000Y-164187200D03*
X185362500Y-150812800D03*
X186725000Y-150812800D03*
X188087500Y-150812800D03*
X189450000Y-150812800D03*
X190812500Y-150812800D03*
X192175000Y-150812800D03*
X193537500Y-150812800D03*
X194900000Y-150812800D03*
X196262500Y-150812800D03*
X197625000Y-150812800D03*
X184000000Y-150812800D03*
X197625000Y-149187200D03*
X196262500Y-149187200D03*
X194900000Y-149187200D03*
X193537500Y-149187200D03*
X192175000Y-149187200D03*
X190812500Y-149187200D03*
X189450000Y-149187200D03*
X188087500Y-149187200D03*
X186725000Y-149187200D03*
X185362500Y-149187200D03*
X184000000Y-149187200D03*
X202156083Y-150812800D03*
X203449666Y-150812800D03*
X204743250Y-150812800D03*
X206036833Y-150812800D03*
X207330416Y-150812800D03*
X208624000Y-150812800D03*
X209917583Y-150812800D03*
X211211166Y-150812800D03*
X212504750Y-150812800D03*
X213798333Y-150812800D03*
X215091916Y-150812800D03*
X215091916Y-149187200D03*
X213798333Y-149187200D03*
X212504750Y-149187200D03*
X211211166Y-149187200D03*
X209917583Y-149187200D03*
X208624000Y-149187200D03*
X207330416Y-149187200D03*
X206036833Y-149187200D03*
X204743250Y-149187200D03*
X203449666Y-149187200D03*
X202156083Y-149187200D03*
X185285439Y-136062800D03*
X186570879Y-136062800D03*
X187856318Y-136062800D03*
X189141758Y-136062800D03*
X190427198Y-136062800D03*
X191712637Y-136062800D03*
X192998077Y-136062800D03*
X194283517Y-136062800D03*
X195568956Y-136062800D03*
X196854396Y-136062800D03*
X198139836Y-136062800D03*
X199425275Y-136062800D03*
X200710715Y-136062800D03*
X201996155Y-136062800D03*
X203281594Y-136062800D03*
X204567034Y-136062800D03*
X205852474Y-136062800D03*
X207137913Y-136062800D03*
X208423353Y-136062800D03*
X209708793Y-136062800D03*
X210994232Y-136062800D03*
X212279672Y-136062800D03*
X213565112Y-136062800D03*
X214850551Y-136062800D03*
X216135991Y-136062800D03*
X217421431Y-136062800D03*
X218706870Y-136062800D03*
X219992310Y-136062800D03*
X221277750Y-136062800D03*
X222563189Y-136062800D03*
X223848629Y-136062800D03*
X225134068Y-136062800D03*
X226419508Y-136062800D03*
X227704948Y-136062800D03*
X228990387Y-136062800D03*
X230275827Y-136062800D03*
X231561267Y-136062800D03*
X232846706Y-136062800D03*
X234132146Y-136062800D03*
X235417586Y-136062800D03*
X236703025Y-136062800D03*
X237988465Y-136062800D03*
X239273905Y-136062800D03*
X240559344Y-136062800D03*
X241844784Y-136062800D03*
X243130224Y-136062800D03*
X244415663Y-136062800D03*
X245701103Y-136062800D03*
X246986543Y-136062800D03*
X248271982Y-136062800D03*
X249557422Y-136062800D03*
X250842862Y-136062800D03*
X252128301Y-136062800D03*
X253413741Y-136062800D03*
X254699181Y-136062800D03*
X255984620Y-136062800D03*
X257270060Y-136062800D03*
X184000000Y-136062800D03*
X257270060Y-134437200D03*
X255984620Y-134437200D03*
X254699181Y-134437200D03*
X253413741Y-134437200D03*
X252128301Y-134437200D03*
X250842862Y-134437200D03*
X249557422Y-134437200D03*
X248271982Y-134437200D03*
X246986543Y-134437200D03*
X245701103Y-134437200D03*
X244415663Y-134437200D03*
X243130224Y-134437200D03*
X241844784Y-134437200D03*
X240559344Y-134437200D03*
X239273905Y-134437200D03*
X237988465Y-134437200D03*
X236703025Y-134437200D03*
X235417586Y-134437200D03*
X234132146Y-134437200D03*
X232846706Y-134437200D03*
X231561267Y-134437200D03*
X230275827Y-134437200D03*
X228990387Y-134437200D03*
X227704948Y-134437200D03*
X226419508Y-134437200D03*
X225134068Y-134437200D03*
X223848629Y-134437200D03*
X222563189Y-134437200D03*
X221277750Y-134437200D03*
X219992310Y-134437200D03*
X218706870Y-134437200D03*
X217421431Y-134437200D03*
X216135991Y-134437200D03*
X214850551Y-134437200D03*
X213565112Y-134437200D03*
X212279672Y-134437200D03*
X210994232Y-134437200D03*
X209708793Y-134437200D03*
X208423353Y-134437200D03*
X207137913Y-134437200D03*
X205852474Y-134437200D03*
X204567034Y-134437200D03*
X203281594Y-134437200D03*
X201996155Y-134437200D03*
X200710715Y-134437200D03*
X199425275Y-134437200D03*
X198139836Y-134437200D03*
X196854396Y-134437200D03*
X195568956Y-134437200D03*
X194283517Y-134437200D03*
X192998077Y-134437200D03*
X191712637Y-134437200D03*
X190427198Y-134437200D03*
X189141758Y-134437200D03*
X187856318Y-134437200D03*
X186570879Y-134437200D03*
X185285439Y-134437200D03*
X184000000Y-134437200D03*
X245425916Y-106062800D03*
X246738875Y-106062800D03*
X248051833Y-106062800D03*
X249364791Y-106062800D03*
X250677750Y-106062800D03*
X251990708Y-106062800D03*
X253303666Y-106062800D03*
X254616625Y-106062800D03*
X255929583Y-106062800D03*
X257242541Y-106062800D03*
X257242541Y-104437200D03*
X255929583Y-104437200D03*
X254616625Y-104437200D03*
X253303666Y-104437200D03*
X251990708Y-104437200D03*
X250677750Y-104437200D03*
X249364791Y-104437200D03*
X248051833Y-104437200D03*
X246738875Y-104437200D03*
X245425916Y-104437200D03*
X244525458Y-121062800D03*
X245800916Y-121062800D03*
X247076375Y-121062800D03*
X248351833Y-121062800D03*
X249627291Y-121062800D03*
X250902750Y-121062800D03*
X252178208Y-121062800D03*
X253453666Y-121062800D03*
X254729125Y-121062800D03*
X256004583Y-121062800D03*
X257280041Y-121062800D03*
X243250000Y-121062800D03*
X257280041Y-119437200D03*
X256004583Y-119437200D03*
X254729125Y-119437200D03*
X253453666Y-119437200D03*
X252178208Y-119437200D03*
X250902750Y-119437200D03*
X249627291Y-119437200D03*
X248351833Y-119437200D03*
X247076375Y-119437200D03*
X245800916Y-119437200D03*
X244525458Y-119437200D03*
X243250000Y-119437200D03*
X185307692Y-121062800D03*
X186615384Y-121062800D03*
X187923076Y-121062800D03*
X189230769Y-121062800D03*
X190538461Y-121062800D03*
X191846153Y-121062800D03*
X193153846Y-121062800D03*
X194461538Y-121062800D03*
X195769230Y-121062800D03*
X197076923Y-121062800D03*
X198384615Y-121062800D03*
X199692307Y-121062800D03*
X184000000Y-121062800D03*
X201000000Y-121062800D03*
X199692307Y-119437200D03*
X198384615Y-119437200D03*
X197076923Y-119437200D03*
X195769230Y-119437200D03*
X194461538Y-119437200D03*
X193153846Y-119437200D03*
X191846153Y-119437200D03*
X190538461Y-119437200D03*
X189230769Y-119437200D03*
X187923076Y-119437200D03*
X186615384Y-119437200D03*
X185307692Y-119437200D03*
X184000000Y-119437200D03*
X185318181Y-106062800D03*
X186636363Y-106062800D03*
X187954545Y-106062800D03*
X189272727Y-106062800D03*
X190590909Y-106062800D03*
X191909090Y-106062800D03*
X193227272Y-106062800D03*
X194545454Y-106062800D03*
X195863636Y-106062800D03*
X197181818Y-106062800D03*
X184000000Y-106062800D03*
X197181818Y-104437200D03*
X195863636Y-104437200D03*
X194545454Y-104437200D03*
X193227272Y-104437200D03*
X191909090Y-104437200D03*
X190590909Y-104437200D03*
X189272727Y-104437200D03*
X187954545Y-104437200D03*
X186636363Y-104437200D03*
X185318181Y-104437200D03*
X184000000Y-104437200D03*
X185322727Y-91062800D03*
X186645454Y-91062800D03*
X187968181Y-91062800D03*
X189290909Y-91062800D03*
X190613636Y-91062800D03*
X191936363Y-91062800D03*
X193259090Y-91062800D03*
X194581818Y-91062800D03*
X195904545Y-91062800D03*
X197227272Y-91062800D03*
X198550000Y-91062800D03*
X199872727Y-91062800D03*
X201195454Y-91062800D03*
X202518181Y-91062800D03*
X203840909Y-91062800D03*
X205163636Y-91062800D03*
X206486363Y-91062800D03*
X207809090Y-91062800D03*
X209131818Y-91062800D03*
X210454545Y-91062800D03*
X211777272Y-91062800D03*
X184000000Y-91062800D03*
X213100000Y-91062800D03*
X211777272Y-89437200D03*
X210454545Y-89437200D03*
X209131818Y-89437200D03*
X207809090Y-89437200D03*
X206486363Y-89437200D03*
X205163636Y-89437200D03*
X203840909Y-89437200D03*
X202518181Y-89437200D03*
X201195454Y-89437200D03*
X199872727Y-89437200D03*
X198550000Y-89437200D03*
X197227272Y-89437200D03*
X195904545Y-89437200D03*
X194581818Y-89437200D03*
X193259090Y-89437200D03*
X191936363Y-89437200D03*
X190613636Y-89437200D03*
X189290909Y-89437200D03*
X187968181Y-89437200D03*
X186645454Y-89437200D03*
X185322727Y-89437200D03*
X213100000Y-89437200D03*
X184000000Y-89437200D03*
D14*
X197250000Y-102750000D03*
X197250000Y-101500000D03*
X198500000Y-101500000D03*
X199750000Y-101500000D03*
X201000000Y-101500000D03*
X202250000Y-106500000D03*
X202250000Y-105250000D03*
X202250000Y-104000000D03*
X202250000Y-102750000D03*
X202250000Y-101500000D03*
X244750000Y-102750000D03*
X244750000Y-101500000D03*
X242250000Y-101500000D03*
X243500000Y-101500000D03*
X241000000Y-101500000D03*
X242250000Y-109000000D03*
X241000000Y-109000000D03*
X243500000Y-109000000D03*
X244750000Y-109000000D03*
X244750000Y-107750000D03*
X197250000Y-147500000D03*
X198500000Y-147500000D03*
X199750000Y-147500000D03*
X201000000Y-147500000D03*
X202250000Y-147500000D03*
X197250000Y-152500000D03*
X199750000Y-152500000D03*
X198500000Y-152500000D03*
X202250000Y-152500000D03*
X201000000Y-152500000D03*
X197250000Y-167500000D03*
X197250000Y-168750000D03*
X198500000Y-168750000D03*
X199750000Y-168750000D03*
X201000000Y-168750000D03*
X201000000Y-167500000D03*
X202250000Y-107750000D03*
X202250000Y-109000000D03*
X198500000Y-109000000D03*
X201000000Y-109000000D03*
X199750000Y-109000000D03*
X197250000Y-109000000D03*
X197250000Y-107750000D03*
D13*
X202310000Y-121060000D03*
X202310000Y-120240000D03*
X201002307Y-119437200D03*
X202310000Y-119437200D03*
D14*
X197010000Y-163140000D03*
X198260000Y-163140000D03*
X199510000Y-163140000D03*
X200760000Y-163140000D03*
D13*
X242250000Y-120260000D03*
D14*
X239750000Y-107750000D03*
X239750000Y-109000000D03*
X239750000Y-106500000D03*
X239750000Y-105250000D03*
X239750000Y-104000000D03*
X239750000Y-102750000D03*
X239750000Y-101500000D03*
X197250000Y-148350000D03*
X202250000Y-148350000D03*
X197250000Y-151670000D03*
X202250000Y-151670000D03*
D15*
X185000000Y-120250000D02*
X197500000Y-120250000D01*
X183444500Y-120250000D02*
X185000000Y-120250000D01*
X200862500Y-150000000D02*
X216385500Y-150000000D01*
X184000000Y-150000000D02*
X198987500Y-150000000D01*
X184000000Y-150000000D02*
X183440000Y-150000000D01*
X258555500Y-120250000D02*
X243250000Y-120250000D01*
X214955500Y-165000000D02*
X213900000Y-165000000D01*
X199200000Y-165000000D02*
X213900000Y-165000000D01*
X184000000Y-165000000D02*
X199200000Y-165000000D01*
X184000000Y-165000000D02*
X183440000Y-165000000D01*
X213100000Y-90250000D02*
X213560000Y-90250000D01*
X184000000Y-90250000D02*
X213100000Y-90250000D01*
X184000000Y-90250000D02*
X183440000Y-90250000D01*
D16*
X199200000Y-105737500D02*
X199200000Y-104762500D01*
D15*
X184000000Y-105250000D02*
X198500000Y-105250000D01*
X184000000Y-105250000D02*
X183440000Y-105250000D01*
X198501973Y-105248027D02*
X198500000Y-105250000D01*
X198714473Y-105248027D02*
X198501973Y-105248027D01*
X199200000Y-104762500D02*
X198714473Y-105248027D01*
D16*
X242800000Y-104762500D02*
X242800000Y-105737500D01*
D15*
X258555500Y-105250000D02*
X242800000Y-105250000D01*
X184000000Y-135250000D02*
X258555500Y-135250000D01*
X184000000Y-135250000D02*
X183440000Y-135250000D01*
D12*
G36*
X198306334Y-165424934D02*
G01*
X198350086Y-165506788D01*
X198408966Y-165578534D01*
X198480712Y-165637414D01*
X198562566Y-165681166D01*
X198651383Y-165708109D01*
X198743750Y-165717206D01*
X199656250Y-165717206D01*
X199748617Y-165708109D01*
X199837434Y-165681166D01*
X199919288Y-165637414D01*
X199991034Y-165578534D01*
X200049914Y-165506788D01*
X200093666Y-165424934D01*
X200101600Y-165398780D01*
X214391962Y-165398780D01*
X214423095Y-165415421D01*
X214466187Y-165428492D01*
X214511000Y-165432906D01*
X215096400Y-165432906D01*
X215096399Y-171357610D01*
X215089971Y-171436194D01*
X215073151Y-171495335D01*
X215045166Y-171550079D01*
X215007081Y-171598345D01*
X214960352Y-171638289D01*
X214906744Y-171668402D01*
X214848311Y-171687528D01*
X214775259Y-171696399D01*
X183642403Y-171696401D01*
X183563807Y-171689972D01*
X183504666Y-171673152D01*
X183449922Y-171645167D01*
X183401656Y-171607082D01*
X183361712Y-171560353D01*
X183331599Y-171506744D01*
X183312473Y-171448312D01*
X183303602Y-171375260D01*
X183303602Y-165432906D01*
X183889000Y-165432906D01*
X183933813Y-165428492D01*
X183976905Y-165415421D01*
X184008038Y-165398780D01*
X198298400Y-165398780D01*
X198306334Y-165424934D01*
G37*
X198306334Y-165424934D02*
X198350086Y-165506788D01*
X198408966Y-165578534D01*
X198480712Y-165637414D01*
X198562566Y-165681166D01*
X198651383Y-165708109D01*
X198743750Y-165717206D01*
X199656250Y-165717206D01*
X199748617Y-165708109D01*
X199837434Y-165681166D01*
X199919288Y-165637414D01*
X199991034Y-165578534D01*
X200049914Y-165506788D01*
X200093666Y-165424934D01*
X200101600Y-165398780D01*
X214391962Y-165398780D01*
X214423095Y-165415421D01*
X214466187Y-165428492D01*
X214511000Y-165432906D01*
X215096400Y-165432906D01*
X215096399Y-171357610D01*
X215089971Y-171436194D01*
X215073151Y-171495335D01*
X215045166Y-171550079D01*
X215007081Y-171598345D01*
X214960352Y-171638289D01*
X214906744Y-171668402D01*
X214848311Y-171687528D01*
X214775259Y-171696399D01*
X183642403Y-171696401D01*
X183563807Y-171689972D01*
X183504666Y-171673152D01*
X183449922Y-171645167D01*
X183401656Y-171607082D01*
X183361712Y-171560353D01*
X183331599Y-171506744D01*
X183312473Y-171448312D01*
X183303602Y-171375260D01*
X183303602Y-165432906D01*
X183889000Y-165432906D01*
X183933813Y-165428492D01*
X183976905Y-165415421D01*
X184008038Y-165398780D01*
X198298400Y-165398780D01*
X198306334Y-165424934D01*
G36*
X198270294Y-150456250D02*
G01*
X198273800Y-150491848D01*
X198273800Y-151700000D01*
X198275264Y-151714866D01*
X198279600Y-151729160D01*
X198286642Y-151742334D01*
X198296118Y-151753882D01*
X198307666Y-151763358D01*
X198320840Y-151770400D01*
X198335134Y-151774736D01*
X198350000Y-151776200D01*
X201500000Y-151776200D01*
X201514866Y-151774736D01*
X201529160Y-151770400D01*
X201542334Y-151763358D01*
X201553882Y-151753882D01*
X201563358Y-151742334D01*
X201570400Y-151729160D01*
X201574736Y-151714866D01*
X201576200Y-151700000D01*
X201576200Y-150491848D01*
X201579706Y-150456250D01*
X201579706Y-150398780D01*
X215821962Y-150398780D01*
X215853095Y-150415421D01*
X215896187Y-150428492D01*
X215941000Y-150432906D01*
X216526400Y-150432906D01*
X216526400Y-156857609D01*
X216519972Y-156936193D01*
X216503152Y-156995334D01*
X216475167Y-157050078D01*
X216437082Y-157098344D01*
X216390353Y-157138288D01*
X216336745Y-157168401D01*
X216278312Y-157187527D01*
X216205255Y-157196399D01*
X215995091Y-157196403D01*
X215976992Y-157198186D01*
X215973285Y-157198220D01*
X215969073Y-157198701D01*
X215957503Y-157200106D01*
X215950479Y-157200798D01*
X215949594Y-157201066D01*
X215848936Y-157213290D01*
X215822076Y-157219257D01*
X215795131Y-157224849D01*
X215791093Y-157226139D01*
X215676079Y-157263785D01*
X215650920Y-157274842D01*
X215625547Y-157285573D01*
X215621836Y-157287623D01*
X215516324Y-157346891D01*
X215493754Y-157362650D01*
X215470984Y-157378081D01*
X215467742Y-157380813D01*
X215375752Y-157459446D01*
X215356666Y-157479296D01*
X215337333Y-157498849D01*
X215334688Y-157502152D01*
X215334683Y-157502157D01*
X215334680Y-157502162D01*
X215259718Y-157597162D01*
X215244840Y-157620358D01*
X215229685Y-157643276D01*
X215227728Y-157647037D01*
X215172644Y-157754792D01*
X215162555Y-157780437D01*
X215152140Y-157805862D01*
X215150951Y-157809931D01*
X215117846Y-157926333D01*
X215112930Y-157953451D01*
X215107652Y-157980411D01*
X215107278Y-157984626D01*
X215107276Y-157984635D01*
X215107276Y-157984644D01*
X215097608Y-158102845D01*
X215096401Y-158115096D01*
X215096400Y-164567094D01*
X214511000Y-164567094D01*
X214466187Y-164571508D01*
X214423095Y-164584579D01*
X214391962Y-164601220D01*
X200101600Y-164601220D01*
X200093666Y-164575066D01*
X200049914Y-164493212D01*
X199991034Y-164421466D01*
X199919288Y-164362586D01*
X199837434Y-164318834D01*
X199748617Y-164291891D01*
X199656250Y-164282794D01*
X198743750Y-164282794D01*
X198651383Y-164291891D01*
X198562566Y-164318834D01*
X198480712Y-164362586D01*
X198408966Y-164421466D01*
X198350086Y-164493212D01*
X198306334Y-164575066D01*
X198298400Y-164601220D01*
X184008038Y-164601220D01*
X183976905Y-164584579D01*
X183933813Y-164571508D01*
X183889000Y-164567094D01*
X183303602Y-164567094D01*
X183303601Y-150432906D01*
X183889000Y-150432906D01*
X183933813Y-150428492D01*
X183976905Y-150415421D01*
X184008038Y-150398780D01*
X198270294Y-150398780D01*
X198270294Y-150456250D01*
G37*
X198270294Y-150456250D02*
X198273800Y-150491848D01*
X198273800Y-151700000D01*
X198275264Y-151714866D01*
X198279600Y-151729160D01*
X198286642Y-151742334D01*
X198296118Y-151753882D01*
X198307666Y-151763358D01*
X198320840Y-151770400D01*
X198335134Y-151774736D01*
X198350000Y-151776200D01*
X201500000Y-151776200D01*
X201514866Y-151774736D01*
X201529160Y-151770400D01*
X201542334Y-151763358D01*
X201553882Y-151753882D01*
X201563358Y-151742334D01*
X201570400Y-151729160D01*
X201574736Y-151714866D01*
X201576200Y-151700000D01*
X201576200Y-150491848D01*
X201579706Y-150456250D01*
X201579706Y-150398780D01*
X215821962Y-150398780D01*
X215853095Y-150415421D01*
X215896187Y-150428492D01*
X215941000Y-150432906D01*
X216526400Y-150432906D01*
X216526400Y-156857609D01*
X216519972Y-156936193D01*
X216503152Y-156995334D01*
X216475167Y-157050078D01*
X216437082Y-157098344D01*
X216390353Y-157138288D01*
X216336745Y-157168401D01*
X216278312Y-157187527D01*
X216205255Y-157196399D01*
X215995091Y-157196403D01*
X215976992Y-157198186D01*
X215973285Y-157198220D01*
X215969073Y-157198701D01*
X215957503Y-157200106D01*
X215950479Y-157200798D01*
X215949594Y-157201066D01*
X215848936Y-157213290D01*
X215822076Y-157219257D01*
X215795131Y-157224849D01*
X215791093Y-157226139D01*
X215676079Y-157263785D01*
X215650920Y-157274842D01*
X215625547Y-157285573D01*
X215621836Y-157287623D01*
X215516324Y-157346891D01*
X215493754Y-157362650D01*
X215470984Y-157378081D01*
X215467742Y-157380813D01*
X215375752Y-157459446D01*
X215356666Y-157479296D01*
X215337333Y-157498849D01*
X215334688Y-157502152D01*
X215334683Y-157502157D01*
X215334680Y-157502162D01*
X215259718Y-157597162D01*
X215244840Y-157620358D01*
X215229685Y-157643276D01*
X215227728Y-157647037D01*
X215172644Y-157754792D01*
X215162555Y-157780437D01*
X215152140Y-157805862D01*
X215150951Y-157809931D01*
X215117846Y-157926333D01*
X215112930Y-157953451D01*
X215107652Y-157980411D01*
X215107278Y-157984626D01*
X215107276Y-157984635D01*
X215107276Y-157984644D01*
X215097608Y-158102845D01*
X215096401Y-158115096D01*
X215096400Y-164567094D01*
X214511000Y-164567094D01*
X214466187Y-164571508D01*
X214423095Y-164584579D01*
X214391962Y-164601220D01*
X200101600Y-164601220D01*
X200093666Y-164575066D01*
X200049914Y-164493212D01*
X199991034Y-164421466D01*
X199919288Y-164362586D01*
X199837434Y-164318834D01*
X199748617Y-164291891D01*
X199656250Y-164282794D01*
X198743750Y-164282794D01*
X198651383Y-164291891D01*
X198562566Y-164318834D01*
X198480712Y-164362586D01*
X198408966Y-164421466D01*
X198350086Y-164493212D01*
X198306334Y-164575066D01*
X198298400Y-164601220D01*
X184008038Y-164601220D01*
X183976905Y-164584579D01*
X183933813Y-164571508D01*
X183889000Y-164567094D01*
X183303602Y-164567094D01*
X183303601Y-150432906D01*
X183889000Y-150432906D01*
X183933813Y-150428492D01*
X183976905Y-150415421D01*
X184008038Y-150398780D01*
X198270294Y-150398780D01*
X198270294Y-150456250D01*
G36*
X258023095Y-135665421D02*
G01*
X258066187Y-135678492D01*
X258111000Y-135682906D01*
X258696401Y-135682906D01*
X258696401Y-141857599D01*
X258689972Y-141936195D01*
X258673152Y-141995336D01*
X258645167Y-142050080D01*
X258607082Y-142098346D01*
X258560353Y-142138290D01*
X258506745Y-142168403D01*
X258448312Y-142187529D01*
X258375260Y-142196400D01*
X217425096Y-142196400D01*
X217406982Y-142198184D01*
X217403285Y-142198218D01*
X217399073Y-142198699D01*
X217387562Y-142200097D01*
X217380484Y-142200794D01*
X217379591Y-142201065D01*
X217278936Y-142213288D01*
X217252076Y-142219255D01*
X217225131Y-142224847D01*
X217221093Y-142226137D01*
X217106079Y-142263783D01*
X217080920Y-142274840D01*
X217055547Y-142285571D01*
X217051836Y-142287621D01*
X216946324Y-142346889D01*
X216923754Y-142362648D01*
X216900984Y-142378079D01*
X216897742Y-142380811D01*
X216805752Y-142459444D01*
X216786666Y-142479294D01*
X216767333Y-142498847D01*
X216764688Y-142502150D01*
X216764683Y-142502155D01*
X216764680Y-142502160D01*
X216689718Y-142597160D01*
X216674840Y-142620356D01*
X216659685Y-142643274D01*
X216657728Y-142647035D01*
X216602644Y-142754790D01*
X216592555Y-142780435D01*
X216582140Y-142805860D01*
X216580951Y-142809929D01*
X216547846Y-142926331D01*
X216542930Y-142953449D01*
X216537652Y-142980409D01*
X216537278Y-142984624D01*
X216537276Y-142984633D01*
X216537276Y-142984642D01*
X216527608Y-143102843D01*
X216526401Y-143115094D01*
X216526401Y-149567094D01*
X215941000Y-149567094D01*
X215896187Y-149571508D01*
X215853095Y-149584579D01*
X215821962Y-149601220D01*
X201579706Y-149601220D01*
X201579706Y-149543750D01*
X201576200Y-149508152D01*
X201576200Y-148300000D01*
X201574736Y-148285134D01*
X201570400Y-148270840D01*
X201563358Y-148257666D01*
X201553882Y-148246118D01*
X201542334Y-148236642D01*
X201529160Y-148229600D01*
X201514866Y-148225264D01*
X201500000Y-148223800D01*
X198350000Y-148223800D01*
X198335134Y-148225264D01*
X198320840Y-148229600D01*
X198307666Y-148236642D01*
X198296118Y-148246118D01*
X198286642Y-148257666D01*
X198279600Y-148270840D01*
X198275264Y-148285134D01*
X198273800Y-148300000D01*
X198273800Y-149508152D01*
X198270294Y-149543750D01*
X198270294Y-149601220D01*
X184008038Y-149601220D01*
X183976905Y-149584579D01*
X183933813Y-149571508D01*
X183889000Y-149567094D01*
X183303601Y-149567094D01*
X183303601Y-135682906D01*
X183889000Y-135682906D01*
X183933813Y-135678492D01*
X183976905Y-135665421D01*
X184008038Y-135648780D01*
X257991962Y-135648780D01*
X258023095Y-135665421D01*
G37*
X258023095Y-135665421D02*
X258066187Y-135678492D01*
X258111000Y-135682906D01*
X258696401Y-135682906D01*
X258696401Y-141857599D01*
X258689972Y-141936195D01*
X258673152Y-141995336D01*
X258645167Y-142050080D01*
X258607082Y-142098346D01*
X258560353Y-142138290D01*
X258506745Y-142168403D01*
X258448312Y-142187529D01*
X258375260Y-142196400D01*
X217425096Y-142196400D01*
X217406982Y-142198184D01*
X217403285Y-142198218D01*
X217399073Y-142198699D01*
X217387562Y-142200097D01*
X217380484Y-142200794D01*
X217379591Y-142201065D01*
X217278936Y-142213288D01*
X217252076Y-142219255D01*
X217225131Y-142224847D01*
X217221093Y-142226137D01*
X217106079Y-142263783D01*
X217080920Y-142274840D01*
X217055547Y-142285571D01*
X217051836Y-142287621D01*
X216946324Y-142346889D01*
X216923754Y-142362648D01*
X216900984Y-142378079D01*
X216897742Y-142380811D01*
X216805752Y-142459444D01*
X216786666Y-142479294D01*
X216767333Y-142498847D01*
X216764688Y-142502150D01*
X216764683Y-142502155D01*
X216764680Y-142502160D01*
X216689718Y-142597160D01*
X216674840Y-142620356D01*
X216659685Y-142643274D01*
X216657728Y-142647035D01*
X216602644Y-142754790D01*
X216592555Y-142780435D01*
X216582140Y-142805860D01*
X216580951Y-142809929D01*
X216547846Y-142926331D01*
X216542930Y-142953449D01*
X216537652Y-142980409D01*
X216537278Y-142984624D01*
X216537276Y-142984633D01*
X216537276Y-142984642D01*
X216527608Y-143102843D01*
X216526401Y-143115094D01*
X216526401Y-149567094D01*
X215941000Y-149567094D01*
X215896187Y-149571508D01*
X215853095Y-149584579D01*
X215821962Y-149601220D01*
X201579706Y-149601220D01*
X201579706Y-149543750D01*
X201576200Y-149508152D01*
X201576200Y-148300000D01*
X201574736Y-148285134D01*
X201570400Y-148270840D01*
X201563358Y-148257666D01*
X201553882Y-148246118D01*
X201542334Y-148236642D01*
X201529160Y-148229600D01*
X201514866Y-148225264D01*
X201500000Y-148223800D01*
X198350000Y-148223800D01*
X198335134Y-148225264D01*
X198320840Y-148229600D01*
X198307666Y-148236642D01*
X198296118Y-148246118D01*
X198286642Y-148257666D01*
X198279600Y-148270840D01*
X198275264Y-148285134D01*
X198273800Y-148300000D01*
X198273800Y-149508152D01*
X198270294Y-149543750D01*
X198270294Y-149601220D01*
X184008038Y-149601220D01*
X183976905Y-149584579D01*
X183933813Y-149571508D01*
X183889000Y-149567094D01*
X183303601Y-149567094D01*
X183303601Y-135682906D01*
X183889000Y-135682906D01*
X183933813Y-135678492D01*
X183976905Y-135665421D01*
X184008038Y-135648780D01*
X257991962Y-135648780D01*
X258023095Y-135665421D01*
G36*
X213023095Y-90665421D02*
G01*
X213066187Y-90678492D01*
X213111000Y-90682906D01*
X213696401Y-90682906D01*
X213696403Y-97154904D01*
X213698186Y-97173007D01*
X213698220Y-97176716D01*
X213698701Y-97180928D01*
X213700105Y-97192487D01*
X213700797Y-97199516D01*
X213701066Y-97200403D01*
X213713290Y-97301064D01*
X213719258Y-97327931D01*
X213724849Y-97354869D01*
X213726139Y-97358907D01*
X213763785Y-97473921D01*
X213774860Y-97499122D01*
X213785573Y-97524454D01*
X213787623Y-97528164D01*
X213846892Y-97633676D01*
X213862631Y-97656218D01*
X213878081Y-97679017D01*
X213880809Y-97682253D01*
X213880813Y-97682259D01*
X213880818Y-97682264D01*
X213959446Y-97774248D01*
X213979276Y-97793315D01*
X213998849Y-97812668D01*
X214002152Y-97815312D01*
X214002157Y-97815317D01*
X214002162Y-97815320D01*
X214097162Y-97890282D01*
X214120343Y-97905150D01*
X214143276Y-97920315D01*
X214147037Y-97922272D01*
X214254792Y-97977356D01*
X214280437Y-97987445D01*
X214305862Y-97997860D01*
X214309931Y-97999049D01*
X214426333Y-98032154D01*
X214453419Y-98037065D01*
X214480411Y-98042348D01*
X214484626Y-98042722D01*
X214484635Y-98042724D01*
X214484644Y-98042724D01*
X214602786Y-98052387D01*
X214615096Y-98053600D01*
X258357611Y-98053600D01*
X258436195Y-98060028D01*
X258495336Y-98076848D01*
X258550080Y-98104833D01*
X258598346Y-98142918D01*
X258638291Y-98189648D01*
X258668402Y-98243252D01*
X258687529Y-98301687D01*
X258696400Y-98374740D01*
X258696400Y-104817094D01*
X258111000Y-104817094D01*
X258066187Y-104821508D01*
X258023095Y-104834579D01*
X257991962Y-104851220D01*
X243776200Y-104851220D01*
X243776200Y-103450000D01*
X243774736Y-103435134D01*
X243770400Y-103420840D01*
X243763358Y-103407666D01*
X243753882Y-103396118D01*
X243742334Y-103386642D01*
X243729160Y-103379600D01*
X243714866Y-103375264D01*
X243700000Y-103373800D01*
X240600000Y-103373800D01*
X240585134Y-103375264D01*
X240570840Y-103379600D01*
X240557666Y-103386642D01*
X240546118Y-103396118D01*
X240536642Y-103407666D01*
X240529600Y-103420840D01*
X240525264Y-103435134D01*
X240523800Y-103450000D01*
X240523800Y-107050000D01*
X240525264Y-107064866D01*
X240529600Y-107079160D01*
X240536642Y-107092334D01*
X240546118Y-107103882D01*
X240557666Y-107113358D01*
X240570840Y-107120400D01*
X240585134Y-107124736D01*
X240600000Y-107126200D01*
X243700000Y-107126200D01*
X243714866Y-107124736D01*
X243729160Y-107120400D01*
X243742334Y-107113358D01*
X243753882Y-107103882D01*
X243763358Y-107092334D01*
X243770400Y-107079160D01*
X243774736Y-107064866D01*
X243776200Y-107050000D01*
X243776200Y-105648780D01*
X257991962Y-105648780D01*
X258023095Y-105665421D01*
X258066187Y-105678492D01*
X258111000Y-105682906D01*
X258696400Y-105682906D01*
X258696400Y-119473800D01*
X243500000Y-119473800D01*
X243485134Y-119475264D01*
X243470840Y-119479600D01*
X243457666Y-119486642D01*
X243446118Y-119496118D01*
X243436642Y-119507666D01*
X243429600Y-119520840D01*
X243425264Y-119535134D01*
X243423800Y-119550000D01*
X243423800Y-120950000D01*
X243425264Y-120964866D01*
X243429600Y-120979160D01*
X243436642Y-120992334D01*
X243446118Y-121003882D01*
X243457666Y-121013358D01*
X243470840Y-121020400D01*
X243485134Y-121024736D01*
X243500000Y-121026200D01*
X258696401Y-121026200D01*
X258696401Y-134817094D01*
X258111000Y-134817094D01*
X258066187Y-134821508D01*
X258023095Y-134834579D01*
X257991962Y-134851220D01*
X184008038Y-134851220D01*
X183976905Y-134834579D01*
X183933813Y-134821508D01*
X183889000Y-134817094D01*
X183303601Y-134817094D01*
X183303600Y-120682906D01*
X183889000Y-120682906D01*
X183933813Y-120678492D01*
X183976905Y-120665421D01*
X184008038Y-120648780D01*
X197519584Y-120648780D01*
X197578174Y-120643009D01*
X197653345Y-120620207D01*
X197722622Y-120583177D01*
X197783344Y-120533344D01*
X197833177Y-120472622D01*
X197870207Y-120403345D01*
X197893009Y-120328174D01*
X197900709Y-120250000D01*
X197893009Y-120171826D01*
X197870207Y-120096655D01*
X197833177Y-120027378D01*
X197783344Y-119966656D01*
X197722622Y-119916823D01*
X197653345Y-119879793D01*
X197578174Y-119856991D01*
X197519584Y-119851220D01*
X184008038Y-119851220D01*
X183976905Y-119834579D01*
X183933813Y-119821508D01*
X183889000Y-119817094D01*
X183303600Y-119817094D01*
X183303600Y-119550000D01*
X198423800Y-119550000D01*
X198423800Y-120950000D01*
X198425264Y-120964866D01*
X198429600Y-120979160D01*
X198436642Y-120992334D01*
X198446118Y-121003882D01*
X198457666Y-121013358D01*
X198470840Y-121020400D01*
X198485134Y-121024736D01*
X198500000Y-121026200D01*
X201000000Y-121026200D01*
X201014866Y-121024736D01*
X201029160Y-121020400D01*
X201042334Y-121013358D01*
X201053882Y-121003882D01*
X201063358Y-120992334D01*
X201070400Y-120979160D01*
X201074736Y-120964866D01*
X201076200Y-120950000D01*
X201076200Y-119550000D01*
X201074736Y-119535134D01*
X201070400Y-119520840D01*
X201063358Y-119507666D01*
X201053882Y-119496118D01*
X201042334Y-119486642D01*
X201029160Y-119479600D01*
X201014866Y-119475264D01*
X201000000Y-119473800D01*
X198500000Y-119473800D01*
X198485134Y-119475264D01*
X198470840Y-119479600D01*
X198457666Y-119486642D01*
X198446118Y-119496118D01*
X198436642Y-119507666D01*
X198429600Y-119520840D01*
X198425264Y-119535134D01*
X198423800Y-119550000D01*
X183303600Y-119550000D01*
X183303600Y-105682906D01*
X183889000Y-105682906D01*
X183933813Y-105678492D01*
X183976905Y-105665421D01*
X184008038Y-105648780D01*
X198223800Y-105648780D01*
X198223800Y-107050000D01*
X198225264Y-107064866D01*
X198229600Y-107079160D01*
X198236642Y-107092334D01*
X198246118Y-107103882D01*
X198257666Y-107113358D01*
X198270840Y-107120400D01*
X198285134Y-107124736D01*
X198300000Y-107126200D01*
X201400000Y-107126200D01*
X201414866Y-107124736D01*
X201429160Y-107120400D01*
X201442334Y-107113358D01*
X201453882Y-107103882D01*
X201463358Y-107092334D01*
X201470400Y-107079160D01*
X201474736Y-107064866D01*
X201476200Y-107050000D01*
X201476200Y-103450000D01*
X201474736Y-103435134D01*
X201470400Y-103420840D01*
X201463358Y-103407666D01*
X201453882Y-103396118D01*
X201442334Y-103386642D01*
X201429160Y-103379600D01*
X201414866Y-103375264D01*
X201400000Y-103373800D01*
X198300000Y-103373800D01*
X198285134Y-103375264D01*
X198270840Y-103379600D01*
X198257666Y-103386642D01*
X198246118Y-103396118D01*
X198236642Y-103407666D01*
X198229600Y-103420840D01*
X198225264Y-103435134D01*
X198223800Y-103450000D01*
X198223800Y-104851220D01*
X184008038Y-104851220D01*
X183976905Y-104834579D01*
X183933813Y-104821508D01*
X183889000Y-104817094D01*
X183303600Y-104817094D01*
X183303599Y-90682906D01*
X183889000Y-90682906D01*
X183933813Y-90678492D01*
X183976905Y-90665421D01*
X184008038Y-90648780D01*
X212991962Y-90648780D01*
X213023095Y-90665421D01*
G37*
X213023095Y-90665421D02*
X213066187Y-90678492D01*
X213111000Y-90682906D01*
X213696401Y-90682906D01*
X213696403Y-97154904D01*
X213698186Y-97173007D01*
X213698220Y-97176716D01*
X213698701Y-97180928D01*
X213700105Y-97192487D01*
X213700797Y-97199516D01*
X213701066Y-97200403D01*
X213713290Y-97301064D01*
X213719258Y-97327931D01*
X213724849Y-97354869D01*
X213726139Y-97358907D01*
X213763785Y-97473921D01*
X213774860Y-97499122D01*
X213785573Y-97524454D01*
X213787623Y-97528164D01*
X213846892Y-97633676D01*
X213862631Y-97656218D01*
X213878081Y-97679017D01*
X213880809Y-97682253D01*
X213880813Y-97682259D01*
X213880818Y-97682264D01*
X213959446Y-97774248D01*
X213979276Y-97793315D01*
X213998849Y-97812668D01*
X214002152Y-97815312D01*
X214002157Y-97815317D01*
X214002162Y-97815320D01*
X214097162Y-97890282D01*
X214120343Y-97905150D01*
X214143276Y-97920315D01*
X214147037Y-97922272D01*
X214254792Y-97977356D01*
X214280437Y-97987445D01*
X214305862Y-97997860D01*
X214309931Y-97999049D01*
X214426333Y-98032154D01*
X214453419Y-98037065D01*
X214480411Y-98042348D01*
X214484626Y-98042722D01*
X214484635Y-98042724D01*
X214484644Y-98042724D01*
X214602786Y-98052387D01*
X214615096Y-98053600D01*
X258357611Y-98053600D01*
X258436195Y-98060028D01*
X258495336Y-98076848D01*
X258550080Y-98104833D01*
X258598346Y-98142918D01*
X258638291Y-98189648D01*
X258668402Y-98243252D01*
X258687529Y-98301687D01*
X258696400Y-98374740D01*
X258696400Y-104817094D01*
X258111000Y-104817094D01*
X258066187Y-104821508D01*
X258023095Y-104834579D01*
X257991962Y-104851220D01*
X243776200Y-104851220D01*
X243776200Y-103450000D01*
X243774736Y-103435134D01*
X243770400Y-103420840D01*
X243763358Y-103407666D01*
X243753882Y-103396118D01*
X243742334Y-103386642D01*
X243729160Y-103379600D01*
X243714866Y-103375264D01*
X243700000Y-103373800D01*
X240600000Y-103373800D01*
X240585134Y-103375264D01*
X240570840Y-103379600D01*
X240557666Y-103386642D01*
X240546118Y-103396118D01*
X240536642Y-103407666D01*
X240529600Y-103420840D01*
X240525264Y-103435134D01*
X240523800Y-103450000D01*
X240523800Y-107050000D01*
X240525264Y-107064866D01*
X240529600Y-107079160D01*
X240536642Y-107092334D01*
X240546118Y-107103882D01*
X240557666Y-107113358D01*
X240570840Y-107120400D01*
X240585134Y-107124736D01*
X240600000Y-107126200D01*
X243700000Y-107126200D01*
X243714866Y-107124736D01*
X243729160Y-107120400D01*
X243742334Y-107113358D01*
X243753882Y-107103882D01*
X243763358Y-107092334D01*
X243770400Y-107079160D01*
X243774736Y-107064866D01*
X243776200Y-107050000D01*
X243776200Y-105648780D01*
X257991962Y-105648780D01*
X258023095Y-105665421D01*
X258066187Y-105678492D01*
X258111000Y-105682906D01*
X258696400Y-105682906D01*
X258696400Y-119473800D01*
X243500000Y-119473800D01*
X243485134Y-119475264D01*
X243470840Y-119479600D01*
X243457666Y-119486642D01*
X243446118Y-119496118D01*
X243436642Y-119507666D01*
X243429600Y-119520840D01*
X243425264Y-119535134D01*
X243423800Y-119550000D01*
X243423800Y-120950000D01*
X243425264Y-120964866D01*
X243429600Y-120979160D01*
X243436642Y-120992334D01*
X243446118Y-121003882D01*
X243457666Y-121013358D01*
X243470840Y-121020400D01*
X243485134Y-121024736D01*
X243500000Y-121026200D01*
X258696401Y-121026200D01*
X258696401Y-134817094D01*
X258111000Y-134817094D01*
X258066187Y-134821508D01*
X258023095Y-134834579D01*
X257991962Y-134851220D01*
X184008038Y-134851220D01*
X183976905Y-134834579D01*
X183933813Y-134821508D01*
X183889000Y-134817094D01*
X183303601Y-134817094D01*
X183303600Y-120682906D01*
X183889000Y-120682906D01*
X183933813Y-120678492D01*
X183976905Y-120665421D01*
X184008038Y-120648780D01*
X197519584Y-120648780D01*
X197578174Y-120643009D01*
X197653345Y-120620207D01*
X197722622Y-120583177D01*
X197783344Y-120533344D01*
X197833177Y-120472622D01*
X197870207Y-120403345D01*
X197893009Y-120328174D01*
X197900709Y-120250000D01*
X197893009Y-120171826D01*
X197870207Y-120096655D01*
X197833177Y-120027378D01*
X197783344Y-119966656D01*
X197722622Y-119916823D01*
X197653345Y-119879793D01*
X197578174Y-119856991D01*
X197519584Y-119851220D01*
X184008038Y-119851220D01*
X183976905Y-119834579D01*
X183933813Y-119821508D01*
X183889000Y-119817094D01*
X183303600Y-119817094D01*
X183303600Y-119550000D01*
X198423800Y-119550000D01*
X198423800Y-120950000D01*
X198425264Y-120964866D01*
X198429600Y-120979160D01*
X198436642Y-120992334D01*
X198446118Y-121003882D01*
X198457666Y-121013358D01*
X198470840Y-121020400D01*
X198485134Y-121024736D01*
X198500000Y-121026200D01*
X201000000Y-121026200D01*
X201014866Y-121024736D01*
X201029160Y-121020400D01*
X201042334Y-121013358D01*
X201053882Y-121003882D01*
X201063358Y-120992334D01*
X201070400Y-120979160D01*
X201074736Y-120964866D01*
X201076200Y-120950000D01*
X201076200Y-119550000D01*
X201074736Y-119535134D01*
X201070400Y-119520840D01*
X201063358Y-119507666D01*
X201053882Y-119496118D01*
X201042334Y-119486642D01*
X201029160Y-119479600D01*
X201014866Y-119475264D01*
X201000000Y-119473800D01*
X198500000Y-119473800D01*
X198485134Y-119475264D01*
X198470840Y-119479600D01*
X198457666Y-119486642D01*
X198446118Y-119496118D01*
X198436642Y-119507666D01*
X198429600Y-119520840D01*
X198425264Y-119535134D01*
X198423800Y-119550000D01*
X183303600Y-119550000D01*
X183303600Y-105682906D01*
X183889000Y-105682906D01*
X183933813Y-105678492D01*
X183976905Y-105665421D01*
X184008038Y-105648780D01*
X198223800Y-105648780D01*
X198223800Y-107050000D01*
X198225264Y-107064866D01*
X198229600Y-107079160D01*
X198236642Y-107092334D01*
X198246118Y-107103882D01*
X198257666Y-107113358D01*
X198270840Y-107120400D01*
X198285134Y-107124736D01*
X198300000Y-107126200D01*
X201400000Y-107126200D01*
X201414866Y-107124736D01*
X201429160Y-107120400D01*
X201442334Y-107113358D01*
X201453882Y-107103882D01*
X201463358Y-107092334D01*
X201470400Y-107079160D01*
X201474736Y-107064866D01*
X201476200Y-107050000D01*
X201476200Y-103450000D01*
X201474736Y-103435134D01*
X201470400Y-103420840D01*
X201463358Y-103407666D01*
X201453882Y-103396118D01*
X201442334Y-103386642D01*
X201429160Y-103379600D01*
X201414866Y-103375264D01*
X201400000Y-103373800D01*
X198300000Y-103373800D01*
X198285134Y-103375264D01*
X198270840Y-103379600D01*
X198257666Y-103386642D01*
X198246118Y-103396118D01*
X198236642Y-103407666D01*
X198229600Y-103420840D01*
X198225264Y-103435134D01*
X198223800Y-103450000D01*
X198223800Y-104851220D01*
X184008038Y-104851220D01*
X183976905Y-104834579D01*
X183933813Y-104821508D01*
X183889000Y-104817094D01*
X183303600Y-104817094D01*
X183303599Y-90682906D01*
X183889000Y-90682906D01*
X183933813Y-90678492D01*
X183976905Y-90665421D01*
X184008038Y-90648780D01*
X212991962Y-90648780D01*
X213023095Y-90665421D01*
G36*
X213436193Y-83560028D02*
G01*
X213495334Y-83576848D01*
X213550078Y-83604833D01*
X213598344Y-83642918D01*
X213638289Y-83689648D01*
X213668400Y-83743252D01*
X213687527Y-83801687D01*
X213696398Y-83874740D01*
X213696400Y-89817094D01*
X213111000Y-89817094D01*
X213066187Y-89821508D01*
X213023095Y-89834579D01*
X212991962Y-89851220D01*
X184008038Y-89851220D01*
X183976905Y-89834579D01*
X183933813Y-89821508D01*
X183889000Y-89817094D01*
X183303599Y-89817094D01*
X183303599Y-83892401D01*
X183310028Y-83813805D01*
X183326848Y-83754664D01*
X183354833Y-83699920D01*
X183392918Y-83651654D01*
X183439648Y-83611709D01*
X183493252Y-83581598D01*
X183551687Y-83562471D01*
X183624740Y-83553600D01*
X213357609Y-83553600D01*
X213436193Y-83560028D01*
G37*
X213436193Y-83560028D02*
X213495334Y-83576848D01*
X213550078Y-83604833D01*
X213598344Y-83642918D01*
X213638289Y-83689648D01*
X213668400Y-83743252D01*
X213687527Y-83801687D01*
X213696398Y-83874740D01*
X213696400Y-89817094D01*
X213111000Y-89817094D01*
X213066187Y-89821508D01*
X213023095Y-89834579D01*
X212991962Y-89851220D01*
X184008038Y-89851220D01*
X183976905Y-89834579D01*
X183933813Y-89821508D01*
X183889000Y-89817094D01*
X183303599Y-89817094D01*
X183303599Y-83892401D01*
X183310028Y-83813805D01*
X183326848Y-83754664D01*
X183354833Y-83699920D01*
X183392918Y-83651654D01*
X183439648Y-83611709D01*
X183493252Y-83581598D01*
X183551687Y-83562471D01*
X183624740Y-83553600D01*
X213357609Y-83553600D01*
X213436193Y-83560028D01*
M02*
