G04 #@! TF.GenerationSoftware,KiCad,Pcbnew,(5.1.5)-2*
G04 #@! TF.CreationDate,2020-02-16T11:04:41+01:00*
G04 #@! TF.ProjectId,OSHPark_4Layers_trl-board_v0_1,4f534850-6172-46b5-9f34-4c6179657273,rev?*
G04 #@! TF.SameCoordinates,Original*
G04 #@! TF.FileFunction,Legend,Top*
G04 #@! TF.FilePolarity,Positive*
%FSLAX46Y46*%
G04 Gerber Fmt 4.6, Leading zero omitted, Abs format (unit mm)*
G04 Created by KiCad (PCBNEW (5.1.5)-2) date 2020-02-16 11:04:41*
%MOMM*%
%LPD*%
G04 APERTURE LIST*
%ADD10C,0.300000*%
%ADD11C,0.150000*%
%ADD12C,0.120000*%
G04 APERTURE END LIST*
D10*
X208607857Y-107288571D02*
X208893571Y-107288571D01*
X209036428Y-107360000D01*
X209179285Y-107502857D01*
X209250714Y-107788571D01*
X209250714Y-108288571D01*
X209179285Y-108574285D01*
X209036428Y-108717142D01*
X208893571Y-108788571D01*
X208607857Y-108788571D01*
X208465000Y-108717142D01*
X208322142Y-108574285D01*
X208250714Y-108288571D01*
X208250714Y-107788571D01*
X208322142Y-107502857D01*
X208465000Y-107360000D01*
X208607857Y-107288571D01*
X209822142Y-108717142D02*
X210036428Y-108788571D01*
X210393571Y-108788571D01*
X210536428Y-108717142D01*
X210607857Y-108645714D01*
X210679285Y-108502857D01*
X210679285Y-108360000D01*
X210607857Y-108217142D01*
X210536428Y-108145714D01*
X210393571Y-108074285D01*
X210107857Y-108002857D01*
X209965000Y-107931428D01*
X209893571Y-107860000D01*
X209822142Y-107717142D01*
X209822142Y-107574285D01*
X209893571Y-107431428D01*
X209965000Y-107360000D01*
X210107857Y-107288571D01*
X210465000Y-107288571D01*
X210679285Y-107360000D01*
X211322142Y-108788571D02*
X211322142Y-107288571D01*
X211322142Y-108002857D02*
X212179285Y-108002857D01*
X212179285Y-108788571D02*
X212179285Y-107288571D01*
X212893571Y-108788571D02*
X212893571Y-107288571D01*
X213465000Y-107288571D01*
X213607857Y-107360000D01*
X213679285Y-107431428D01*
X213750714Y-107574285D01*
X213750714Y-107788571D01*
X213679285Y-107931428D01*
X213607857Y-108002857D01*
X213465000Y-108074285D01*
X212893571Y-108074285D01*
X215036428Y-108788571D02*
X215036428Y-108002857D01*
X214965000Y-107860000D01*
X214822142Y-107788571D01*
X214536428Y-107788571D01*
X214393571Y-107860000D01*
X215036428Y-108717142D02*
X214893571Y-108788571D01*
X214536428Y-108788571D01*
X214393571Y-108717142D01*
X214322142Y-108574285D01*
X214322142Y-108431428D01*
X214393571Y-108288571D01*
X214536428Y-108217142D01*
X214893571Y-108217142D01*
X215036428Y-108145714D01*
X215750714Y-108788571D02*
X215750714Y-107788571D01*
X215750714Y-108074285D02*
X215822142Y-107931428D01*
X215893571Y-107860000D01*
X216036428Y-107788571D01*
X216179285Y-107788571D01*
X216679285Y-108788571D02*
X216679285Y-107288571D01*
X216822142Y-108217142D02*
X217250714Y-108788571D01*
X217250714Y-107788571D02*
X216679285Y-108360000D01*
X219679285Y-107788571D02*
X219679285Y-108788571D01*
X219322142Y-107217142D02*
X218965000Y-108288571D01*
X219893571Y-108288571D01*
X220465000Y-108217142D02*
X221607857Y-108217142D01*
X223036428Y-108788571D02*
X222322142Y-108788571D01*
X222322142Y-107288571D01*
X224179285Y-108788571D02*
X224179285Y-108002857D01*
X224107857Y-107860000D01*
X223965000Y-107788571D01*
X223679285Y-107788571D01*
X223536428Y-107860000D01*
X224179285Y-108717142D02*
X224036428Y-108788571D01*
X223679285Y-108788571D01*
X223536428Y-108717142D01*
X223465000Y-108574285D01*
X223465000Y-108431428D01*
X223536428Y-108288571D01*
X223679285Y-108217142D01*
X224036428Y-108217142D01*
X224179285Y-108145714D01*
X224750714Y-107788571D02*
X225107857Y-108788571D01*
X225465000Y-107788571D02*
X225107857Y-108788571D01*
X224965000Y-109145714D01*
X224893571Y-109217142D01*
X224750714Y-109288571D01*
X226607857Y-108717142D02*
X226465000Y-108788571D01*
X226179285Y-108788571D01*
X226036428Y-108717142D01*
X225965000Y-108574285D01*
X225965000Y-108002857D01*
X226036428Y-107860000D01*
X226179285Y-107788571D01*
X226465000Y-107788571D01*
X226607857Y-107860000D01*
X226679285Y-108002857D01*
X226679285Y-108145714D01*
X225965000Y-108288571D01*
X227322142Y-108788571D02*
X227322142Y-107788571D01*
X227322142Y-108074285D02*
X227393571Y-107931428D01*
X227465000Y-107860000D01*
X227607857Y-107788571D01*
X227750714Y-107788571D01*
X228179285Y-108717142D02*
X228322142Y-108788571D01*
X228607857Y-108788571D01*
X228750714Y-108717142D01*
X228822142Y-108574285D01*
X228822142Y-108502857D01*
X228750714Y-108360000D01*
X228607857Y-108288571D01*
X228393571Y-108288571D01*
X228250714Y-108217142D01*
X228179285Y-108074285D01*
X228179285Y-108002857D01*
X228250714Y-107860000D01*
X228393571Y-107788571D01*
X228607857Y-107788571D01*
X228750714Y-107860000D01*
X208107857Y-109838571D02*
X208965000Y-109838571D01*
X208536428Y-111338571D02*
X208536428Y-109838571D01*
X210322142Y-111338571D02*
X209822142Y-110624285D01*
X209465000Y-111338571D02*
X209465000Y-109838571D01*
X210036428Y-109838571D01*
X210179285Y-109910000D01*
X210250714Y-109981428D01*
X210322142Y-110124285D01*
X210322142Y-110338571D01*
X210250714Y-110481428D01*
X210179285Y-110552857D01*
X210036428Y-110624285D01*
X209465000Y-110624285D01*
X211679285Y-111338571D02*
X210965000Y-111338571D01*
X210965000Y-109838571D01*
X213822142Y-110552857D02*
X214036428Y-110624285D01*
X214107857Y-110695714D01*
X214179285Y-110838571D01*
X214179285Y-111052857D01*
X214107857Y-111195714D01*
X214036428Y-111267142D01*
X213893571Y-111338571D01*
X213322142Y-111338571D01*
X213322142Y-109838571D01*
X213822142Y-109838571D01*
X213965000Y-109910000D01*
X214036428Y-109981428D01*
X214107857Y-110124285D01*
X214107857Y-110267142D01*
X214036428Y-110410000D01*
X213965000Y-110481428D01*
X213822142Y-110552857D01*
X213322142Y-110552857D01*
X215036428Y-111338571D02*
X214893571Y-111267142D01*
X214822142Y-111195714D01*
X214750714Y-111052857D01*
X214750714Y-110624285D01*
X214822142Y-110481428D01*
X214893571Y-110410000D01*
X215036428Y-110338571D01*
X215250714Y-110338571D01*
X215393571Y-110410000D01*
X215465000Y-110481428D01*
X215536428Y-110624285D01*
X215536428Y-111052857D01*
X215465000Y-111195714D01*
X215393571Y-111267142D01*
X215250714Y-111338571D01*
X215036428Y-111338571D01*
X216822142Y-111338571D02*
X216822142Y-110552857D01*
X216750714Y-110410000D01*
X216607857Y-110338571D01*
X216322142Y-110338571D01*
X216179285Y-110410000D01*
X216822142Y-111267142D02*
X216679285Y-111338571D01*
X216322142Y-111338571D01*
X216179285Y-111267142D01*
X216107857Y-111124285D01*
X216107857Y-110981428D01*
X216179285Y-110838571D01*
X216322142Y-110767142D01*
X216679285Y-110767142D01*
X216822142Y-110695714D01*
X217536428Y-111338571D02*
X217536428Y-110338571D01*
X217536428Y-110624285D02*
X217607857Y-110481428D01*
X217679285Y-110410000D01*
X217822142Y-110338571D01*
X217965000Y-110338571D01*
X219107857Y-111338571D02*
X219107857Y-109838571D01*
X219107857Y-111267142D02*
X218965000Y-111338571D01*
X218679285Y-111338571D01*
X218536428Y-111267142D01*
X218465000Y-111195714D01*
X218393571Y-111052857D01*
X218393571Y-110624285D01*
X218465000Y-110481428D01*
X218536428Y-110410000D01*
X218679285Y-110338571D01*
X218965000Y-110338571D01*
X219107857Y-110410000D01*
X220822142Y-110338571D02*
X221179285Y-111338571D01*
X221536428Y-110338571D01*
X222393571Y-109838571D02*
X222536428Y-109838571D01*
X222679285Y-109910000D01*
X222750714Y-109981428D01*
X222822142Y-110124285D01*
X222893571Y-110410000D01*
X222893571Y-110767142D01*
X222822142Y-111052857D01*
X222750714Y-111195714D01*
X222679285Y-111267142D01*
X222536428Y-111338571D01*
X222393571Y-111338571D01*
X222250714Y-111267142D01*
X222179285Y-111195714D01*
X222107857Y-111052857D01*
X222036428Y-110767142D01*
X222036428Y-110410000D01*
X222107857Y-110124285D01*
X222179285Y-109981428D01*
X222250714Y-109910000D01*
X222393571Y-109838571D01*
X223536428Y-111195714D02*
X223607857Y-111267142D01*
X223536428Y-111338571D01*
X223465000Y-111267142D01*
X223536428Y-111195714D01*
X223536428Y-111338571D01*
X225036428Y-111338571D02*
X224179285Y-111338571D01*
X224607857Y-111338571D02*
X224607857Y-109838571D01*
X224465000Y-110052857D01*
X224322142Y-110195714D01*
X224179285Y-110267142D01*
X209107857Y-113888571D02*
X208250714Y-113888571D01*
X208679285Y-113888571D02*
X208679285Y-112388571D01*
X208536428Y-112602857D01*
X208393571Y-112745714D01*
X208250714Y-112817142D01*
X210393571Y-112388571D02*
X210107857Y-112388571D01*
X209965000Y-112460000D01*
X209893571Y-112531428D01*
X209750714Y-112745714D01*
X209679285Y-113031428D01*
X209679285Y-113602857D01*
X209750714Y-113745714D01*
X209822142Y-113817142D01*
X209965000Y-113888571D01*
X210250714Y-113888571D01*
X210393571Y-113817142D01*
X210465000Y-113745714D01*
X210536428Y-113602857D01*
X210536428Y-113245714D01*
X210465000Y-113102857D01*
X210393571Y-113031428D01*
X210250714Y-112960000D01*
X209965000Y-112960000D01*
X209822142Y-113031428D01*
X209750714Y-113102857D01*
X209679285Y-113245714D01*
X211179285Y-113317142D02*
X212322142Y-113317142D01*
X213536428Y-113102857D02*
X213036428Y-113102857D01*
X213036428Y-113888571D02*
X213036428Y-112388571D01*
X213750714Y-112388571D01*
X214893571Y-113817142D02*
X214750714Y-113888571D01*
X214465000Y-113888571D01*
X214322142Y-113817142D01*
X214250714Y-113674285D01*
X214250714Y-113102857D01*
X214322142Y-112960000D01*
X214465000Y-112888571D01*
X214750714Y-112888571D01*
X214893571Y-112960000D01*
X214965000Y-113102857D01*
X214965000Y-113245714D01*
X214250714Y-113388571D01*
X215607857Y-113888571D02*
X215607857Y-112388571D01*
X215607857Y-112960000D02*
X215750714Y-112888571D01*
X216036428Y-112888571D01*
X216179285Y-112960000D01*
X216250714Y-113031428D01*
X216322142Y-113174285D01*
X216322142Y-113602857D01*
X216250714Y-113745714D01*
X216179285Y-113817142D01*
X216036428Y-113888571D01*
X215750714Y-113888571D01*
X215607857Y-113817142D01*
X216965000Y-113317142D02*
X218107857Y-113317142D01*
X218750714Y-112531428D02*
X218822142Y-112460000D01*
X218965000Y-112388571D01*
X219322142Y-112388571D01*
X219465000Y-112460000D01*
X219536428Y-112531428D01*
X219607857Y-112674285D01*
X219607857Y-112817142D01*
X219536428Y-113031428D01*
X218679285Y-113888571D01*
X219607857Y-113888571D01*
X220536428Y-112388571D02*
X220679285Y-112388571D01*
X220822142Y-112460000D01*
X220893571Y-112531428D01*
X220965000Y-112674285D01*
X221036428Y-112960000D01*
X221036428Y-113317142D01*
X220965000Y-113602857D01*
X220893571Y-113745714D01*
X220822142Y-113817142D01*
X220679285Y-113888571D01*
X220536428Y-113888571D01*
X220393571Y-113817142D01*
X220322142Y-113745714D01*
X220250714Y-113602857D01*
X220179285Y-113317142D01*
X220179285Y-112960000D01*
X220250714Y-112674285D01*
X220322142Y-112531428D01*
X220393571Y-112460000D01*
X220536428Y-112388571D01*
X221607857Y-112531428D02*
X221679285Y-112460000D01*
X221822142Y-112388571D01*
X222179285Y-112388571D01*
X222322142Y-112460000D01*
X222393571Y-112531428D01*
X222465000Y-112674285D01*
X222465000Y-112817142D01*
X222393571Y-113031428D01*
X221536428Y-113888571D01*
X222465000Y-113888571D01*
X223393571Y-112388571D02*
X223536428Y-112388571D01*
X223679285Y-112460000D01*
X223750714Y-112531428D01*
X223822142Y-112674285D01*
X223893571Y-112960000D01*
X223893571Y-113317142D01*
X223822142Y-113602857D01*
X223750714Y-113745714D01*
X223679285Y-113817142D01*
X223536428Y-113888571D01*
X223393571Y-113888571D01*
X223250714Y-113817142D01*
X223179285Y-113745714D01*
X223107857Y-113602857D01*
X223036428Y-113317142D01*
X223036428Y-112960000D01*
X223107857Y-112674285D01*
X223179285Y-112531428D01*
X223250714Y-112460000D01*
X223393571Y-112388571D01*
X208822142Y-115652857D02*
X209036428Y-115724285D01*
X209107857Y-115795714D01*
X209179285Y-115938571D01*
X209179285Y-116152857D01*
X209107857Y-116295714D01*
X209036428Y-116367142D01*
X208893571Y-116438571D01*
X208322142Y-116438571D01*
X208322142Y-114938571D01*
X208822142Y-114938571D01*
X208965000Y-115010000D01*
X209036428Y-115081428D01*
X209107857Y-115224285D01*
X209107857Y-115367142D01*
X209036428Y-115510000D01*
X208965000Y-115581428D01*
X208822142Y-115652857D01*
X208322142Y-115652857D01*
X209822142Y-116295714D02*
X209893571Y-116367142D01*
X209822142Y-116438571D01*
X209750714Y-116367142D01*
X209822142Y-116295714D01*
X209822142Y-116438571D01*
X210322142Y-114938571D02*
X210822142Y-116438571D01*
X211322142Y-114938571D01*
X211822142Y-115652857D02*
X212322142Y-115652857D01*
X212536428Y-116438571D02*
X211822142Y-116438571D01*
X211822142Y-114938571D01*
X212536428Y-114938571D01*
X214036428Y-116438571D02*
X213536428Y-115724285D01*
X213179285Y-116438571D02*
X213179285Y-114938571D01*
X213750714Y-114938571D01*
X213893571Y-115010000D01*
X213965000Y-115081428D01*
X214036428Y-115224285D01*
X214036428Y-115438571D01*
X213965000Y-115581428D01*
X213893571Y-115652857D01*
X213750714Y-115724285D01*
X213179285Y-115724285D01*
X214679285Y-116438571D02*
X214679285Y-114938571D01*
X215536428Y-116438571D01*
X215536428Y-114938571D01*
X216536428Y-114938571D02*
X216822142Y-114938571D01*
X216965000Y-115010000D01*
X217107857Y-115152857D01*
X217179285Y-115438571D01*
X217179285Y-115938571D01*
X217107857Y-116224285D01*
X216965000Y-116367142D01*
X216822142Y-116438571D01*
X216536428Y-116438571D01*
X216393571Y-116367142D01*
X216250714Y-116224285D01*
X216179285Y-115938571D01*
X216179285Y-115438571D01*
X216250714Y-115152857D01*
X216393571Y-115010000D01*
X216536428Y-114938571D01*
X217822142Y-114938571D02*
X217822142Y-116152857D01*
X217893571Y-116295714D01*
X217965000Y-116367142D01*
X218107857Y-116438571D01*
X218393571Y-116438571D01*
X218536428Y-116367142D01*
X218607857Y-116295714D01*
X218679285Y-116152857D01*
X218679285Y-114938571D01*
X219250714Y-114938571D02*
X220250714Y-116438571D01*
X220250714Y-114938571D02*
X219250714Y-116438571D01*
X208822142Y-118202857D02*
X208322142Y-118202857D01*
X208322142Y-118988571D02*
X208322142Y-117488571D01*
X209036428Y-117488571D01*
X209607857Y-118988571D02*
X209607857Y-117988571D01*
X209607857Y-118274285D02*
X209679285Y-118131428D01*
X209750714Y-118060000D01*
X209893571Y-117988571D01*
X210036428Y-117988571D01*
X211107857Y-118917142D02*
X210965000Y-118988571D01*
X210679285Y-118988571D01*
X210536428Y-118917142D01*
X210465000Y-118774285D01*
X210465000Y-118202857D01*
X210536428Y-118060000D01*
X210679285Y-117988571D01*
X210965000Y-117988571D01*
X211107857Y-118060000D01*
X211179285Y-118202857D01*
X211179285Y-118345714D01*
X210465000Y-118488571D01*
X212465000Y-117988571D02*
X212465000Y-119488571D01*
X212465000Y-118917142D02*
X212322142Y-118988571D01*
X212036428Y-118988571D01*
X211893571Y-118917142D01*
X211822142Y-118845714D01*
X211750714Y-118702857D01*
X211750714Y-118274285D01*
X211822142Y-118131428D01*
X211893571Y-118060000D01*
X212036428Y-117988571D01*
X212322142Y-117988571D01*
X212465000Y-118060000D01*
X213179285Y-118845714D02*
X213250714Y-118917142D01*
X213179285Y-118988571D01*
X213107857Y-118917142D01*
X213179285Y-118845714D01*
X213179285Y-118988571D01*
X213179285Y-118060000D02*
X213250714Y-118131428D01*
X213179285Y-118202857D01*
X213107857Y-118131428D01*
X213179285Y-118060000D01*
X213179285Y-118202857D01*
X215036428Y-118988571D02*
X215036428Y-117488571D01*
X215393571Y-117488571D01*
X215607857Y-117560000D01*
X215750714Y-117702857D01*
X215822142Y-117845714D01*
X215893571Y-118131428D01*
X215893571Y-118345714D01*
X215822142Y-118631428D01*
X215750714Y-118774285D01*
X215607857Y-118917142D01*
X215393571Y-118988571D01*
X215036428Y-118988571D01*
X217393571Y-118845714D02*
X217322142Y-118917142D01*
X217107857Y-118988571D01*
X216965000Y-118988571D01*
X216750714Y-118917142D01*
X216607857Y-118774285D01*
X216536428Y-118631428D01*
X216465000Y-118345714D01*
X216465000Y-118131428D01*
X216536428Y-117845714D01*
X216607857Y-117702857D01*
X216750714Y-117560000D01*
X216965000Y-117488571D01*
X217107857Y-117488571D01*
X217322142Y-117560000D01*
X217393571Y-117631428D01*
X218965000Y-117988571D02*
X219536428Y-117988571D01*
X219179285Y-117488571D02*
X219179285Y-118774285D01*
X219250714Y-118917142D01*
X219393571Y-118988571D01*
X219536428Y-118988571D01*
X220250714Y-118988571D02*
X220107857Y-118917142D01*
X220036428Y-118845714D01*
X219965000Y-118702857D01*
X219965000Y-118274285D01*
X220036428Y-118131428D01*
X220107857Y-118060000D01*
X220250714Y-117988571D01*
X220465000Y-117988571D01*
X220607857Y-118060000D01*
X220679285Y-118131428D01*
X220750714Y-118274285D01*
X220750714Y-118702857D01*
X220679285Y-118845714D01*
X220607857Y-118917142D01*
X220465000Y-118988571D01*
X220250714Y-118988571D01*
X222465000Y-117631428D02*
X222536428Y-117560000D01*
X222679285Y-117488571D01*
X223036428Y-117488571D01*
X223179285Y-117560000D01*
X223250714Y-117631428D01*
X223322142Y-117774285D01*
X223322142Y-117917142D01*
X223250714Y-118131428D01*
X222393571Y-118988571D01*
X223322142Y-118988571D01*
X224607857Y-117488571D02*
X224322142Y-117488571D01*
X224179285Y-117560000D01*
X224107857Y-117631428D01*
X223965000Y-117845714D01*
X223893571Y-118131428D01*
X223893571Y-118702857D01*
X223965000Y-118845714D01*
X224036428Y-118917142D01*
X224179285Y-118988571D01*
X224465000Y-118988571D01*
X224607857Y-118917142D01*
X224679285Y-118845714D01*
X224750714Y-118702857D01*
X224750714Y-118345714D01*
X224679285Y-118202857D01*
X224607857Y-118131428D01*
X224465000Y-118060000D01*
X224179285Y-118060000D01*
X224036428Y-118131428D01*
X223965000Y-118202857D01*
X223893571Y-118345714D01*
X225393571Y-118845714D02*
X225465000Y-118917142D01*
X225393571Y-118988571D01*
X225322142Y-118917142D01*
X225393571Y-118845714D01*
X225393571Y-118988571D01*
X226822142Y-117488571D02*
X226107857Y-117488571D01*
X226036428Y-118202857D01*
X226107857Y-118131428D01*
X226250714Y-118060000D01*
X226607857Y-118060000D01*
X226750714Y-118131428D01*
X226822142Y-118202857D01*
X226893571Y-118345714D01*
X226893571Y-118702857D01*
X226822142Y-118845714D01*
X226750714Y-118917142D01*
X226607857Y-118988571D01*
X226250714Y-118988571D01*
X226107857Y-118917142D01*
X226036428Y-118845714D01*
X228322142Y-117560000D02*
X228179285Y-117488571D01*
X227965000Y-117488571D01*
X227750714Y-117560000D01*
X227607857Y-117702857D01*
X227536428Y-117845714D01*
X227465000Y-118131428D01*
X227465000Y-118345714D01*
X227536428Y-118631428D01*
X227607857Y-118774285D01*
X227750714Y-118917142D01*
X227965000Y-118988571D01*
X228107857Y-118988571D01*
X228322142Y-118917142D01*
X228393571Y-118845714D01*
X228393571Y-118345714D01*
X228107857Y-118345714D01*
X229036428Y-118988571D02*
X229036428Y-117488571D01*
X229036428Y-118202857D02*
X229893571Y-118202857D01*
X229893571Y-118988571D02*
X229893571Y-117488571D01*
X230465000Y-117988571D02*
X231250714Y-117988571D01*
X230465000Y-118988571D01*
X231250714Y-118988571D01*
X208107857Y-120038571D02*
X208965000Y-120038571D01*
X208536428Y-121538571D02*
X208536428Y-120038571D01*
X209465000Y-121538571D02*
X209465000Y-120538571D01*
X209465000Y-120824285D02*
X209536428Y-120681428D01*
X209607857Y-120610000D01*
X209750714Y-120538571D01*
X209893571Y-120538571D01*
X211036428Y-121538571D02*
X211036428Y-120752857D01*
X210965000Y-120610000D01*
X210822142Y-120538571D01*
X210536428Y-120538571D01*
X210393571Y-120610000D01*
X211036428Y-121467142D02*
X210893571Y-121538571D01*
X210536428Y-121538571D01*
X210393571Y-121467142D01*
X210322142Y-121324285D01*
X210322142Y-121181428D01*
X210393571Y-121038571D01*
X210536428Y-120967142D01*
X210893571Y-120967142D01*
X211036428Y-120895714D01*
X212393571Y-121467142D02*
X212250714Y-121538571D01*
X211965000Y-121538571D01*
X211822142Y-121467142D01*
X211750714Y-121395714D01*
X211679285Y-121252857D01*
X211679285Y-120824285D01*
X211750714Y-120681428D01*
X211822142Y-120610000D01*
X211965000Y-120538571D01*
X212250714Y-120538571D01*
X212393571Y-120610000D01*
X213607857Y-121467142D02*
X213465000Y-121538571D01*
X213179285Y-121538571D01*
X213036428Y-121467142D01*
X212965000Y-121324285D01*
X212965000Y-120752857D01*
X213036428Y-120610000D01*
X213179285Y-120538571D01*
X213465000Y-120538571D01*
X213607857Y-120610000D01*
X213679285Y-120752857D01*
X213679285Y-120895714D01*
X212965000Y-121038571D01*
X214322142Y-121395714D02*
X214393571Y-121467142D01*
X214322142Y-121538571D01*
X214250714Y-121467142D01*
X214322142Y-121395714D01*
X214322142Y-121538571D01*
X214322142Y-120610000D02*
X214393571Y-120681428D01*
X214322142Y-120752857D01*
X214250714Y-120681428D01*
X214322142Y-120610000D01*
X214322142Y-120752857D01*
X216465000Y-120038571D02*
X216607857Y-120038571D01*
X216750714Y-120110000D01*
X216822142Y-120181428D01*
X216893571Y-120324285D01*
X216965000Y-120610000D01*
X216965000Y-120967142D01*
X216893571Y-121252857D01*
X216822142Y-121395714D01*
X216750714Y-121467142D01*
X216607857Y-121538571D01*
X216465000Y-121538571D01*
X216322142Y-121467142D01*
X216250714Y-121395714D01*
X216179285Y-121252857D01*
X216107857Y-120967142D01*
X216107857Y-120610000D01*
X216179285Y-120324285D01*
X216250714Y-120181428D01*
X216322142Y-120110000D01*
X216465000Y-120038571D01*
X217607857Y-121395714D02*
X217679285Y-121467142D01*
X217607857Y-121538571D01*
X217536428Y-121467142D01*
X217607857Y-121395714D01*
X217607857Y-121538571D01*
X218179285Y-120038571D02*
X219107857Y-120038571D01*
X218607857Y-120610000D01*
X218822142Y-120610000D01*
X218965000Y-120681428D01*
X219036428Y-120752857D01*
X219107857Y-120895714D01*
X219107857Y-121252857D01*
X219036428Y-121395714D01*
X218965000Y-121467142D01*
X218822142Y-121538571D01*
X218393571Y-121538571D01*
X218250714Y-121467142D01*
X218179285Y-121395714D01*
X220393571Y-120538571D02*
X220393571Y-121538571D01*
X220036428Y-119967142D02*
X219679285Y-121038571D01*
X220607857Y-121038571D01*
X221179285Y-121538571D02*
X221179285Y-120538571D01*
X221179285Y-120681428D02*
X221250714Y-120610000D01*
X221393571Y-120538571D01*
X221607857Y-120538571D01*
X221750714Y-120610000D01*
X221822142Y-120752857D01*
X221822142Y-121538571D01*
X221822142Y-120752857D02*
X221893571Y-120610000D01*
X222036428Y-120538571D01*
X222250714Y-120538571D01*
X222393571Y-120610000D01*
X222465000Y-120752857D01*
X222465000Y-121538571D01*
X223179285Y-121538571D02*
X223179285Y-120538571D01*
X223179285Y-120681428D02*
X223250714Y-120610000D01*
X223393571Y-120538571D01*
X223607857Y-120538571D01*
X223750714Y-120610000D01*
X223822142Y-120752857D01*
X223822142Y-121538571D01*
X223822142Y-120752857D02*
X223893571Y-120610000D01*
X224036428Y-120538571D01*
X224250714Y-120538571D01*
X224393571Y-120610000D01*
X224465000Y-120752857D01*
X224465000Y-121538571D01*
X226750714Y-122110000D02*
X226679285Y-122038571D01*
X226536428Y-121824285D01*
X226465000Y-121681428D01*
X226393571Y-121467142D01*
X226322142Y-121110000D01*
X226322142Y-120824285D01*
X226393571Y-120467142D01*
X226465000Y-120252857D01*
X226536428Y-120110000D01*
X226679285Y-119895714D01*
X226750714Y-119824285D01*
X228107857Y-121538571D02*
X227250714Y-121538571D01*
X227679285Y-121538571D02*
X227679285Y-120038571D01*
X227536428Y-120252857D01*
X227393571Y-120395714D01*
X227250714Y-120467142D01*
X228607857Y-120038571D02*
X229536428Y-120038571D01*
X229036428Y-120610000D01*
X229250714Y-120610000D01*
X229393571Y-120681428D01*
X229465000Y-120752857D01*
X229536428Y-120895714D01*
X229536428Y-121252857D01*
X229465000Y-121395714D01*
X229393571Y-121467142D01*
X229250714Y-121538571D01*
X228822142Y-121538571D01*
X228679285Y-121467142D01*
X228607857Y-121395714D01*
X230179285Y-121395714D02*
X230250714Y-121467142D01*
X230179285Y-121538571D01*
X230107857Y-121467142D01*
X230179285Y-121395714D01*
X230179285Y-121538571D01*
X231536428Y-120538571D02*
X231536428Y-121538571D01*
X231179285Y-119967142D02*
X230822142Y-121038571D01*
X231750714Y-121038571D01*
X232322142Y-121538571D02*
X232322142Y-120538571D01*
X232322142Y-120681428D02*
X232393571Y-120610000D01*
X232536428Y-120538571D01*
X232750714Y-120538571D01*
X232893571Y-120610000D01*
X232965000Y-120752857D01*
X232965000Y-121538571D01*
X232965000Y-120752857D02*
X233036428Y-120610000D01*
X233179285Y-120538571D01*
X233393571Y-120538571D01*
X233536428Y-120610000D01*
X233607857Y-120752857D01*
X233607857Y-121538571D01*
X234322142Y-121538571D02*
X234322142Y-120538571D01*
X234322142Y-120038571D02*
X234250714Y-120110000D01*
X234322142Y-120181428D01*
X234393571Y-120110000D01*
X234322142Y-120038571D01*
X234322142Y-120181428D01*
X235250714Y-121538571D02*
X235107857Y-121467142D01*
X235036428Y-121324285D01*
X235036428Y-120038571D01*
X235679285Y-122110000D02*
X235750714Y-122038571D01*
X235893571Y-121824285D01*
X235965000Y-121681428D01*
X236036428Y-121467142D01*
X236107857Y-121110000D01*
X236107857Y-120824285D01*
X236036428Y-120467142D01*
X235965000Y-120252857D01*
X235893571Y-120110000D01*
X235750714Y-119895714D01*
X235679285Y-119824285D01*
X208107857Y-122588571D02*
X208965000Y-122588571D01*
X208536428Y-124088571D02*
X208536428Y-122588571D01*
X209465000Y-124088571D02*
X209465000Y-123088571D01*
X209465000Y-123374285D02*
X209536428Y-123231428D01*
X209607857Y-123160000D01*
X209750714Y-123088571D01*
X209893571Y-123088571D01*
X211036428Y-124088571D02*
X211036428Y-123302857D01*
X210965000Y-123160000D01*
X210822142Y-123088571D01*
X210536428Y-123088571D01*
X210393571Y-123160000D01*
X211036428Y-124017142D02*
X210893571Y-124088571D01*
X210536428Y-124088571D01*
X210393571Y-124017142D01*
X210322142Y-123874285D01*
X210322142Y-123731428D01*
X210393571Y-123588571D01*
X210536428Y-123517142D01*
X210893571Y-123517142D01*
X211036428Y-123445714D01*
X212393571Y-124017142D02*
X212250714Y-124088571D01*
X211965000Y-124088571D01*
X211822142Y-124017142D01*
X211750714Y-123945714D01*
X211679285Y-123802857D01*
X211679285Y-123374285D01*
X211750714Y-123231428D01*
X211822142Y-123160000D01*
X211965000Y-123088571D01*
X212250714Y-123088571D01*
X212393571Y-123160000D01*
X213607857Y-124017142D02*
X213465000Y-124088571D01*
X213179285Y-124088571D01*
X213036428Y-124017142D01*
X212965000Y-123874285D01*
X212965000Y-123302857D01*
X213036428Y-123160000D01*
X213179285Y-123088571D01*
X213465000Y-123088571D01*
X213607857Y-123160000D01*
X213679285Y-123302857D01*
X213679285Y-123445714D01*
X212965000Y-123588571D01*
X216322142Y-123945714D02*
X216250714Y-124017142D01*
X216036428Y-124088571D01*
X215893571Y-124088571D01*
X215679285Y-124017142D01*
X215536428Y-123874285D01*
X215465000Y-123731428D01*
X215393571Y-123445714D01*
X215393571Y-123231428D01*
X215465000Y-122945714D01*
X215536428Y-122802857D01*
X215679285Y-122660000D01*
X215893571Y-122588571D01*
X216036428Y-122588571D01*
X216250714Y-122660000D01*
X216322142Y-122731428D01*
X217179285Y-124088571D02*
X217036428Y-124017142D01*
X216965000Y-123874285D01*
X216965000Y-122588571D01*
X218322142Y-124017142D02*
X218179285Y-124088571D01*
X217893571Y-124088571D01*
X217750714Y-124017142D01*
X217679285Y-123874285D01*
X217679285Y-123302857D01*
X217750714Y-123160000D01*
X217893571Y-123088571D01*
X218179285Y-123088571D01*
X218322142Y-123160000D01*
X218393571Y-123302857D01*
X218393571Y-123445714D01*
X217679285Y-123588571D01*
X219679285Y-124088571D02*
X219679285Y-123302857D01*
X219607857Y-123160000D01*
X219465000Y-123088571D01*
X219179285Y-123088571D01*
X219036428Y-123160000D01*
X219679285Y-124017142D02*
X219536428Y-124088571D01*
X219179285Y-124088571D01*
X219036428Y-124017142D01*
X218965000Y-123874285D01*
X218965000Y-123731428D01*
X219036428Y-123588571D01*
X219179285Y-123517142D01*
X219536428Y-123517142D01*
X219679285Y-123445714D01*
X220393571Y-124088571D02*
X220393571Y-123088571D01*
X220393571Y-123374285D02*
X220465000Y-123231428D01*
X220536428Y-123160000D01*
X220679285Y-123088571D01*
X220822142Y-123088571D01*
X221965000Y-124088571D02*
X221965000Y-123302857D01*
X221893571Y-123160000D01*
X221750714Y-123088571D01*
X221465000Y-123088571D01*
X221322142Y-123160000D01*
X221965000Y-124017142D02*
X221822142Y-124088571D01*
X221465000Y-124088571D01*
X221322142Y-124017142D01*
X221250714Y-123874285D01*
X221250714Y-123731428D01*
X221322142Y-123588571D01*
X221465000Y-123517142D01*
X221822142Y-123517142D01*
X221965000Y-123445714D01*
X222679285Y-123088571D02*
X222679285Y-124088571D01*
X222679285Y-123231428D02*
X222750714Y-123160000D01*
X222893571Y-123088571D01*
X223107857Y-123088571D01*
X223250714Y-123160000D01*
X223322142Y-123302857D01*
X223322142Y-124088571D01*
X224679285Y-124017142D02*
X224536428Y-124088571D01*
X224250714Y-124088571D01*
X224107857Y-124017142D01*
X224036428Y-123945714D01*
X223965000Y-123802857D01*
X223965000Y-123374285D01*
X224036428Y-123231428D01*
X224107857Y-123160000D01*
X224250714Y-123088571D01*
X224536428Y-123088571D01*
X224679285Y-123160000D01*
X225893571Y-124017142D02*
X225750714Y-124088571D01*
X225465000Y-124088571D01*
X225322142Y-124017142D01*
X225250714Y-123874285D01*
X225250714Y-123302857D01*
X225322142Y-123160000D01*
X225465000Y-123088571D01*
X225750714Y-123088571D01*
X225893571Y-123160000D01*
X225965000Y-123302857D01*
X225965000Y-123445714D01*
X225250714Y-123588571D01*
X226607857Y-123945714D02*
X226679285Y-124017142D01*
X226607857Y-124088571D01*
X226536428Y-124017142D01*
X226607857Y-123945714D01*
X226607857Y-124088571D01*
X226607857Y-123160000D02*
X226679285Y-123231428D01*
X226607857Y-123302857D01*
X226536428Y-123231428D01*
X226607857Y-123160000D01*
X226607857Y-123302857D01*
X228750714Y-122588571D02*
X228893571Y-122588571D01*
X229036428Y-122660000D01*
X229107857Y-122731428D01*
X229179285Y-122874285D01*
X229250714Y-123160000D01*
X229250714Y-123517142D01*
X229179285Y-123802857D01*
X229107857Y-123945714D01*
X229036428Y-124017142D01*
X228893571Y-124088571D01*
X228750714Y-124088571D01*
X228607857Y-124017142D01*
X228536428Y-123945714D01*
X228465000Y-123802857D01*
X228393571Y-123517142D01*
X228393571Y-123160000D01*
X228465000Y-122874285D01*
X228536428Y-122731428D01*
X228607857Y-122660000D01*
X228750714Y-122588571D01*
X229893571Y-123945714D02*
X229965000Y-124017142D01*
X229893571Y-124088571D01*
X229822142Y-124017142D01*
X229893571Y-123945714D01*
X229893571Y-124088571D01*
X231393571Y-124088571D02*
X230536428Y-124088571D01*
X230965000Y-124088571D02*
X230965000Y-122588571D01*
X230822142Y-122802857D01*
X230679285Y-122945714D01*
X230536428Y-123017142D01*
X232750714Y-122588571D02*
X232036428Y-122588571D01*
X231965000Y-123302857D01*
X232036428Y-123231428D01*
X232179285Y-123160000D01*
X232536428Y-123160000D01*
X232679285Y-123231428D01*
X232750714Y-123302857D01*
X232822142Y-123445714D01*
X232822142Y-123802857D01*
X232750714Y-123945714D01*
X232679285Y-124017142D01*
X232536428Y-124088571D01*
X232179285Y-124088571D01*
X232036428Y-124017142D01*
X231965000Y-123945714D01*
X233393571Y-122731428D02*
X233465000Y-122660000D01*
X233607857Y-122588571D01*
X233965000Y-122588571D01*
X234107857Y-122660000D01*
X234179285Y-122731428D01*
X234250714Y-122874285D01*
X234250714Y-123017142D01*
X234179285Y-123231428D01*
X233322142Y-124088571D01*
X234250714Y-124088571D01*
X235536428Y-123088571D02*
X235536428Y-124088571D01*
X235179285Y-122517142D02*
X234822142Y-123588571D01*
X235750714Y-123588571D01*
X236322142Y-124088571D02*
X236322142Y-123088571D01*
X236322142Y-123231428D02*
X236393571Y-123160000D01*
X236536428Y-123088571D01*
X236750714Y-123088571D01*
X236893571Y-123160000D01*
X236965000Y-123302857D01*
X236965000Y-124088571D01*
X236965000Y-123302857D02*
X237036428Y-123160000D01*
X237179285Y-123088571D01*
X237393571Y-123088571D01*
X237536428Y-123160000D01*
X237607857Y-123302857D01*
X237607857Y-124088571D01*
X238322142Y-124088571D02*
X238322142Y-123088571D01*
X238322142Y-123231428D02*
X238393571Y-123160000D01*
X238536428Y-123088571D01*
X238750714Y-123088571D01*
X238893571Y-123160000D01*
X238965000Y-123302857D01*
X238965000Y-124088571D01*
X238965000Y-123302857D02*
X239036428Y-123160000D01*
X239179285Y-123088571D01*
X239393571Y-123088571D01*
X239536428Y-123160000D01*
X239607857Y-123302857D01*
X239607857Y-124088571D01*
X241893571Y-124660000D02*
X241822142Y-124588571D01*
X241679285Y-124374285D01*
X241607857Y-124231428D01*
X241536428Y-124017142D01*
X241465000Y-123660000D01*
X241465000Y-123374285D01*
X241536428Y-123017142D01*
X241607857Y-122802857D01*
X241679285Y-122660000D01*
X241822142Y-122445714D01*
X241893571Y-122374285D01*
X243107857Y-122588571D02*
X242822142Y-122588571D01*
X242679285Y-122660000D01*
X242607857Y-122731428D01*
X242465000Y-122945714D01*
X242393571Y-123231428D01*
X242393571Y-123802857D01*
X242465000Y-123945714D01*
X242536428Y-124017142D01*
X242679285Y-124088571D01*
X242965000Y-124088571D01*
X243107857Y-124017142D01*
X243179285Y-123945714D01*
X243250714Y-123802857D01*
X243250714Y-123445714D01*
X243179285Y-123302857D01*
X243107857Y-123231428D01*
X242965000Y-123160000D01*
X242679285Y-123160000D01*
X242536428Y-123231428D01*
X242465000Y-123302857D01*
X242393571Y-123445714D01*
X243893571Y-124088571D02*
X243893571Y-123088571D01*
X243893571Y-123231428D02*
X243965000Y-123160000D01*
X244107857Y-123088571D01*
X244322142Y-123088571D01*
X244465000Y-123160000D01*
X244536428Y-123302857D01*
X244536428Y-124088571D01*
X244536428Y-123302857D02*
X244607857Y-123160000D01*
X244750714Y-123088571D01*
X244965000Y-123088571D01*
X245107857Y-123160000D01*
X245179285Y-123302857D01*
X245179285Y-124088571D01*
X245893571Y-124088571D02*
X245893571Y-123088571D01*
X245893571Y-122588571D02*
X245822142Y-122660000D01*
X245893571Y-122731428D01*
X245965000Y-122660000D01*
X245893571Y-122588571D01*
X245893571Y-122731428D01*
X246822142Y-124088571D02*
X246679285Y-124017142D01*
X246607857Y-123874285D01*
X246607857Y-122588571D01*
X247250714Y-124660000D02*
X247322142Y-124588571D01*
X247465000Y-124374285D01*
X247536428Y-124231428D01*
X247607857Y-124017142D01*
X247679285Y-123660000D01*
X247679285Y-123374285D01*
X247607857Y-123017142D01*
X247536428Y-122802857D01*
X247465000Y-122660000D01*
X247322142Y-122445714D01*
X247250714Y-122374285D01*
X208107857Y-125138571D02*
X208607857Y-126638571D01*
X209107857Y-125138571D01*
X209607857Y-126638571D02*
X209607857Y-125638571D01*
X209607857Y-125138571D02*
X209536428Y-125210000D01*
X209607857Y-125281428D01*
X209679285Y-125210000D01*
X209607857Y-125138571D01*
X209607857Y-125281428D01*
X210965000Y-126638571D02*
X210965000Y-125852857D01*
X210893571Y-125710000D01*
X210750714Y-125638571D01*
X210465000Y-125638571D01*
X210322142Y-125710000D01*
X210965000Y-126567142D02*
X210822142Y-126638571D01*
X210465000Y-126638571D01*
X210322142Y-126567142D01*
X210250714Y-126424285D01*
X210250714Y-126281428D01*
X210322142Y-126138571D01*
X210465000Y-126067142D01*
X210822142Y-126067142D01*
X210965000Y-125995714D01*
X212822142Y-126638571D02*
X212822142Y-125138571D01*
X213179285Y-125138571D01*
X213393571Y-125210000D01*
X213536428Y-125352857D01*
X213607857Y-125495714D01*
X213679285Y-125781428D01*
X213679285Y-125995714D01*
X213607857Y-126281428D01*
X213536428Y-126424285D01*
X213393571Y-126567142D01*
X213179285Y-126638571D01*
X212822142Y-126638571D01*
X214322142Y-126638571D02*
X214322142Y-125638571D01*
X214322142Y-125924285D02*
X214393571Y-125781428D01*
X214465000Y-125710000D01*
X214607857Y-125638571D01*
X214750714Y-125638571D01*
X215250714Y-126638571D02*
X215250714Y-125638571D01*
X215250714Y-125138571D02*
X215179285Y-125210000D01*
X215250714Y-125281428D01*
X215322142Y-125210000D01*
X215250714Y-125138571D01*
X215250714Y-125281428D01*
X216179285Y-126638571D02*
X216036428Y-126567142D01*
X215965000Y-126424285D01*
X215965000Y-125138571D01*
X216965000Y-126638571D02*
X216822142Y-126567142D01*
X216750714Y-126424285D01*
X216750714Y-125138571D01*
X217536428Y-126495714D02*
X217607857Y-126567142D01*
X217536428Y-126638571D01*
X217465000Y-126567142D01*
X217536428Y-126495714D01*
X217536428Y-126638571D01*
X217536428Y-125710000D02*
X217607857Y-125781428D01*
X217536428Y-125852857D01*
X217465000Y-125781428D01*
X217536428Y-125710000D01*
X217536428Y-125852857D01*
X219679285Y-125138571D02*
X219822142Y-125138571D01*
X219965000Y-125210000D01*
X220036428Y-125281428D01*
X220107857Y-125424285D01*
X220179285Y-125710000D01*
X220179285Y-126067142D01*
X220107857Y-126352857D01*
X220036428Y-126495714D01*
X219965000Y-126567142D01*
X219822142Y-126638571D01*
X219679285Y-126638571D01*
X219536428Y-126567142D01*
X219465000Y-126495714D01*
X219393571Y-126352857D01*
X219322142Y-126067142D01*
X219322142Y-125710000D01*
X219393571Y-125424285D01*
X219465000Y-125281428D01*
X219536428Y-125210000D01*
X219679285Y-125138571D01*
X220822142Y-126495714D02*
X220893571Y-126567142D01*
X220822142Y-126638571D01*
X220750714Y-126567142D01*
X220822142Y-126495714D01*
X220822142Y-126638571D01*
X222179285Y-125638571D02*
X222179285Y-126638571D01*
X221822142Y-125067142D02*
X221465000Y-126138571D01*
X222393571Y-126138571D01*
X223750714Y-126638571D02*
X222893571Y-126638571D01*
X223322142Y-126638571D02*
X223322142Y-125138571D01*
X223179285Y-125352857D01*
X223036428Y-125495714D01*
X222893571Y-125567142D01*
X224393571Y-126638571D02*
X224393571Y-125638571D01*
X224393571Y-125781428D02*
X224465000Y-125710000D01*
X224607857Y-125638571D01*
X224822142Y-125638571D01*
X224965000Y-125710000D01*
X225036428Y-125852857D01*
X225036428Y-126638571D01*
X225036428Y-125852857D02*
X225107857Y-125710000D01*
X225250714Y-125638571D01*
X225465000Y-125638571D01*
X225607857Y-125710000D01*
X225679285Y-125852857D01*
X225679285Y-126638571D01*
X226393571Y-126638571D02*
X226393571Y-125638571D01*
X226393571Y-125781428D02*
X226465000Y-125710000D01*
X226607857Y-125638571D01*
X226822142Y-125638571D01*
X226965000Y-125710000D01*
X227036428Y-125852857D01*
X227036428Y-126638571D01*
X227036428Y-125852857D02*
X227107857Y-125710000D01*
X227250714Y-125638571D01*
X227465000Y-125638571D01*
X227607857Y-125710000D01*
X227679285Y-125852857D01*
X227679285Y-126638571D01*
X229965000Y-127210000D02*
X229893571Y-127138571D01*
X229750714Y-126924285D01*
X229679285Y-126781428D01*
X229607857Y-126567142D01*
X229536428Y-126210000D01*
X229536428Y-125924285D01*
X229607857Y-125567142D01*
X229679285Y-125352857D01*
X229750714Y-125210000D01*
X229893571Y-124995714D01*
X229965000Y-124924285D01*
X231322142Y-126638571D02*
X230465000Y-126638571D01*
X230893571Y-126638571D02*
X230893571Y-125138571D01*
X230750714Y-125352857D01*
X230607857Y-125495714D01*
X230465000Y-125567142D01*
X232607857Y-125138571D02*
X232322142Y-125138571D01*
X232179285Y-125210000D01*
X232107857Y-125281428D01*
X231965000Y-125495714D01*
X231893571Y-125781428D01*
X231893571Y-126352857D01*
X231965000Y-126495714D01*
X232036428Y-126567142D01*
X232179285Y-126638571D01*
X232465000Y-126638571D01*
X232607857Y-126567142D01*
X232679285Y-126495714D01*
X232750714Y-126352857D01*
X232750714Y-125995714D01*
X232679285Y-125852857D01*
X232607857Y-125781428D01*
X232465000Y-125710000D01*
X232179285Y-125710000D01*
X232036428Y-125781428D01*
X231965000Y-125852857D01*
X231893571Y-125995714D01*
X233393571Y-126638571D02*
X233393571Y-125638571D01*
X233393571Y-125781428D02*
X233465000Y-125710000D01*
X233607857Y-125638571D01*
X233822142Y-125638571D01*
X233965000Y-125710000D01*
X234036428Y-125852857D01*
X234036428Y-126638571D01*
X234036428Y-125852857D02*
X234107857Y-125710000D01*
X234250714Y-125638571D01*
X234465000Y-125638571D01*
X234607857Y-125710000D01*
X234679285Y-125852857D01*
X234679285Y-126638571D01*
X235393571Y-126638571D02*
X235393571Y-125638571D01*
X235393571Y-125138571D02*
X235322142Y-125210000D01*
X235393571Y-125281428D01*
X235465000Y-125210000D01*
X235393571Y-125138571D01*
X235393571Y-125281428D01*
X236322142Y-126638571D02*
X236179285Y-126567142D01*
X236107857Y-126424285D01*
X236107857Y-125138571D01*
X236750714Y-127210000D02*
X236822142Y-127138571D01*
X236965000Y-126924285D01*
X237036428Y-126781428D01*
X237107857Y-126567142D01*
X237179285Y-126210000D01*
X237179285Y-125924285D01*
X237107857Y-125567142D01*
X237036428Y-125352857D01*
X236965000Y-125210000D01*
X236822142Y-124995714D01*
X236750714Y-124924285D01*
X208107857Y-127688571D02*
X208607857Y-129188571D01*
X209107857Y-127688571D01*
X209607857Y-129188571D02*
X209607857Y-128188571D01*
X209607857Y-127688571D02*
X209536428Y-127760000D01*
X209607857Y-127831428D01*
X209679285Y-127760000D01*
X209607857Y-127688571D01*
X209607857Y-127831428D01*
X210965000Y-129188571D02*
X210965000Y-128402857D01*
X210893571Y-128260000D01*
X210750714Y-128188571D01*
X210465000Y-128188571D01*
X210322142Y-128260000D01*
X210965000Y-129117142D02*
X210822142Y-129188571D01*
X210465000Y-129188571D01*
X210322142Y-129117142D01*
X210250714Y-128974285D01*
X210250714Y-128831428D01*
X210322142Y-128688571D01*
X210465000Y-128617142D01*
X210822142Y-128617142D01*
X210965000Y-128545714D01*
X213607857Y-127760000D02*
X213465000Y-127688571D01*
X213250714Y-127688571D01*
X213036428Y-127760000D01*
X212893571Y-127902857D01*
X212822142Y-128045714D01*
X212750714Y-128331428D01*
X212750714Y-128545714D01*
X212822142Y-128831428D01*
X212893571Y-128974285D01*
X213036428Y-129117142D01*
X213250714Y-129188571D01*
X213393571Y-129188571D01*
X213607857Y-129117142D01*
X213679285Y-129045714D01*
X213679285Y-128545714D01*
X213393571Y-128545714D01*
X214965000Y-129188571D02*
X214965000Y-128402857D01*
X214893571Y-128260000D01*
X214750714Y-128188571D01*
X214465000Y-128188571D01*
X214322142Y-128260000D01*
X214965000Y-129117142D02*
X214822142Y-129188571D01*
X214465000Y-129188571D01*
X214322142Y-129117142D01*
X214250714Y-128974285D01*
X214250714Y-128831428D01*
X214322142Y-128688571D01*
X214465000Y-128617142D01*
X214822142Y-128617142D01*
X214965000Y-128545714D01*
X215679285Y-128188571D02*
X215679285Y-129688571D01*
X215679285Y-128260000D02*
X215822142Y-128188571D01*
X216107857Y-128188571D01*
X216250714Y-128260000D01*
X216322142Y-128331428D01*
X216393571Y-128474285D01*
X216393571Y-128902857D01*
X216322142Y-129045714D01*
X216250714Y-129117142D01*
X216107857Y-129188571D01*
X215822142Y-129188571D01*
X215679285Y-129117142D01*
X217036428Y-129045714D02*
X217107857Y-129117142D01*
X217036428Y-129188571D01*
X216965000Y-129117142D01*
X217036428Y-129045714D01*
X217036428Y-129188571D01*
X217036428Y-128260000D02*
X217107857Y-128331428D01*
X217036428Y-128402857D01*
X216965000Y-128331428D01*
X217036428Y-128260000D01*
X217036428Y-128402857D01*
X219679285Y-129188571D02*
X218822142Y-129188571D01*
X219250714Y-129188571D02*
X219250714Y-127688571D01*
X219107857Y-127902857D01*
X218965000Y-128045714D01*
X218822142Y-128117142D01*
X220322142Y-129045714D02*
X220393571Y-129117142D01*
X220322142Y-129188571D01*
X220250714Y-129117142D01*
X220322142Y-129045714D01*
X220322142Y-129188571D01*
X220965000Y-127831428D02*
X221036428Y-127760000D01*
X221179285Y-127688571D01*
X221536428Y-127688571D01*
X221679285Y-127760000D01*
X221750714Y-127831428D01*
X221822142Y-127974285D01*
X221822142Y-128117142D01*
X221750714Y-128331428D01*
X220893571Y-129188571D01*
X221822142Y-129188571D01*
X222322142Y-127688571D02*
X223322142Y-127688571D01*
X222679285Y-129188571D01*
X223893571Y-129188571D02*
X223893571Y-128188571D01*
X223893571Y-128331428D02*
X223965000Y-128260000D01*
X224107857Y-128188571D01*
X224322142Y-128188571D01*
X224465000Y-128260000D01*
X224536428Y-128402857D01*
X224536428Y-129188571D01*
X224536428Y-128402857D02*
X224607857Y-128260000D01*
X224750714Y-128188571D01*
X224965000Y-128188571D01*
X225107857Y-128260000D01*
X225179285Y-128402857D01*
X225179285Y-129188571D01*
X225893571Y-129188571D02*
X225893571Y-128188571D01*
X225893571Y-128331428D02*
X225965000Y-128260000D01*
X226107857Y-128188571D01*
X226322142Y-128188571D01*
X226465000Y-128260000D01*
X226536428Y-128402857D01*
X226536428Y-129188571D01*
X226536428Y-128402857D02*
X226607857Y-128260000D01*
X226750714Y-128188571D01*
X226965000Y-128188571D01*
X227107857Y-128260000D01*
X227179285Y-128402857D01*
X227179285Y-129188571D01*
X229465000Y-129760000D02*
X229393571Y-129688571D01*
X229250714Y-129474285D01*
X229179285Y-129331428D01*
X229107857Y-129117142D01*
X229036428Y-128760000D01*
X229036428Y-128474285D01*
X229107857Y-128117142D01*
X229179285Y-127902857D01*
X229250714Y-127760000D01*
X229393571Y-127545714D01*
X229465000Y-127474285D01*
X230750714Y-127688571D02*
X230036428Y-127688571D01*
X229965000Y-128402857D01*
X230036428Y-128331428D01*
X230179285Y-128260000D01*
X230536428Y-128260000D01*
X230679285Y-128331428D01*
X230750714Y-128402857D01*
X230822142Y-128545714D01*
X230822142Y-128902857D01*
X230750714Y-129045714D01*
X230679285Y-129117142D01*
X230536428Y-129188571D01*
X230179285Y-129188571D01*
X230036428Y-129117142D01*
X229965000Y-129045714D01*
X231750714Y-127688571D02*
X231893571Y-127688571D01*
X232036428Y-127760000D01*
X232107857Y-127831428D01*
X232179285Y-127974285D01*
X232250714Y-128260000D01*
X232250714Y-128617142D01*
X232179285Y-128902857D01*
X232107857Y-129045714D01*
X232036428Y-129117142D01*
X231893571Y-129188571D01*
X231750714Y-129188571D01*
X231607857Y-129117142D01*
X231536428Y-129045714D01*
X231465000Y-128902857D01*
X231393571Y-128617142D01*
X231393571Y-128260000D01*
X231465000Y-127974285D01*
X231536428Y-127831428D01*
X231607857Y-127760000D01*
X231750714Y-127688571D01*
X232893571Y-129188571D02*
X232893571Y-128188571D01*
X232893571Y-128331428D02*
X232965000Y-128260000D01*
X233107857Y-128188571D01*
X233322142Y-128188571D01*
X233465000Y-128260000D01*
X233536428Y-128402857D01*
X233536428Y-129188571D01*
X233536428Y-128402857D02*
X233607857Y-128260000D01*
X233750714Y-128188571D01*
X233965000Y-128188571D01*
X234107857Y-128260000D01*
X234179285Y-128402857D01*
X234179285Y-129188571D01*
X234893571Y-129188571D02*
X234893571Y-128188571D01*
X234893571Y-127688571D02*
X234822142Y-127760000D01*
X234893571Y-127831428D01*
X234965000Y-127760000D01*
X234893571Y-127688571D01*
X234893571Y-127831428D01*
X235822142Y-129188571D02*
X235679285Y-129117142D01*
X235607857Y-128974285D01*
X235607857Y-127688571D01*
X236250714Y-129760000D02*
X236322142Y-129688571D01*
X236465000Y-129474285D01*
X236536428Y-129331428D01*
X236607857Y-129117142D01*
X236679285Y-128760000D01*
X236679285Y-128474285D01*
X236607857Y-128117142D01*
X236536428Y-127902857D01*
X236465000Y-127760000D01*
X236322142Y-127545714D01*
X236250714Y-127474285D01*
X191964285Y-162357142D02*
X192178571Y-162428571D01*
X192535714Y-162428571D01*
X192678571Y-162357142D01*
X192750000Y-162285714D01*
X192821428Y-162142857D01*
X192821428Y-162000000D01*
X192750000Y-161857142D01*
X192678571Y-161785714D01*
X192535714Y-161714285D01*
X192250000Y-161642857D01*
X192107142Y-161571428D01*
X192035714Y-161500000D01*
X191964285Y-161357142D01*
X191964285Y-161214285D01*
X192035714Y-161071428D01*
X192107142Y-161000000D01*
X192250000Y-160928571D01*
X192607142Y-160928571D01*
X192821428Y-161000000D01*
X193464285Y-162428571D02*
X193464285Y-160928571D01*
X194107142Y-162428571D02*
X194107142Y-161642857D01*
X194035714Y-161500000D01*
X193892857Y-161428571D01*
X193678571Y-161428571D01*
X193535714Y-161500000D01*
X193464285Y-161571428D01*
X195464285Y-161428571D02*
X195464285Y-162428571D01*
X194821428Y-161428571D02*
X194821428Y-162214285D01*
X194892857Y-162357142D01*
X195035714Y-162428571D01*
X195250000Y-162428571D01*
X195392857Y-162357142D01*
X195464285Y-162285714D01*
X196178571Y-161428571D02*
X196178571Y-162428571D01*
X196178571Y-161571428D02*
X196250000Y-161500000D01*
X196392857Y-161428571D01*
X196607142Y-161428571D01*
X196750000Y-161500000D01*
X196821428Y-161642857D01*
X196821428Y-162428571D01*
X197321428Y-161428571D02*
X197892857Y-161428571D01*
X197535714Y-160928571D02*
X197535714Y-162214285D01*
X197607142Y-162357142D01*
X197750000Y-162428571D01*
X197892857Y-162428571D01*
X200035714Y-161642857D02*
X199535714Y-161642857D01*
X199535714Y-162428571D02*
X199535714Y-160928571D01*
X200250000Y-160928571D01*
X200821428Y-162428571D02*
X200821428Y-161428571D01*
X200821428Y-160928571D02*
X200750000Y-161000000D01*
X200821428Y-161071428D01*
X200892857Y-161000000D01*
X200821428Y-160928571D01*
X200821428Y-161071428D01*
X201392857Y-162428571D02*
X202178571Y-161428571D01*
X201392857Y-161428571D02*
X202178571Y-162428571D01*
X202535714Y-161428571D02*
X203107142Y-161428571D01*
X202750000Y-160928571D02*
X202750000Y-162214285D01*
X202821428Y-162357142D01*
X202964285Y-162428571D01*
X203107142Y-162428571D01*
X204250000Y-161428571D02*
X204250000Y-162428571D01*
X203607142Y-161428571D02*
X203607142Y-162214285D01*
X203678571Y-162357142D01*
X203821428Y-162428571D01*
X204035714Y-162428571D01*
X204178571Y-162357142D01*
X204250000Y-162285714D01*
X204964285Y-162428571D02*
X204964285Y-161428571D01*
X204964285Y-161714285D02*
X205035714Y-161571428D01*
X205107142Y-161500000D01*
X205250000Y-161428571D01*
X205392857Y-161428571D01*
X206464285Y-162357142D02*
X206321428Y-162428571D01*
X206035714Y-162428571D01*
X205892857Y-162357142D01*
X205821428Y-162214285D01*
X205821428Y-161642857D01*
X205892857Y-161500000D01*
X206035714Y-161428571D01*
X206321428Y-161428571D01*
X206464285Y-161500000D01*
X206535714Y-161642857D01*
X206535714Y-161785714D01*
X205821428Y-161928571D01*
X192214285Y-146107142D02*
X192428571Y-146178571D01*
X192785714Y-146178571D01*
X192928571Y-146107142D01*
X193000000Y-146035714D01*
X193071428Y-145892857D01*
X193071428Y-145750000D01*
X193000000Y-145607142D01*
X192928571Y-145535714D01*
X192785714Y-145464285D01*
X192500000Y-145392857D01*
X192357142Y-145321428D01*
X192285714Y-145250000D01*
X192214285Y-145107142D01*
X192214285Y-144964285D01*
X192285714Y-144821428D01*
X192357142Y-144750000D01*
X192500000Y-144678571D01*
X192857142Y-144678571D01*
X193071428Y-144750000D01*
X194285714Y-146107142D02*
X194142857Y-146178571D01*
X193857142Y-146178571D01*
X193714285Y-146107142D01*
X193642857Y-145964285D01*
X193642857Y-145392857D01*
X193714285Y-145250000D01*
X193857142Y-145178571D01*
X194142857Y-145178571D01*
X194285714Y-145250000D01*
X194357142Y-145392857D01*
X194357142Y-145535714D01*
X193642857Y-145678571D01*
X195000000Y-146178571D02*
X195000000Y-145178571D01*
X195000000Y-145464285D02*
X195071428Y-145321428D01*
X195142857Y-145250000D01*
X195285714Y-145178571D01*
X195428571Y-145178571D01*
X195928571Y-146178571D02*
X195928571Y-145178571D01*
X195928571Y-144678571D02*
X195857142Y-144750000D01*
X195928571Y-144821428D01*
X196000000Y-144750000D01*
X195928571Y-144678571D01*
X195928571Y-144821428D01*
X197214285Y-146107142D02*
X197071428Y-146178571D01*
X196785714Y-146178571D01*
X196642857Y-146107142D01*
X196571428Y-145964285D01*
X196571428Y-145392857D01*
X196642857Y-145250000D01*
X196785714Y-145178571D01*
X197071428Y-145178571D01*
X197214285Y-145250000D01*
X197285714Y-145392857D01*
X197285714Y-145535714D01*
X196571428Y-145678571D01*
X197857142Y-146107142D02*
X198000000Y-146178571D01*
X198285714Y-146178571D01*
X198428571Y-146107142D01*
X198500000Y-145964285D01*
X198500000Y-145892857D01*
X198428571Y-145750000D01*
X198285714Y-145678571D01*
X198071428Y-145678571D01*
X197928571Y-145607142D01*
X197857142Y-145464285D01*
X197857142Y-145392857D01*
X197928571Y-145250000D01*
X198071428Y-145178571D01*
X198285714Y-145178571D01*
X198428571Y-145250000D01*
X200785714Y-145392857D02*
X200285714Y-145392857D01*
X200285714Y-146178571D02*
X200285714Y-144678571D01*
X201000000Y-144678571D01*
X201571428Y-146178571D02*
X201571428Y-145178571D01*
X201571428Y-144678571D02*
X201500000Y-144750000D01*
X201571428Y-144821428D01*
X201642857Y-144750000D01*
X201571428Y-144678571D01*
X201571428Y-144821428D01*
X202142857Y-146178571D02*
X202928571Y-145178571D01*
X202142857Y-145178571D02*
X202928571Y-146178571D01*
X203285714Y-145178571D02*
X203857142Y-145178571D01*
X203500000Y-144678571D02*
X203500000Y-145964285D01*
X203571428Y-146107142D01*
X203714285Y-146178571D01*
X203857142Y-146178571D01*
X205000000Y-145178571D02*
X205000000Y-146178571D01*
X204357142Y-145178571D02*
X204357142Y-145964285D01*
X204428571Y-146107142D01*
X204571428Y-146178571D01*
X204785714Y-146178571D01*
X204928571Y-146107142D01*
X205000000Y-146035714D01*
X205714285Y-146178571D02*
X205714285Y-145178571D01*
X205714285Y-145464285D02*
X205785714Y-145321428D01*
X205857142Y-145250000D01*
X206000000Y-145178571D01*
X206142857Y-145178571D01*
X207214285Y-146107142D02*
X207071428Y-146178571D01*
X206785714Y-146178571D01*
X206642857Y-146107142D01*
X206571428Y-145964285D01*
X206571428Y-145392857D01*
X206642857Y-145250000D01*
X206785714Y-145178571D01*
X207071428Y-145178571D01*
X207214285Y-145250000D01*
X207285714Y-145392857D01*
X207285714Y-145535714D01*
X206571428Y-145678571D01*
X215785714Y-132678571D02*
X215071428Y-132678571D01*
X215071428Y-131178571D01*
X216285714Y-132678571D02*
X216285714Y-131678571D01*
X216285714Y-131178571D02*
X216214285Y-131250000D01*
X216285714Y-131321428D01*
X216357142Y-131250000D01*
X216285714Y-131178571D01*
X216285714Y-131321428D01*
X217000000Y-131678571D02*
X217000000Y-132678571D01*
X217000000Y-131821428D02*
X217071428Y-131750000D01*
X217214285Y-131678571D01*
X217428571Y-131678571D01*
X217571428Y-131750000D01*
X217642857Y-131892857D01*
X217642857Y-132678571D01*
X218928571Y-132607142D02*
X218785714Y-132678571D01*
X218500000Y-132678571D01*
X218357142Y-132607142D01*
X218285714Y-132464285D01*
X218285714Y-131892857D01*
X218357142Y-131750000D01*
X218500000Y-131678571D01*
X218785714Y-131678571D01*
X218928571Y-131750000D01*
X219000000Y-131892857D01*
X219000000Y-132035714D01*
X218285714Y-132178571D01*
X220642857Y-131178571D02*
X221642857Y-131178571D01*
X221000000Y-132678571D01*
X222857142Y-131178571D02*
X222571428Y-131178571D01*
X222428571Y-131250000D01*
X222357142Y-131321428D01*
X222214285Y-131535714D01*
X222142857Y-131821428D01*
X222142857Y-132392857D01*
X222214285Y-132535714D01*
X222285714Y-132607142D01*
X222428571Y-132678571D01*
X222714285Y-132678571D01*
X222857142Y-132607142D01*
X222928571Y-132535714D01*
X223000000Y-132392857D01*
X223000000Y-132035714D01*
X222928571Y-131892857D01*
X222857142Y-131821428D01*
X222714285Y-131750000D01*
X222428571Y-131750000D01*
X222285714Y-131821428D01*
X222214285Y-131892857D01*
X222142857Y-132035714D01*
X223642857Y-132678571D02*
X223642857Y-131678571D01*
X223642857Y-131821428D02*
X223714285Y-131750000D01*
X223857142Y-131678571D01*
X224071428Y-131678571D01*
X224214285Y-131750000D01*
X224285714Y-131892857D01*
X224285714Y-132678571D01*
X224285714Y-131892857D02*
X224357142Y-131750000D01*
X224500000Y-131678571D01*
X224714285Y-131678571D01*
X224857142Y-131750000D01*
X224928571Y-131892857D01*
X224928571Y-132678571D01*
X225642857Y-132678571D02*
X225642857Y-131678571D01*
X225642857Y-131821428D02*
X225714285Y-131750000D01*
X225857142Y-131678571D01*
X226071428Y-131678571D01*
X226214285Y-131750000D01*
X226285714Y-131892857D01*
X226285714Y-132678571D01*
X226285714Y-131892857D02*
X226357142Y-131750000D01*
X226500000Y-131678571D01*
X226714285Y-131678571D01*
X226857142Y-131750000D01*
X226928571Y-131892857D01*
X226928571Y-132678571D01*
X234500000Y-117357142D02*
X234714285Y-117428571D01*
X235071428Y-117428571D01*
X235214285Y-117357142D01*
X235285714Y-117285714D01*
X235357142Y-117142857D01*
X235357142Y-117000000D01*
X235285714Y-116857142D01*
X235214285Y-116785714D01*
X235071428Y-116714285D01*
X234785714Y-116642857D01*
X234642857Y-116571428D01*
X234571428Y-116500000D01*
X234500000Y-116357142D01*
X234500000Y-116214285D01*
X234571428Y-116071428D01*
X234642857Y-116000000D01*
X234785714Y-115928571D01*
X235142857Y-115928571D01*
X235357142Y-116000000D01*
X236000000Y-117428571D02*
X236000000Y-115928571D01*
X236642857Y-117428571D02*
X236642857Y-116642857D01*
X236571428Y-116500000D01*
X236428571Y-116428571D01*
X236214285Y-116428571D01*
X236071428Y-116500000D01*
X236000000Y-116571428D01*
X237571428Y-117428571D02*
X237428571Y-117357142D01*
X237357142Y-117285714D01*
X237285714Y-117142857D01*
X237285714Y-116714285D01*
X237357142Y-116571428D01*
X237428571Y-116500000D01*
X237571428Y-116428571D01*
X237785714Y-116428571D01*
X237928571Y-116500000D01*
X238000000Y-116571428D01*
X238071428Y-116714285D01*
X238071428Y-117142857D01*
X238000000Y-117285714D01*
X237928571Y-117357142D01*
X237785714Y-117428571D01*
X237571428Y-117428571D01*
X238714285Y-117428571D02*
X238714285Y-116428571D01*
X238714285Y-116714285D02*
X238785714Y-116571428D01*
X238857142Y-116500000D01*
X239000000Y-116428571D01*
X239142857Y-116428571D01*
X239428571Y-116428571D02*
X240000000Y-116428571D01*
X239642857Y-115928571D02*
X239642857Y-117214285D01*
X239714285Y-117357142D01*
X239857142Y-117428571D01*
X240000000Y-117428571D01*
X242071428Y-118000000D02*
X242000000Y-117928571D01*
X241857142Y-117714285D01*
X241785714Y-117571428D01*
X241714285Y-117357142D01*
X241642857Y-117000000D01*
X241642857Y-116714285D01*
X241714285Y-116357142D01*
X241785714Y-116142857D01*
X241857142Y-116000000D01*
X242000000Y-115785714D01*
X242071428Y-115714285D01*
X243428571Y-117428571D02*
X242571428Y-117428571D01*
X243000000Y-117428571D02*
X243000000Y-115928571D01*
X242857142Y-116142857D01*
X242714285Y-116285714D01*
X242571428Y-116357142D01*
X244785714Y-115928571D02*
X244071428Y-115928571D01*
X244000000Y-116642857D01*
X244071428Y-116571428D01*
X244214285Y-116500000D01*
X244571428Y-116500000D01*
X244714285Y-116571428D01*
X244785714Y-116642857D01*
X244857142Y-116785714D01*
X244857142Y-117142857D01*
X244785714Y-117285714D01*
X244714285Y-117357142D01*
X244571428Y-117428571D01*
X244214285Y-117428571D01*
X244071428Y-117357142D01*
X244000000Y-117285714D01*
X245500000Y-117285714D02*
X245571428Y-117357142D01*
X245500000Y-117428571D01*
X245428571Y-117357142D01*
X245500000Y-117285714D01*
X245500000Y-117428571D01*
X246928571Y-115928571D02*
X246214285Y-115928571D01*
X246142857Y-116642857D01*
X246214285Y-116571428D01*
X246357142Y-116500000D01*
X246714285Y-116500000D01*
X246857142Y-116571428D01*
X246928571Y-116642857D01*
X247000000Y-116785714D01*
X247000000Y-117142857D01*
X246928571Y-117285714D01*
X246857142Y-117357142D01*
X246714285Y-117428571D01*
X246357142Y-117428571D01*
X246214285Y-117357142D01*
X246142857Y-117285714D01*
X247642857Y-117428571D02*
X247642857Y-116428571D01*
X247642857Y-116571428D02*
X247714285Y-116500000D01*
X247857142Y-116428571D01*
X248071428Y-116428571D01*
X248214285Y-116500000D01*
X248285714Y-116642857D01*
X248285714Y-117428571D01*
X248285714Y-116642857D02*
X248357142Y-116500000D01*
X248500000Y-116428571D01*
X248714285Y-116428571D01*
X248857142Y-116500000D01*
X248928571Y-116642857D01*
X248928571Y-117428571D01*
X249642857Y-117428571D02*
X249642857Y-116428571D01*
X249642857Y-116571428D02*
X249714285Y-116500000D01*
X249857142Y-116428571D01*
X250071428Y-116428571D01*
X250214285Y-116500000D01*
X250285714Y-116642857D01*
X250285714Y-117428571D01*
X250285714Y-116642857D02*
X250357142Y-116500000D01*
X250500000Y-116428571D01*
X250714285Y-116428571D01*
X250857142Y-116500000D01*
X250928571Y-116642857D01*
X250928571Y-117428571D01*
X251500000Y-118000000D02*
X251571428Y-117928571D01*
X251714285Y-117714285D01*
X251785714Y-117571428D01*
X251857142Y-117357142D01*
X251928571Y-117000000D01*
X251928571Y-116714285D01*
X251857142Y-116357142D01*
X251785714Y-116142857D01*
X251714285Y-116000000D01*
X251571428Y-115785714D01*
X251500000Y-115714285D01*
X190035714Y-115928571D02*
X190321428Y-115928571D01*
X190464285Y-116000000D01*
X190607142Y-116142857D01*
X190678571Y-116428571D01*
X190678571Y-116928571D01*
X190607142Y-117214285D01*
X190464285Y-117357142D01*
X190321428Y-117428571D01*
X190035714Y-117428571D01*
X189892857Y-117357142D01*
X189750000Y-117214285D01*
X189678571Y-116928571D01*
X189678571Y-116428571D01*
X189750000Y-116142857D01*
X189892857Y-116000000D01*
X190035714Y-115928571D01*
X191321428Y-116428571D02*
X191321428Y-117928571D01*
X191321428Y-116500000D02*
X191464285Y-116428571D01*
X191750000Y-116428571D01*
X191892857Y-116500000D01*
X191964285Y-116571428D01*
X192035714Y-116714285D01*
X192035714Y-117142857D01*
X191964285Y-117285714D01*
X191892857Y-117357142D01*
X191750000Y-117428571D01*
X191464285Y-117428571D01*
X191321428Y-117357142D01*
X193250000Y-117357142D02*
X193107142Y-117428571D01*
X192821428Y-117428571D01*
X192678571Y-117357142D01*
X192607142Y-117214285D01*
X192607142Y-116642857D01*
X192678571Y-116500000D01*
X192821428Y-116428571D01*
X193107142Y-116428571D01*
X193250000Y-116500000D01*
X193321428Y-116642857D01*
X193321428Y-116785714D01*
X192607142Y-116928571D01*
X193964285Y-116428571D02*
X193964285Y-117428571D01*
X193964285Y-116571428D02*
X194035714Y-116500000D01*
X194178571Y-116428571D01*
X194392857Y-116428571D01*
X194535714Y-116500000D01*
X194607142Y-116642857D01*
X194607142Y-117428571D01*
X196892857Y-118000000D02*
X196821428Y-117928571D01*
X196678571Y-117714285D01*
X196607142Y-117571428D01*
X196535714Y-117357142D01*
X196464285Y-117000000D01*
X196464285Y-116714285D01*
X196535714Y-116357142D01*
X196607142Y-116142857D01*
X196678571Y-116000000D01*
X196821428Y-115785714D01*
X196892857Y-115714285D01*
X198250000Y-117428571D02*
X197392857Y-117428571D01*
X197821428Y-117428571D02*
X197821428Y-115928571D01*
X197678571Y-116142857D01*
X197535714Y-116285714D01*
X197392857Y-116357142D01*
X199607142Y-115928571D02*
X198892857Y-115928571D01*
X198821428Y-116642857D01*
X198892857Y-116571428D01*
X199035714Y-116500000D01*
X199392857Y-116500000D01*
X199535714Y-116571428D01*
X199607142Y-116642857D01*
X199678571Y-116785714D01*
X199678571Y-117142857D01*
X199607142Y-117285714D01*
X199535714Y-117357142D01*
X199392857Y-117428571D01*
X199035714Y-117428571D01*
X198892857Y-117357142D01*
X198821428Y-117285714D01*
X200321428Y-117285714D02*
X200392857Y-117357142D01*
X200321428Y-117428571D01*
X200250000Y-117357142D01*
X200321428Y-117285714D01*
X200321428Y-117428571D01*
X201750000Y-115928571D02*
X201035714Y-115928571D01*
X200964285Y-116642857D01*
X201035714Y-116571428D01*
X201178571Y-116500000D01*
X201535714Y-116500000D01*
X201678571Y-116571428D01*
X201750000Y-116642857D01*
X201821428Y-116785714D01*
X201821428Y-117142857D01*
X201750000Y-117285714D01*
X201678571Y-117357142D01*
X201535714Y-117428571D01*
X201178571Y-117428571D01*
X201035714Y-117357142D01*
X200964285Y-117285714D01*
X202464285Y-117428571D02*
X202464285Y-116428571D01*
X202464285Y-116571428D02*
X202535714Y-116500000D01*
X202678571Y-116428571D01*
X202892857Y-116428571D01*
X203035714Y-116500000D01*
X203107142Y-116642857D01*
X203107142Y-117428571D01*
X203107142Y-116642857D02*
X203178571Y-116500000D01*
X203321428Y-116428571D01*
X203535714Y-116428571D01*
X203678571Y-116500000D01*
X203750000Y-116642857D01*
X203750000Y-117428571D01*
X204464285Y-117428571D02*
X204464285Y-116428571D01*
X204464285Y-116571428D02*
X204535714Y-116500000D01*
X204678571Y-116428571D01*
X204892857Y-116428571D01*
X205035714Y-116500000D01*
X205107142Y-116642857D01*
X205107142Y-117428571D01*
X205107142Y-116642857D02*
X205178571Y-116500000D01*
X205321428Y-116428571D01*
X205535714Y-116428571D01*
X205678571Y-116500000D01*
X205750000Y-116642857D01*
X205750000Y-117428571D01*
X206321428Y-118000000D02*
X206392857Y-117928571D01*
X206535714Y-117714285D01*
X206607142Y-117571428D01*
X206678571Y-117357142D01*
X206750000Y-117000000D01*
X206750000Y-116714285D01*
X206678571Y-116357142D01*
X206607142Y-116142857D01*
X206535714Y-116000000D01*
X206392857Y-115785714D01*
X206321428Y-115714285D01*
X230395714Y-99858571D02*
X229681428Y-99858571D01*
X229681428Y-98358571D01*
X231110000Y-99858571D02*
X230967142Y-99787142D01*
X230895714Y-99715714D01*
X230824285Y-99572857D01*
X230824285Y-99144285D01*
X230895714Y-99001428D01*
X230967142Y-98930000D01*
X231110000Y-98858571D01*
X231324285Y-98858571D01*
X231467142Y-98930000D01*
X231538571Y-99001428D01*
X231610000Y-99144285D01*
X231610000Y-99572857D01*
X231538571Y-99715714D01*
X231467142Y-99787142D01*
X231324285Y-99858571D01*
X231110000Y-99858571D01*
X232895714Y-99858571D02*
X232895714Y-99072857D01*
X232824285Y-98930000D01*
X232681428Y-98858571D01*
X232395714Y-98858571D01*
X232252857Y-98930000D01*
X232895714Y-99787142D02*
X232752857Y-99858571D01*
X232395714Y-99858571D01*
X232252857Y-99787142D01*
X232181428Y-99644285D01*
X232181428Y-99501428D01*
X232252857Y-99358571D01*
X232395714Y-99287142D01*
X232752857Y-99287142D01*
X232895714Y-99215714D01*
X234252857Y-99858571D02*
X234252857Y-98358571D01*
X234252857Y-99787142D02*
X234110000Y-99858571D01*
X233824285Y-99858571D01*
X233681428Y-99787142D01*
X233610000Y-99715714D01*
X233538571Y-99572857D01*
X233538571Y-99144285D01*
X233610000Y-99001428D01*
X233681428Y-98930000D01*
X233824285Y-98858571D01*
X234110000Y-98858571D01*
X234252857Y-98930000D01*
X236110000Y-99858571D02*
X236110000Y-98358571D01*
X236610000Y-99430000D01*
X237110000Y-98358571D01*
X237110000Y-99858571D01*
X237824285Y-99858571D02*
X237824285Y-98858571D01*
X237824285Y-98358571D02*
X237752857Y-98430000D01*
X237824285Y-98501428D01*
X237895714Y-98430000D01*
X237824285Y-98358571D01*
X237824285Y-98501428D01*
X238467142Y-99787142D02*
X238610000Y-99858571D01*
X238895714Y-99858571D01*
X239038571Y-99787142D01*
X239110000Y-99644285D01*
X239110000Y-99572857D01*
X239038571Y-99430000D01*
X238895714Y-99358571D01*
X238681428Y-99358571D01*
X238538571Y-99287142D01*
X238467142Y-99144285D01*
X238467142Y-99072857D01*
X238538571Y-98930000D01*
X238681428Y-98858571D01*
X238895714Y-98858571D01*
X239038571Y-98930000D01*
X239752857Y-99858571D02*
X239752857Y-98858571D01*
X239752857Y-99001428D02*
X239824285Y-98930000D01*
X239967142Y-98858571D01*
X240181428Y-98858571D01*
X240324285Y-98930000D01*
X240395714Y-99072857D01*
X240395714Y-99858571D01*
X240395714Y-99072857D02*
X240467142Y-98930000D01*
X240610000Y-98858571D01*
X240824285Y-98858571D01*
X240967142Y-98930000D01*
X241038571Y-99072857D01*
X241038571Y-99858571D01*
X242395714Y-99858571D02*
X242395714Y-99072857D01*
X242324285Y-98930000D01*
X242181428Y-98858571D01*
X241895714Y-98858571D01*
X241752857Y-98930000D01*
X242395714Y-99787142D02*
X242252857Y-99858571D01*
X241895714Y-99858571D01*
X241752857Y-99787142D01*
X241681428Y-99644285D01*
X241681428Y-99501428D01*
X241752857Y-99358571D01*
X241895714Y-99287142D01*
X242252857Y-99287142D01*
X242395714Y-99215714D01*
X242895714Y-98858571D02*
X243467142Y-98858571D01*
X243110000Y-98358571D02*
X243110000Y-99644285D01*
X243181428Y-99787142D01*
X243324285Y-99858571D01*
X243467142Y-99858571D01*
X244610000Y-99787142D02*
X244467142Y-99858571D01*
X244181428Y-99858571D01*
X244038571Y-99787142D01*
X243967142Y-99715714D01*
X243895714Y-99572857D01*
X243895714Y-99144285D01*
X243967142Y-99001428D01*
X244038571Y-98930000D01*
X244181428Y-98858571D01*
X244467142Y-98858571D01*
X244610000Y-98930000D01*
X245252857Y-99858571D02*
X245252857Y-98358571D01*
X245895714Y-99858571D02*
X245895714Y-99072857D01*
X245824285Y-98930000D01*
X245681428Y-98858571D01*
X245467142Y-98858571D01*
X245324285Y-98930000D01*
X245252857Y-99001428D01*
X248181428Y-100430000D02*
X248109999Y-100358571D01*
X247967142Y-100144285D01*
X247895714Y-100001428D01*
X247824285Y-99787142D01*
X247752857Y-99430000D01*
X247752857Y-99144285D01*
X247824285Y-98787142D01*
X247895714Y-98572857D01*
X247967142Y-98430000D01*
X248109999Y-98215714D01*
X248181428Y-98144285D01*
X249538571Y-99858571D02*
X248681428Y-99858571D01*
X249109999Y-99858571D02*
X249109999Y-98358571D01*
X248967142Y-98572857D01*
X248824285Y-98715714D01*
X248681428Y-98787142D01*
X250895714Y-98358571D02*
X250181428Y-98358571D01*
X250110000Y-99072857D01*
X250181428Y-99001428D01*
X250324285Y-98930000D01*
X250681428Y-98930000D01*
X250824285Y-99001428D01*
X250895714Y-99072857D01*
X250967142Y-99215714D01*
X250967142Y-99572857D01*
X250895714Y-99715714D01*
X250824285Y-99787142D01*
X250681428Y-99858571D01*
X250324285Y-99858571D01*
X250181428Y-99787142D01*
X250110000Y-99715714D01*
X251610000Y-99715714D02*
X251681428Y-99787142D01*
X251610000Y-99858571D01*
X251538571Y-99787142D01*
X251610000Y-99715714D01*
X251610000Y-99858571D01*
X253038571Y-98358571D02*
X252324285Y-98358571D01*
X252252857Y-99072857D01*
X252324285Y-99001428D01*
X252467142Y-98930000D01*
X252824285Y-98930000D01*
X252967142Y-99001428D01*
X253038571Y-99072857D01*
X253109999Y-99215714D01*
X253109999Y-99572857D01*
X253038571Y-99715714D01*
X252967142Y-99787142D01*
X252824285Y-99858571D01*
X252467142Y-99858571D01*
X252324285Y-99787142D01*
X252252857Y-99715714D01*
X253752857Y-99858571D02*
X253752857Y-98858571D01*
X253752857Y-99001428D02*
X253824285Y-98930000D01*
X253967142Y-98858571D01*
X254181428Y-98858571D01*
X254324285Y-98930000D01*
X254395714Y-99072857D01*
X254395714Y-99858571D01*
X254395714Y-99072857D02*
X254467142Y-98930000D01*
X254609999Y-98858571D01*
X254824285Y-98858571D01*
X254967142Y-98930000D01*
X255038571Y-99072857D01*
X255038571Y-99858571D01*
X255752857Y-99858571D02*
X255752857Y-98858571D01*
X255752857Y-99001428D02*
X255824285Y-98930000D01*
X255967142Y-98858571D01*
X256181428Y-98858571D01*
X256324285Y-98930000D01*
X256395714Y-99072857D01*
X256395714Y-99858571D01*
X256395714Y-99072857D02*
X256467142Y-98930000D01*
X256609999Y-98858571D01*
X256824285Y-98858571D01*
X256967142Y-98930000D01*
X257038571Y-99072857D01*
X257038571Y-99858571D01*
X257609999Y-100430000D02*
X257681428Y-100358571D01*
X257824285Y-100144285D01*
X257895714Y-100001428D01*
X257967142Y-99787142D01*
X258038571Y-99430000D01*
X258038571Y-99144285D01*
X257967142Y-98787142D01*
X257895714Y-98572857D01*
X257824285Y-98430000D01*
X257681428Y-98215714D01*
X257609999Y-98144285D01*
X184270000Y-99858571D02*
X183555714Y-99858571D01*
X183555714Y-98358571D01*
X184984285Y-99858571D02*
X184841428Y-99787142D01*
X184770000Y-99715714D01*
X184698571Y-99572857D01*
X184698571Y-99144285D01*
X184770000Y-99001428D01*
X184841428Y-98930000D01*
X184984285Y-98858571D01*
X185198571Y-98858571D01*
X185341428Y-98930000D01*
X185412857Y-99001428D01*
X185484285Y-99144285D01*
X185484285Y-99572857D01*
X185412857Y-99715714D01*
X185341428Y-99787142D01*
X185198571Y-99858571D01*
X184984285Y-99858571D01*
X186770000Y-99858571D02*
X186770000Y-99072857D01*
X186698571Y-98930000D01*
X186555714Y-98858571D01*
X186270000Y-98858571D01*
X186127142Y-98930000D01*
X186770000Y-99787142D02*
X186627142Y-99858571D01*
X186270000Y-99858571D01*
X186127142Y-99787142D01*
X186055714Y-99644285D01*
X186055714Y-99501428D01*
X186127142Y-99358571D01*
X186270000Y-99287142D01*
X186627142Y-99287142D01*
X186770000Y-99215714D01*
X188127142Y-99858571D02*
X188127142Y-98358571D01*
X188127142Y-99787142D02*
X187984285Y-99858571D01*
X187698571Y-99858571D01*
X187555714Y-99787142D01*
X187484285Y-99715714D01*
X187412857Y-99572857D01*
X187412857Y-99144285D01*
X187484285Y-99001428D01*
X187555714Y-98930000D01*
X187698571Y-98858571D01*
X187984285Y-98858571D01*
X188127142Y-98930000D01*
X189984285Y-99858571D02*
X189984285Y-98358571D01*
X190484285Y-99430000D01*
X190984285Y-98358571D01*
X190984285Y-99858571D01*
X192341428Y-99858571D02*
X192341428Y-99072857D01*
X192270000Y-98930000D01*
X192127142Y-98858571D01*
X191841428Y-98858571D01*
X191698571Y-98930000D01*
X192341428Y-99787142D02*
X192198571Y-99858571D01*
X191841428Y-99858571D01*
X191698571Y-99787142D01*
X191627142Y-99644285D01*
X191627142Y-99501428D01*
X191698571Y-99358571D01*
X191841428Y-99287142D01*
X192198571Y-99287142D01*
X192341428Y-99215714D01*
X192841428Y-98858571D02*
X193412857Y-98858571D01*
X193055714Y-98358571D02*
X193055714Y-99644285D01*
X193127142Y-99787142D01*
X193270000Y-99858571D01*
X193412857Y-99858571D01*
X194555714Y-99787142D02*
X194412857Y-99858571D01*
X194127142Y-99858571D01*
X193984285Y-99787142D01*
X193912857Y-99715714D01*
X193841428Y-99572857D01*
X193841428Y-99144285D01*
X193912857Y-99001428D01*
X193984285Y-98930000D01*
X194127142Y-98858571D01*
X194412857Y-98858571D01*
X194555714Y-98930000D01*
X195198571Y-99858571D02*
X195198571Y-98358571D01*
X195841428Y-99858571D02*
X195841428Y-99072857D01*
X195770000Y-98930000D01*
X195627142Y-98858571D01*
X195412857Y-98858571D01*
X195270000Y-98930000D01*
X195198571Y-99001428D01*
X198127142Y-100430000D02*
X198055714Y-100358571D01*
X197912857Y-100144285D01*
X197841428Y-100001428D01*
X197770000Y-99787142D01*
X197698571Y-99430000D01*
X197698571Y-99144285D01*
X197770000Y-98787142D01*
X197841428Y-98572857D01*
X197912857Y-98430000D01*
X198055714Y-98215714D01*
X198127142Y-98144285D01*
X199484285Y-99858571D02*
X198627142Y-99858571D01*
X199055714Y-99858571D02*
X199055714Y-98358571D01*
X198912857Y-98572857D01*
X198770000Y-98715714D01*
X198627142Y-98787142D01*
X200841428Y-98358571D02*
X200127142Y-98358571D01*
X200055714Y-99072857D01*
X200127142Y-99001428D01*
X200270000Y-98930000D01*
X200627142Y-98930000D01*
X200770000Y-99001428D01*
X200841428Y-99072857D01*
X200912857Y-99215714D01*
X200912857Y-99572857D01*
X200841428Y-99715714D01*
X200770000Y-99787142D01*
X200627142Y-99858571D01*
X200270000Y-99858571D01*
X200127142Y-99787142D01*
X200055714Y-99715714D01*
X201555714Y-99715714D02*
X201627142Y-99787142D01*
X201555714Y-99858571D01*
X201484285Y-99787142D01*
X201555714Y-99715714D01*
X201555714Y-99858571D01*
X202984285Y-98358571D02*
X202270000Y-98358571D01*
X202198571Y-99072857D01*
X202270000Y-99001428D01*
X202412857Y-98930000D01*
X202770000Y-98930000D01*
X202912857Y-99001428D01*
X202984285Y-99072857D01*
X203055714Y-99215714D01*
X203055714Y-99572857D01*
X202984285Y-99715714D01*
X202912857Y-99787142D01*
X202770000Y-99858571D01*
X202412857Y-99858571D01*
X202270000Y-99787142D01*
X202198571Y-99715714D01*
X203698571Y-99858571D02*
X203698571Y-98858571D01*
X203698571Y-99001428D02*
X203770000Y-98930000D01*
X203912857Y-98858571D01*
X204127142Y-98858571D01*
X204270000Y-98930000D01*
X204341428Y-99072857D01*
X204341428Y-99858571D01*
X204341428Y-99072857D02*
X204412857Y-98930000D01*
X204555714Y-98858571D01*
X204770000Y-98858571D01*
X204912857Y-98930000D01*
X204984285Y-99072857D01*
X204984285Y-99858571D01*
X205698571Y-99858571D02*
X205698571Y-98858571D01*
X205698571Y-99001428D02*
X205770000Y-98930000D01*
X205912857Y-98858571D01*
X206127142Y-98858571D01*
X206270000Y-98930000D01*
X206341428Y-99072857D01*
X206341428Y-99858571D01*
X206341428Y-99072857D02*
X206412857Y-98930000D01*
X206555714Y-98858571D01*
X206770000Y-98858571D01*
X206912857Y-98930000D01*
X206984285Y-99072857D01*
X206984285Y-99858571D01*
X207555714Y-100430000D02*
X207627142Y-100358571D01*
X207770000Y-100144285D01*
X207841428Y-100001428D01*
X207912857Y-99787142D01*
X207984285Y-99430000D01*
X207984285Y-99144285D01*
X207912857Y-98787142D01*
X207841428Y-98572857D01*
X207770000Y-98430000D01*
X207627142Y-98215714D01*
X207555714Y-98144285D01*
X191250000Y-86178571D02*
X192107142Y-86178571D01*
X191678571Y-87678571D02*
X191678571Y-86178571D01*
X192607142Y-87678571D02*
X192607142Y-86178571D01*
X193250000Y-87678571D02*
X193250000Y-86892857D01*
X193178571Y-86750000D01*
X193035714Y-86678571D01*
X192821428Y-86678571D01*
X192678571Y-86750000D01*
X192607142Y-86821428D01*
X193964285Y-87678571D02*
X193964285Y-86678571D01*
X193964285Y-86964285D02*
X194035714Y-86821428D01*
X194107142Y-86750000D01*
X194250000Y-86678571D01*
X194392857Y-86678571D01*
X195535714Y-86678571D02*
X195535714Y-87678571D01*
X194892857Y-86678571D02*
X194892857Y-87464285D01*
X194964285Y-87607142D01*
X195107142Y-87678571D01*
X195321428Y-87678571D01*
X195464285Y-87607142D01*
X195535714Y-87535714D01*
X197821428Y-88250000D02*
X197750000Y-88178571D01*
X197607142Y-87964285D01*
X197535714Y-87821428D01*
X197464285Y-87607142D01*
X197392857Y-87250000D01*
X197392857Y-86964285D01*
X197464285Y-86607142D01*
X197535714Y-86392857D01*
X197607142Y-86250000D01*
X197750000Y-86035714D01*
X197821428Y-85964285D01*
X198250000Y-86178571D02*
X199178571Y-86178571D01*
X198678571Y-86750000D01*
X198892857Y-86750000D01*
X199035714Y-86821428D01*
X199107142Y-86892857D01*
X199178571Y-87035714D01*
X199178571Y-87392857D01*
X199107142Y-87535714D01*
X199035714Y-87607142D01*
X198892857Y-87678571D01*
X198464285Y-87678571D01*
X198321428Y-87607142D01*
X198250000Y-87535714D01*
X200607142Y-87678571D02*
X199750000Y-87678571D01*
X200178571Y-87678571D02*
X200178571Y-86178571D01*
X200035714Y-86392857D01*
X199892857Y-86535714D01*
X199750000Y-86607142D01*
X201250000Y-87678571D02*
X201250000Y-86678571D01*
X201250000Y-86821428D02*
X201321428Y-86750000D01*
X201464285Y-86678571D01*
X201678571Y-86678571D01*
X201821428Y-86750000D01*
X201892857Y-86892857D01*
X201892857Y-87678571D01*
X201892857Y-86892857D02*
X201964285Y-86750000D01*
X202107142Y-86678571D01*
X202321428Y-86678571D01*
X202464285Y-86750000D01*
X202535714Y-86892857D01*
X202535714Y-87678571D01*
X203250000Y-87678571D02*
X203250000Y-86678571D01*
X203250000Y-86821428D02*
X203321428Y-86750000D01*
X203464285Y-86678571D01*
X203678571Y-86678571D01*
X203821428Y-86750000D01*
X203892857Y-86892857D01*
X203892857Y-87678571D01*
X203892857Y-86892857D02*
X203964285Y-86750000D01*
X204107142Y-86678571D01*
X204321428Y-86678571D01*
X204464285Y-86750000D01*
X204535714Y-86892857D01*
X204535714Y-87678571D01*
X205107142Y-88250000D02*
X205178571Y-88178571D01*
X205321428Y-87964285D01*
X205392857Y-87821428D01*
X205464285Y-87607142D01*
X205535714Y-87250000D01*
X205535714Y-86964285D01*
X205464285Y-86607142D01*
X205392857Y-86392857D01*
X205321428Y-86250000D01*
X205178571Y-86035714D01*
X205107142Y-85964285D01*
D11*
X215146000Y-169318000D02*
X209812000Y-169318000D01*
X215146000Y-160682000D02*
X209812000Y-160682000D01*
X183254000Y-160682000D02*
X188588000Y-160682000D01*
X183254000Y-169318000D02*
X188588000Y-169318000D01*
X216576000Y-154318000D02*
X211242000Y-154318000D01*
X216576000Y-145682000D02*
X211242000Y-145682000D01*
X183254000Y-145682000D02*
X188588000Y-145682000D01*
X183254000Y-154318000D02*
X188588000Y-154318000D01*
X258746000Y-139568000D02*
X253412000Y-139568000D01*
X258746000Y-130932000D02*
X253412000Y-130932000D01*
X183254000Y-130932000D02*
X188588000Y-130932000D01*
X183254000Y-139568000D02*
X188588000Y-139568000D01*
X258746000Y-124568000D02*
X253412000Y-124568000D01*
X258746000Y-115932000D02*
X253412000Y-115932000D01*
X183254000Y-115932000D02*
X188588000Y-115932000D01*
X183254000Y-124568000D02*
X188588000Y-124568000D01*
X258746000Y-109568000D02*
X253412000Y-109568000D01*
X258746000Y-100932000D02*
X253412000Y-100932000D01*
X183254000Y-100932000D02*
X188588000Y-100932000D01*
X183254000Y-109568000D02*
X188588000Y-109568000D01*
X213746000Y-94568000D02*
X208412000Y-94568000D01*
X213746000Y-85932000D02*
X208412000Y-85932000D01*
X183254000Y-85932000D02*
X188588000Y-85932000D01*
X183254000Y-94568000D02*
X188588000Y-94568000D01*
D12*
X200183578Y-149290000D02*
X199666422Y-149290000D01*
X200183578Y-150710000D02*
X199666422Y-150710000D01*
X199910000Y-104083578D02*
X199910000Y-103566422D01*
X198490000Y-104083578D02*
X198490000Y-103566422D01*
X198490000Y-106416422D02*
X198490000Y-106933578D01*
X199910000Y-106416422D02*
X199910000Y-106933578D01*
X243510000Y-104083578D02*
X243510000Y-103566422D01*
X242090000Y-104083578D02*
X242090000Y-103566422D01*
X242090000Y-106416422D02*
X242090000Y-106933578D01*
X243510000Y-106416422D02*
X243510000Y-106933578D01*
X199910000Y-166196078D02*
X199910000Y-165678922D01*
X198490000Y-166196078D02*
X198490000Y-165678922D01*
D11*
X211796476Y-169786380D02*
X211796476Y-170500666D01*
X211748857Y-170643523D01*
X211653619Y-170738761D01*
X211510761Y-170786380D01*
X211415523Y-170786380D01*
X212796476Y-170786380D02*
X212225047Y-170786380D01*
X212510761Y-170786380D02*
X212510761Y-169786380D01*
X212415523Y-169929238D01*
X212320285Y-170024476D01*
X212225047Y-170072095D01*
X213177428Y-169881619D02*
X213225047Y-169834000D01*
X213320285Y-169786380D01*
X213558380Y-169786380D01*
X213653619Y-169834000D01*
X213701238Y-169881619D01*
X213748857Y-169976857D01*
X213748857Y-170072095D01*
X213701238Y-170214952D01*
X213129809Y-170786380D01*
X213748857Y-170786380D01*
X184984476Y-169562380D02*
X184984476Y-170276666D01*
X184936857Y-170419523D01*
X184841619Y-170514761D01*
X184698761Y-170562380D01*
X184603523Y-170562380D01*
X185984476Y-170562380D02*
X185413047Y-170562380D01*
X185698761Y-170562380D02*
X185698761Y-169562380D01*
X185603523Y-169705238D01*
X185508285Y-169800476D01*
X185413047Y-169848095D01*
X186936857Y-170562380D02*
X186365428Y-170562380D01*
X186651142Y-170562380D02*
X186651142Y-169562380D01*
X186555904Y-169705238D01*
X186460666Y-169800476D01*
X186365428Y-169848095D01*
X213226476Y-154786380D02*
X213226476Y-155500666D01*
X213178857Y-155643523D01*
X213083619Y-155738761D01*
X212940761Y-155786380D01*
X212845523Y-155786380D01*
X214226476Y-155786380D02*
X213655047Y-155786380D01*
X213940761Y-155786380D02*
X213940761Y-154786380D01*
X213845523Y-154929238D01*
X213750285Y-155024476D01*
X213655047Y-155072095D01*
X214845523Y-154786380D02*
X214940761Y-154786380D01*
X215036000Y-154834000D01*
X215083619Y-154881619D01*
X215131238Y-154976857D01*
X215178857Y-155167333D01*
X215178857Y-155405428D01*
X215131238Y-155595904D01*
X215083619Y-155691142D01*
X215036000Y-155738761D01*
X214940761Y-155786380D01*
X214845523Y-155786380D01*
X214750285Y-155738761D01*
X214702666Y-155691142D01*
X214655047Y-155595904D01*
X214607428Y-155405428D01*
X214607428Y-155167333D01*
X214655047Y-154976857D01*
X214702666Y-154881619D01*
X214750285Y-154834000D01*
X214845523Y-154786380D01*
X185460666Y-154562380D02*
X185460666Y-155276666D01*
X185413047Y-155419523D01*
X185317809Y-155514761D01*
X185174952Y-155562380D01*
X185079714Y-155562380D01*
X185984476Y-155562380D02*
X186174952Y-155562380D01*
X186270190Y-155514761D01*
X186317809Y-155467142D01*
X186413047Y-155324285D01*
X186460666Y-155133809D01*
X186460666Y-154752857D01*
X186413047Y-154657619D01*
X186365428Y-154610000D01*
X186270190Y-154562380D01*
X186079714Y-154562380D01*
X185984476Y-154610000D01*
X185936857Y-154657619D01*
X185889238Y-154752857D01*
X185889238Y-154990952D01*
X185936857Y-155086190D01*
X185984476Y-155133809D01*
X186079714Y-155181428D01*
X186270190Y-155181428D01*
X186365428Y-155133809D01*
X186413047Y-155086190D01*
X186460666Y-154990952D01*
X255872666Y-140036380D02*
X255872666Y-140750666D01*
X255825047Y-140893523D01*
X255729809Y-140988761D01*
X255586952Y-141036380D01*
X255491714Y-141036380D01*
X256491714Y-140464952D02*
X256396476Y-140417333D01*
X256348857Y-140369714D01*
X256301238Y-140274476D01*
X256301238Y-140226857D01*
X256348857Y-140131619D01*
X256396476Y-140084000D01*
X256491714Y-140036380D01*
X256682190Y-140036380D01*
X256777428Y-140084000D01*
X256825047Y-140131619D01*
X256872666Y-140226857D01*
X256872666Y-140274476D01*
X256825047Y-140369714D01*
X256777428Y-140417333D01*
X256682190Y-140464952D01*
X256491714Y-140464952D01*
X256396476Y-140512571D01*
X256348857Y-140560190D01*
X256301238Y-140655428D01*
X256301238Y-140845904D01*
X256348857Y-140941142D01*
X256396476Y-140988761D01*
X256491714Y-141036380D01*
X256682190Y-141036380D01*
X256777428Y-140988761D01*
X256825047Y-140941142D01*
X256872666Y-140845904D01*
X256872666Y-140655428D01*
X256825047Y-140560190D01*
X256777428Y-140512571D01*
X256682190Y-140464952D01*
X185460666Y-139972380D02*
X185460666Y-140686666D01*
X185413047Y-140829523D01*
X185317809Y-140924761D01*
X185174952Y-140972380D01*
X185079714Y-140972380D01*
X185841619Y-139972380D02*
X186508285Y-139972380D01*
X186079714Y-140972380D01*
X255872666Y-125036380D02*
X255872666Y-125750666D01*
X255825047Y-125893523D01*
X255729809Y-125988761D01*
X255586952Y-126036380D01*
X255491714Y-126036380D01*
X256777428Y-125036380D02*
X256586952Y-125036380D01*
X256491714Y-125084000D01*
X256444095Y-125131619D01*
X256348857Y-125274476D01*
X256301238Y-125464952D01*
X256301238Y-125845904D01*
X256348857Y-125941142D01*
X256396476Y-125988761D01*
X256491714Y-126036380D01*
X256682190Y-126036380D01*
X256777428Y-125988761D01*
X256825047Y-125941142D01*
X256872666Y-125845904D01*
X256872666Y-125607809D01*
X256825047Y-125512571D01*
X256777428Y-125464952D01*
X256682190Y-125417333D01*
X256491714Y-125417333D01*
X256396476Y-125464952D01*
X256348857Y-125512571D01*
X256301238Y-125607809D01*
X185460666Y-124922380D02*
X185460666Y-125636666D01*
X185413047Y-125779523D01*
X185317809Y-125874761D01*
X185174952Y-125922380D01*
X185079714Y-125922380D01*
X186413047Y-124922380D02*
X185936857Y-124922380D01*
X185889238Y-125398571D01*
X185936857Y-125350952D01*
X186032095Y-125303333D01*
X186270190Y-125303333D01*
X186365428Y-125350952D01*
X186413047Y-125398571D01*
X186460666Y-125493809D01*
X186460666Y-125731904D01*
X186413047Y-125827142D01*
X186365428Y-125874761D01*
X186270190Y-125922380D01*
X186032095Y-125922380D01*
X185936857Y-125874761D01*
X185889238Y-125827142D01*
X255872666Y-110036380D02*
X255872666Y-110750666D01*
X255825047Y-110893523D01*
X255729809Y-110988761D01*
X255586952Y-111036380D01*
X255491714Y-111036380D01*
X256777428Y-110369714D02*
X256777428Y-111036380D01*
X256539333Y-109988761D02*
X256301238Y-110703047D01*
X256920285Y-110703047D01*
X185406666Y-110082380D02*
X185406666Y-110796666D01*
X185359047Y-110939523D01*
X185263809Y-111034761D01*
X185120952Y-111082380D01*
X185025714Y-111082380D01*
X185787619Y-110082380D02*
X186406666Y-110082380D01*
X186073333Y-110463333D01*
X186216190Y-110463333D01*
X186311428Y-110510952D01*
X186359047Y-110558571D01*
X186406666Y-110653809D01*
X186406666Y-110891904D01*
X186359047Y-110987142D01*
X186311428Y-111034761D01*
X186216190Y-111082380D01*
X185930476Y-111082380D01*
X185835238Y-111034761D01*
X185787619Y-110987142D01*
X210872666Y-95036380D02*
X210872666Y-95750666D01*
X210825047Y-95893523D01*
X210729809Y-95988761D01*
X210586952Y-96036380D01*
X210491714Y-96036380D01*
X211301238Y-95131619D02*
X211348857Y-95084000D01*
X211444095Y-95036380D01*
X211682190Y-95036380D01*
X211777428Y-95084000D01*
X211825047Y-95131619D01*
X211872666Y-95226857D01*
X211872666Y-95322095D01*
X211825047Y-95464952D01*
X211253619Y-96036380D01*
X211872666Y-96036380D01*
X185376666Y-95022380D02*
X185376666Y-95736666D01*
X185329047Y-95879523D01*
X185233809Y-95974761D01*
X185090952Y-96022380D01*
X184995714Y-96022380D01*
X186376666Y-96022380D02*
X185805238Y-96022380D01*
X186090952Y-96022380D02*
X186090952Y-95022380D01*
X185995714Y-95165238D01*
X185900476Y-95260476D01*
X185805238Y-95308095D01*
X199591666Y-152428571D02*
X199258333Y-152428571D01*
X199258333Y-152952380D02*
X199258333Y-151952380D01*
X199734523Y-151952380D01*
X200639285Y-152952380D02*
X200067857Y-152952380D01*
X200353571Y-152952380D02*
X200353571Y-151952380D01*
X200258333Y-152095238D01*
X200163095Y-152190476D01*
X200067857Y-152238095D01*
X202702380Y-103991666D02*
X202226190Y-104325000D01*
X202702380Y-104563095D02*
X201702380Y-104563095D01*
X201702380Y-104182142D01*
X201750000Y-104086904D01*
X201797619Y-104039285D01*
X201892857Y-103991666D01*
X202035714Y-103991666D01*
X202130952Y-104039285D01*
X202178571Y-104086904D01*
X202226190Y-104182142D01*
X202226190Y-104563095D01*
X202702380Y-103039285D02*
X202702380Y-103610714D01*
X202702380Y-103325000D02*
X201702380Y-103325000D01*
X201845238Y-103420238D01*
X201940476Y-103515476D01*
X201988095Y-103610714D01*
X202702380Y-106841666D02*
X202226190Y-107175000D01*
X202702380Y-107413095D02*
X201702380Y-107413095D01*
X201702380Y-107032142D01*
X201750000Y-106936904D01*
X201797619Y-106889285D01*
X201892857Y-106841666D01*
X202035714Y-106841666D01*
X202130952Y-106889285D01*
X202178571Y-106936904D01*
X202226190Y-107032142D01*
X202226190Y-107413095D01*
X201797619Y-106460714D02*
X201750000Y-106413095D01*
X201702380Y-106317857D01*
X201702380Y-106079761D01*
X201750000Y-105984523D01*
X201797619Y-105936904D01*
X201892857Y-105889285D01*
X201988095Y-105889285D01*
X202130952Y-105936904D01*
X202702380Y-106508333D01*
X202702380Y-105889285D01*
X240202380Y-103991666D02*
X239726190Y-104325000D01*
X240202380Y-104563095D02*
X239202380Y-104563095D01*
X239202380Y-104182142D01*
X239250000Y-104086904D01*
X239297619Y-104039285D01*
X239392857Y-103991666D01*
X239535714Y-103991666D01*
X239630952Y-104039285D01*
X239678571Y-104086904D01*
X239726190Y-104182142D01*
X239726190Y-104563095D01*
X239202380Y-103658333D02*
X239202380Y-103039285D01*
X239583333Y-103372619D01*
X239583333Y-103229761D01*
X239630952Y-103134523D01*
X239678571Y-103086904D01*
X239773809Y-103039285D01*
X240011904Y-103039285D01*
X240107142Y-103086904D01*
X240154761Y-103134523D01*
X240202380Y-103229761D01*
X240202380Y-103515476D01*
X240154761Y-103610714D01*
X240107142Y-103658333D01*
X240202380Y-106841666D02*
X239726190Y-107175000D01*
X240202380Y-107413095D02*
X239202380Y-107413095D01*
X239202380Y-107032142D01*
X239250000Y-106936904D01*
X239297619Y-106889285D01*
X239392857Y-106841666D01*
X239535714Y-106841666D01*
X239630952Y-106889285D01*
X239678571Y-106936904D01*
X239726190Y-107032142D01*
X239726190Y-107413095D01*
X239535714Y-105984523D02*
X240202380Y-105984523D01*
X239154761Y-106222619D02*
X239869047Y-106460714D01*
X239869047Y-105841666D01*
X198916666Y-168178571D02*
X198583333Y-168178571D01*
X198583333Y-168702380D02*
X198583333Y-167702380D01*
X199059523Y-167702380D01*
X199392857Y-167797619D02*
X199440476Y-167750000D01*
X199535714Y-167702380D01*
X199773809Y-167702380D01*
X199869047Y-167750000D01*
X199916666Y-167797619D01*
X199964285Y-167892857D01*
X199964285Y-167988095D01*
X199916666Y-168130952D01*
X199345238Y-168702380D01*
X199964285Y-168702380D01*
M02*
