M48
; DRILL file {KiCad (5.1.5)-2} date 16-Feb-20 11:04:42
; FORMAT={-:-/ absolute / inch / decimal}
; #@! TF.CreationDate,2020-02-16T11:04:42+01:00
; #@! TF.GenerationSoftware,Kicad,Pcbnew,(5.1.5)-2
FMAT,2
INCH
T1C0.0157
T2C0.0160
%
G90
G05
T1
X7.7563Y-6.4228
X7.7657Y-3.9961
X7.7657Y-4.0453
X7.7657Y-4.2421
X7.7657Y-4.2913
X7.7657Y-5.8071
X7.7657Y-5.8406
X7.7657Y-5.9713
X7.7657Y-6.0039
X7.7657Y-6.5945
X7.7657Y-6.6437
X7.8055Y-6.4228
X7.815Y-3.9961
X7.815Y-4.2913
X7.815Y-5.8071
X7.815Y-6.0039
X7.815Y-6.6437
X7.8547Y-6.4228
X7.8642Y-3.9961
X7.8642Y-4.2913
X7.8642Y-5.8071
X7.8642Y-6.0039
X7.8642Y-6.6437
X7.9039Y-6.4228
X7.9134Y-3.9961
X7.9134Y-4.2913
X7.9134Y-5.8071
X7.9134Y-6.0039
X7.9134Y-6.5945
X7.9134Y-6.6437
X7.9626Y-3.9961
X7.9626Y-4.0453
X7.9626Y-4.0945
X7.9626Y-4.1437
X7.9626Y-4.1929
X7.9626Y-4.2421
X7.9626Y-4.2913
X7.9626Y-5.8071
X7.9626Y-5.8406
X7.9626Y-5.9713
X7.9626Y-6.0039
X9.439Y-3.9961
X9.439Y-4.0453
X9.439Y-4.0945
X9.439Y-4.1437
X9.439Y-4.1929
X9.439Y-4.2421
X9.439Y-4.2913
X9.4882Y-3.9961
X9.4882Y-4.2913
X9.5374Y-3.9961
X9.5374Y-4.2913
X9.5866Y-3.9961
X9.5866Y-4.2913
X9.6358Y-3.9961
X9.6358Y-4.0453
X9.6358Y-4.2421
X9.6358Y-4.2913
T2
X7.2441Y-3.5211
X7.2441Y-3.5851
X7.2441Y-4.1117
X7.2441Y-4.1757
X7.2441Y-4.7023
X7.2441Y-4.7663
X7.2441Y-5.2928
X7.2441Y-5.3568
X7.2441Y-5.8735
X7.2441Y-5.9375
X7.2441Y-6.4641
X7.2441Y-6.5281
X7.2947Y-5.2928
X7.2947Y-5.3568
X7.2953Y-6.4641
X7.2953Y-6.5281
X7.2956Y-4.7023
X7.2956Y-4.7663
X7.296Y-4.1117
X7.296Y-4.1757
X7.2962Y-3.5211
X7.2962Y-3.5851
X7.2977Y-5.8735
X7.2977Y-5.9375
X7.3453Y-5.2928
X7.3453Y-5.3568
X7.3465Y-6.4641
X7.3465Y-6.5281
X7.3471Y-4.7023
X7.3471Y-4.7663
X7.3479Y-4.1117
X7.3479Y-4.1757
X7.3482Y-3.5211
X7.3482Y-3.5851
X7.3514Y-5.8735
X7.3514Y-5.9375
X7.3959Y-5.2928
X7.3959Y-5.3568
X7.3976Y-6.4641
X7.3976Y-6.5281
X7.3985Y-4.7023
X7.3985Y-4.7663
X7.3998Y-4.1117
X7.3998Y-4.1757
X7.4003Y-3.5211
X7.4003Y-3.5851
X7.405Y-5.8735
X7.405Y-5.9375
X7.4465Y-5.2928
X7.4465Y-5.3568
X7.4488Y-6.4641
X7.4488Y-6.5281
X7.45Y-4.7023
X7.45Y-4.7663
X7.4517Y-4.1117
X7.4517Y-4.1757
X7.4524Y-3.5211
X7.4524Y-3.5851
X7.4587Y-5.8735
X7.4587Y-5.9375
X7.4971Y-5.2928
X7.4971Y-5.3568
X7.5Y-6.4641
X7.5Y-6.5281
X7.5015Y-4.7023
X7.5015Y-4.7663
X7.5036Y-4.1117
X7.5036Y-4.1757
X7.5045Y-3.5211
X7.5045Y-3.5851
X7.5123Y-5.8735
X7.5123Y-5.9375
X7.5477Y-5.2928
X7.5477Y-5.3568
X7.5512Y-6.4641
X7.5512Y-6.5281
X7.553Y-4.7023
X7.553Y-4.7663
X7.5555Y-4.1117
X7.5555Y-4.1757
X7.5565Y-3.5211
X7.5565Y-3.5851
X7.5659Y-5.8735
X7.5659Y-5.9375
X7.5983Y-5.2928
X7.5983Y-5.3568
X7.6024Y-6.4641
X7.6024Y-6.5281
X7.6045Y-4.7023
X7.6045Y-4.7663
X7.6074Y-4.1117
X7.6074Y-4.1757
X7.6086Y-3.5211
X7.6086Y-3.5851
X7.6196Y-5.8735
X7.6196Y-5.9375
X7.649Y-5.2928
X7.649Y-5.3568
X7.6535Y-6.4641
X7.6535Y-6.5281
X7.656Y-4.7023
X7.656Y-4.7663
X7.6593Y-4.1117
X7.6593Y-4.1757
X7.6607Y-3.5211
X7.6607Y-3.5851
X7.6732Y-5.8735
X7.6732Y-5.9375
X7.6996Y-5.2928
X7.6996Y-5.3568
X7.7047Y-6.4641
X7.7047Y-6.5281
X7.7074Y-4.7023
X7.7074Y-4.7663
X7.7112Y-4.1117
X7.7112Y-4.1757
X7.7128Y-3.5211
X7.7128Y-3.5851
X7.7269Y-5.8735
X7.7269Y-5.9375
X7.7502Y-5.2928
X7.7502Y-5.3568
X7.7559Y-6.4641
X7.7559Y-6.5281
X7.7589Y-4.7023
X7.7589Y-4.7663
X7.7631Y-4.1117
X7.7631Y-4.1757
X7.7649Y-3.5211
X7.7649Y-3.5851
X7.7805Y-5.8735
X7.7805Y-5.9375
X7.8008Y-5.2928
X7.8008Y-5.3568
X7.8104Y-4.7023
X7.8104Y-4.7663
X7.8169Y-3.5211
X7.8169Y-3.5851
X7.8514Y-5.2928
X7.8514Y-5.3568
X7.8619Y-4.7023
X7.8619Y-4.7663
X7.869Y-3.5211
X7.869Y-3.5851
X7.902Y-5.2928
X7.902Y-5.3568
X7.9094Y-6.4641
X7.9094Y-6.5281
X7.9134Y-4.7663
X7.9135Y-4.7023
X7.9211Y-3.5211
X7.9211Y-3.5851
X7.9526Y-5.2928
X7.9526Y-5.3568
X7.9589Y-5.8735
X7.9589Y-5.9375
X7.9606Y-6.4641
X7.9606Y-6.5281
X7.965Y-4.7023
X7.965Y-4.7339
X7.965Y-4.7661
X7.9732Y-3.5211
X7.9732Y-3.5851
X8.0032Y-5.2928
X8.0032Y-5.3568
X8.0098Y-5.8735
X8.0098Y-5.9375
X8.0118Y-6.4641
X8.0118Y-6.5281
X8.0252Y-3.5211
X8.0252Y-3.5851
X8.0538Y-5.2928
X8.0538Y-5.3568
X8.0608Y-5.8735
X8.0608Y-5.9375
X8.063Y-6.4641
X8.063Y-6.5281
X8.0773Y-3.5211
X8.0773Y-3.5851
X8.1044Y-5.2928
X8.1044Y-5.3568
X8.1117Y-5.8735
X8.1117Y-5.9375
X8.1142Y-6.4641
X8.1142Y-6.5281
X8.1294Y-3.5211
X8.1294Y-3.5851
X8.155Y-5.2928
X8.155Y-5.3568
X8.1626Y-5.8735
X8.1626Y-5.9375
X8.1654Y-6.4641
X8.1654Y-6.5281
X8.1815Y-3.5211
X8.1815Y-3.5851
X8.2056Y-5.2928
X8.2056Y-5.3568
X8.2135Y-5.8735
X8.2135Y-5.9375
X8.2165Y-6.4641
X8.2165Y-6.5281
X8.2335Y-3.5211
X8.2335Y-3.5851
X8.2563Y-5.2928
X8.2563Y-5.3568
X8.2645Y-5.8735
X8.2645Y-5.9375
X8.2677Y-6.4641
X8.2677Y-6.5281
X8.2856Y-3.5211
X8.2856Y-3.5851
X8.3069Y-5.2928
X8.3069Y-5.3568
X8.3154Y-5.8735
X8.3154Y-5.9375
X8.3189Y-6.4641
X8.3189Y-6.5281
X8.3377Y-3.5211
X8.3377Y-3.5851
X8.3575Y-5.2928
X8.3575Y-5.3568
X8.3663Y-5.8735
X8.3663Y-5.9375
X8.3701Y-6.4641
X8.3701Y-6.5281
X8.3898Y-3.5211
X8.3898Y-3.5851
X8.4081Y-5.2928
X8.4081Y-5.3568
X8.4173Y-5.8735
X8.4173Y-5.9375
X8.4213Y-6.4641
X8.4213Y-6.5281
X8.4587Y-5.2928
X8.4587Y-5.3568
X8.4682Y-5.8735
X8.4682Y-5.9375
X8.5093Y-5.2928
X8.5093Y-5.3568
X8.5599Y-5.2928
X8.5599Y-5.3568
X8.6105Y-5.2928
X8.6105Y-5.3568
X8.6611Y-5.2928
X8.6611Y-5.3568
X8.7117Y-5.2928
X8.7117Y-5.3568
X8.7623Y-5.2928
X8.7623Y-5.3568
X8.8129Y-5.2928
X8.8129Y-5.3568
X8.8635Y-5.2928
X8.8635Y-5.3568
X8.9142Y-5.2928
X8.9142Y-5.3568
X8.9648Y-5.2928
X8.9648Y-5.3568
X9.0154Y-5.2928
X9.0154Y-5.3568
X9.066Y-5.2928
X9.066Y-5.3568
X9.1166Y-5.2928
X9.1166Y-5.3568
X9.1672Y-5.2928
X9.1672Y-5.3568
X9.2178Y-5.2928
X9.2178Y-5.3568
X9.2684Y-5.2928
X9.2684Y-5.3568
X9.319Y-5.2928
X9.319Y-5.3568
X9.3696Y-5.2928
X9.3696Y-5.3568
X9.4202Y-5.2928
X9.4202Y-5.3568
X9.4708Y-5.2928
X9.4708Y-5.3568
X9.5214Y-5.2928
X9.5214Y-5.3568
X9.5374Y-4.7346
X9.5721Y-5.2928
X9.5721Y-5.3568
X9.5768Y-4.7023
X9.5768Y-4.7663
X9.6227Y-5.2928
X9.6227Y-5.3568
X9.627Y-4.7023
X9.627Y-4.7663
X9.6624Y-4.1117
X9.6624Y-4.1757
X9.6733Y-5.2928
X9.6733Y-5.3568
X9.6772Y-4.7023
X9.6772Y-4.7663
X9.7141Y-4.1117
X9.7141Y-4.1757
X9.7239Y-5.2928
X9.7239Y-5.3568
X9.7274Y-4.7023
X9.7274Y-4.7663
X9.7658Y-4.1117
X9.7658Y-4.1757
X9.7745Y-5.2928
X9.7745Y-5.3568
X9.7776Y-4.7023
X9.7776Y-4.7663
X9.8175Y-4.1117
X9.8175Y-4.1757
X9.8251Y-5.2928
X9.8251Y-5.3568
X9.8278Y-4.7023
X9.8278Y-4.7663
X9.8692Y-4.1117
X9.8692Y-4.1757
X9.8757Y-5.2928
X9.8757Y-5.3568
X9.8781Y-4.7023
X9.8781Y-4.7663
X9.9209Y-4.1117
X9.9209Y-4.1757
X9.9263Y-5.2928
X9.9263Y-5.3568
X9.9283Y-4.7023
X9.9283Y-4.7663
X9.9726Y-4.1117
X9.9726Y-4.1757
X9.9769Y-5.2928
X9.9769Y-5.3568
X9.9785Y-4.7023
X9.9785Y-4.7663
X10.0243Y-4.1117
X10.0243Y-4.1757
X10.0275Y-5.2928
X10.0275Y-5.3568
X10.0287Y-4.7023
X10.0287Y-4.7663
X10.076Y-4.1117
X10.076Y-4.1757
X10.0781Y-5.2928
X10.0781Y-5.3568
X10.0789Y-4.7023
X10.0789Y-4.7663
X10.1277Y-4.1117
X10.1277Y-4.1757
X10.1287Y-5.2928
X10.1287Y-5.3568
X10.1291Y-4.7023
X10.1291Y-4.7663
T0
M30
