G04 #@! TF.GenerationSoftware,KiCad,Pcbnew,(5.1.5)-2*
G04 #@! TF.CreationDate,2020-02-16T11:04:41+01:00*
G04 #@! TF.ProjectId,OSHPark_4Layers_trl-board_v0_1,4f534850-6172-46b5-9f34-4c6179657273,rev?*
G04 #@! TF.SameCoordinates,Original*
G04 #@! TF.FileFunction,Profile,NP*
%FSLAX46Y46*%
G04 Gerber Fmt 4.6, Leading zero omitted, Abs format (unit mm)*
G04 Created by KiCad (PCBNEW (5.1.5)-2) date 2020-02-16 11:04:41*
%MOMM*%
%LPD*%
G04 APERTURE LIST*
%ADD10C,0.150000*%
G04 APERTURE END LIST*
D10*
X216830000Y-143129998D02*
G75*
G02X217440000Y-142500000I619999J9999D01*
G01*
X214630000Y-97750000D02*
G75*
G02X214000002Y-97140000I-9999J619999D01*
G01*
X183630000Y-172000000D02*
G75*
G02X183000002Y-171390000I-9999J619999D01*
G01*
X215399999Y-171370001D02*
G75*
G02X214789999Y-171999999I-619999J-9999D01*
G01*
X215400000Y-158130000D02*
G75*
G02X216010000Y-157500002I619999J9999D01*
G01*
X216830000Y-156870000D02*
G75*
G02X216220000Y-157499998I-619999J-9999D01*
G01*
X259000000Y-141870002D02*
G75*
G02X258390000Y-142500000I-619999J-9999D01*
G01*
X258370002Y-97750000D02*
G75*
G02X259000000Y-98360000I9999J-619999D01*
G01*
X213370000Y-83250000D02*
G75*
G02X213999998Y-83860000I9999J-619999D01*
G01*
X183000000Y-83879998D02*
G75*
G02X183610000Y-83250000I619999J9999D01*
G01*
X258390000Y-142500000D02*
X217440000Y-142500000D01*
X259000000Y-98360000D02*
X259000000Y-141870002D01*
X214630000Y-97750000D02*
X258370002Y-97750000D01*
X213999998Y-83860000D02*
X214000002Y-97140000D01*
X183610000Y-83250000D02*
X213370000Y-83250000D01*
X216830000Y-156870000D02*
X216830000Y-143129998D01*
X216010000Y-157500002D02*
X216220000Y-157499998D01*
X215399999Y-171370001D02*
X215400000Y-158130000D01*
X183630000Y-172000000D02*
X214789999Y-171999999D01*
X183000000Y-83879998D02*
X183000002Y-171390000D01*
M02*
