G04 #@! TF.GenerationSoftware,KiCad,Pcbnew,(5.1.5)-2*
G04 #@! TF.CreationDate,2020-02-16T11:04:41+01:00*
G04 #@! TF.ProjectId,OSHPark_4Layers_trl-board_v0_1,4f534850-6172-46b5-9f34-4c6179657273,rev?*
G04 #@! TF.SameCoordinates,Original*
G04 #@! TF.FileFunction,Copper,L2,Inr*
G04 #@! TF.FilePolarity,Positive*
%FSLAX46Y46*%
G04 Gerber Fmt 4.6, Leading zero omitted, Abs format (unit mm)*
G04 Created by KiCad (PCBNEW (5.1.5)-2) date 2020-02-16 11:04:41*
%MOMM*%
%LPD*%
G04 APERTURE LIST*
%ADD10C,0.762000*%
%ADD11C,0.600000*%
%ADD12C,0.152400*%
G04 APERTURE END LIST*
D10*
X185300000Y-165812800D03*
X186600000Y-165812800D03*
X187900000Y-165812800D03*
X189200000Y-165812800D03*
X190500000Y-165812800D03*
X191800000Y-165812800D03*
X193100000Y-165812800D03*
X194400000Y-165812800D03*
X195700000Y-165812800D03*
X197000000Y-165812800D03*
X200900000Y-165812800D03*
X202200000Y-165812800D03*
X203500000Y-165812800D03*
X204800000Y-165812800D03*
X206100000Y-165812800D03*
X207400000Y-165812800D03*
X208700000Y-165812800D03*
X210000000Y-165812800D03*
X211300000Y-165812800D03*
X212600000Y-165812800D03*
X184000000Y-165812800D03*
X213900000Y-165812800D03*
X212600000Y-164187200D03*
X211300000Y-164187200D03*
X210000000Y-164187200D03*
X208700000Y-164187200D03*
X207400000Y-164187200D03*
X206100000Y-164187200D03*
X204800000Y-164187200D03*
X203500000Y-164187200D03*
X202200000Y-164187200D03*
X200900000Y-164187200D03*
X197000000Y-164187200D03*
X195700000Y-164187200D03*
X194400000Y-164187200D03*
X193100000Y-164187200D03*
X191800000Y-164187200D03*
X190500000Y-164187200D03*
X189200000Y-164187200D03*
X187900000Y-164187200D03*
X186600000Y-164187200D03*
X185300000Y-164187200D03*
X213900000Y-164187200D03*
X184000000Y-164187200D03*
X185362500Y-150812800D03*
X186725000Y-150812800D03*
X188087500Y-150812800D03*
X189450000Y-150812800D03*
X190812500Y-150812800D03*
X192175000Y-150812800D03*
X193537500Y-150812800D03*
X194900000Y-150812800D03*
X196262500Y-150812800D03*
X197625000Y-150812800D03*
X184000000Y-150812800D03*
X197625000Y-149187200D03*
X196262500Y-149187200D03*
X194900000Y-149187200D03*
X193537500Y-149187200D03*
X192175000Y-149187200D03*
X190812500Y-149187200D03*
X189450000Y-149187200D03*
X188087500Y-149187200D03*
X186725000Y-149187200D03*
X185362500Y-149187200D03*
X184000000Y-149187200D03*
X202156083Y-150812800D03*
X203449666Y-150812800D03*
X204743250Y-150812800D03*
X206036833Y-150812800D03*
X207330416Y-150812800D03*
X208624000Y-150812800D03*
X209917583Y-150812800D03*
X211211166Y-150812800D03*
X212504750Y-150812800D03*
X213798333Y-150812800D03*
X215091916Y-150812800D03*
X215091916Y-149187200D03*
X213798333Y-149187200D03*
X212504750Y-149187200D03*
X211211166Y-149187200D03*
X209917583Y-149187200D03*
X208624000Y-149187200D03*
X207330416Y-149187200D03*
X206036833Y-149187200D03*
X204743250Y-149187200D03*
X203449666Y-149187200D03*
X202156083Y-149187200D03*
X185285439Y-136062800D03*
X186570879Y-136062800D03*
X187856318Y-136062800D03*
X189141758Y-136062800D03*
X190427198Y-136062800D03*
X191712637Y-136062800D03*
X192998077Y-136062800D03*
X194283517Y-136062800D03*
X195568956Y-136062800D03*
X196854396Y-136062800D03*
X198139836Y-136062800D03*
X199425275Y-136062800D03*
X200710715Y-136062800D03*
X201996155Y-136062800D03*
X203281594Y-136062800D03*
X204567034Y-136062800D03*
X205852474Y-136062800D03*
X207137913Y-136062800D03*
X208423353Y-136062800D03*
X209708793Y-136062800D03*
X210994232Y-136062800D03*
X212279672Y-136062800D03*
X213565112Y-136062800D03*
X214850551Y-136062800D03*
X216135991Y-136062800D03*
X217421431Y-136062800D03*
X218706870Y-136062800D03*
X219992310Y-136062800D03*
X221277750Y-136062800D03*
X222563189Y-136062800D03*
X223848629Y-136062800D03*
X225134068Y-136062800D03*
X226419508Y-136062800D03*
X227704948Y-136062800D03*
X228990387Y-136062800D03*
X230275827Y-136062800D03*
X231561267Y-136062800D03*
X232846706Y-136062800D03*
X234132146Y-136062800D03*
X235417586Y-136062800D03*
X236703025Y-136062800D03*
X237988465Y-136062800D03*
X239273905Y-136062800D03*
X240559344Y-136062800D03*
X241844784Y-136062800D03*
X243130224Y-136062800D03*
X244415663Y-136062800D03*
X245701103Y-136062800D03*
X246986543Y-136062800D03*
X248271982Y-136062800D03*
X249557422Y-136062800D03*
X250842862Y-136062800D03*
X252128301Y-136062800D03*
X253413741Y-136062800D03*
X254699181Y-136062800D03*
X255984620Y-136062800D03*
X257270060Y-136062800D03*
X184000000Y-136062800D03*
X257270060Y-134437200D03*
X255984620Y-134437200D03*
X254699181Y-134437200D03*
X253413741Y-134437200D03*
X252128301Y-134437200D03*
X250842862Y-134437200D03*
X249557422Y-134437200D03*
X248271982Y-134437200D03*
X246986543Y-134437200D03*
X245701103Y-134437200D03*
X244415663Y-134437200D03*
X243130224Y-134437200D03*
X241844784Y-134437200D03*
X240559344Y-134437200D03*
X239273905Y-134437200D03*
X237988465Y-134437200D03*
X236703025Y-134437200D03*
X235417586Y-134437200D03*
X234132146Y-134437200D03*
X232846706Y-134437200D03*
X231561267Y-134437200D03*
X230275827Y-134437200D03*
X228990387Y-134437200D03*
X227704948Y-134437200D03*
X226419508Y-134437200D03*
X225134068Y-134437200D03*
X223848629Y-134437200D03*
X222563189Y-134437200D03*
X221277750Y-134437200D03*
X219992310Y-134437200D03*
X218706870Y-134437200D03*
X217421431Y-134437200D03*
X216135991Y-134437200D03*
X214850551Y-134437200D03*
X213565112Y-134437200D03*
X212279672Y-134437200D03*
X210994232Y-134437200D03*
X209708793Y-134437200D03*
X208423353Y-134437200D03*
X207137913Y-134437200D03*
X205852474Y-134437200D03*
X204567034Y-134437200D03*
X203281594Y-134437200D03*
X201996155Y-134437200D03*
X200710715Y-134437200D03*
X199425275Y-134437200D03*
X198139836Y-134437200D03*
X196854396Y-134437200D03*
X195568956Y-134437200D03*
X194283517Y-134437200D03*
X192998077Y-134437200D03*
X191712637Y-134437200D03*
X190427198Y-134437200D03*
X189141758Y-134437200D03*
X187856318Y-134437200D03*
X186570879Y-134437200D03*
X185285439Y-134437200D03*
X184000000Y-134437200D03*
X245425916Y-106062800D03*
X246738875Y-106062800D03*
X248051833Y-106062800D03*
X249364791Y-106062800D03*
X250677750Y-106062800D03*
X251990708Y-106062800D03*
X253303666Y-106062800D03*
X254616625Y-106062800D03*
X255929583Y-106062800D03*
X257242541Y-106062800D03*
X257242541Y-104437200D03*
X255929583Y-104437200D03*
X254616625Y-104437200D03*
X253303666Y-104437200D03*
X251990708Y-104437200D03*
X250677750Y-104437200D03*
X249364791Y-104437200D03*
X248051833Y-104437200D03*
X246738875Y-104437200D03*
X245425916Y-104437200D03*
X244525458Y-121062800D03*
X245800916Y-121062800D03*
X247076375Y-121062800D03*
X248351833Y-121062800D03*
X249627291Y-121062800D03*
X250902750Y-121062800D03*
X252178208Y-121062800D03*
X253453666Y-121062800D03*
X254729125Y-121062800D03*
X256004583Y-121062800D03*
X257280041Y-121062800D03*
X243250000Y-121062800D03*
X257280041Y-119437200D03*
X256004583Y-119437200D03*
X254729125Y-119437200D03*
X253453666Y-119437200D03*
X252178208Y-119437200D03*
X250902750Y-119437200D03*
X249627291Y-119437200D03*
X248351833Y-119437200D03*
X247076375Y-119437200D03*
X245800916Y-119437200D03*
X244525458Y-119437200D03*
X243250000Y-119437200D03*
X185307692Y-121062800D03*
X186615384Y-121062800D03*
X187923076Y-121062800D03*
X189230769Y-121062800D03*
X190538461Y-121062800D03*
X191846153Y-121062800D03*
X193153846Y-121062800D03*
X194461538Y-121062800D03*
X195769230Y-121062800D03*
X197076923Y-121062800D03*
X198384615Y-121062800D03*
X199692307Y-121062800D03*
X184000000Y-121062800D03*
X201000000Y-121062800D03*
X199692307Y-119437200D03*
X198384615Y-119437200D03*
X197076923Y-119437200D03*
X195769230Y-119437200D03*
X194461538Y-119437200D03*
X193153846Y-119437200D03*
X191846153Y-119437200D03*
X190538461Y-119437200D03*
X189230769Y-119437200D03*
X187923076Y-119437200D03*
X186615384Y-119437200D03*
X185307692Y-119437200D03*
X184000000Y-119437200D03*
X185318181Y-106062800D03*
X186636363Y-106062800D03*
X187954545Y-106062800D03*
X189272727Y-106062800D03*
X190590909Y-106062800D03*
X191909090Y-106062800D03*
X193227272Y-106062800D03*
X194545454Y-106062800D03*
X195863636Y-106062800D03*
X197181818Y-106062800D03*
X184000000Y-106062800D03*
X197181818Y-104437200D03*
X195863636Y-104437200D03*
X194545454Y-104437200D03*
X193227272Y-104437200D03*
X191909090Y-104437200D03*
X190590909Y-104437200D03*
X189272727Y-104437200D03*
X187954545Y-104437200D03*
X186636363Y-104437200D03*
X185318181Y-104437200D03*
X184000000Y-104437200D03*
X185322727Y-91062800D03*
X186645454Y-91062800D03*
X187968181Y-91062800D03*
X189290909Y-91062800D03*
X190613636Y-91062800D03*
X191936363Y-91062800D03*
X193259090Y-91062800D03*
X194581818Y-91062800D03*
X195904545Y-91062800D03*
X197227272Y-91062800D03*
X198550000Y-91062800D03*
X199872727Y-91062800D03*
X201195454Y-91062800D03*
X202518181Y-91062800D03*
X203840909Y-91062800D03*
X205163636Y-91062800D03*
X206486363Y-91062800D03*
X207809090Y-91062800D03*
X209131818Y-91062800D03*
X210454545Y-91062800D03*
X211777272Y-91062800D03*
X184000000Y-91062800D03*
X213100000Y-91062800D03*
X211777272Y-89437200D03*
X210454545Y-89437200D03*
X209131818Y-89437200D03*
X207809090Y-89437200D03*
X206486363Y-89437200D03*
X205163636Y-89437200D03*
X203840909Y-89437200D03*
X202518181Y-89437200D03*
X201195454Y-89437200D03*
X199872727Y-89437200D03*
X198550000Y-89437200D03*
X197227272Y-89437200D03*
X195904545Y-89437200D03*
X194581818Y-89437200D03*
X193259090Y-89437200D03*
X191936363Y-89437200D03*
X190613636Y-89437200D03*
X189290909Y-89437200D03*
X187968181Y-89437200D03*
X186645454Y-89437200D03*
X185322727Y-89437200D03*
X213100000Y-89437200D03*
X184000000Y-89437200D03*
D11*
X197250000Y-102750000D03*
X197250000Y-101500000D03*
X198500000Y-101500000D03*
X199750000Y-101500000D03*
X201000000Y-101500000D03*
X202250000Y-106500000D03*
X202250000Y-105250000D03*
X202250000Y-104000000D03*
X202250000Y-102750000D03*
X202250000Y-101500000D03*
X244750000Y-102750000D03*
X244750000Y-101500000D03*
X242250000Y-101500000D03*
X243500000Y-101500000D03*
X241000000Y-101500000D03*
X242250000Y-109000000D03*
X241000000Y-109000000D03*
X243500000Y-109000000D03*
X244750000Y-109000000D03*
X244750000Y-107750000D03*
X197250000Y-147500000D03*
X198500000Y-147500000D03*
X199750000Y-147500000D03*
X201000000Y-147500000D03*
X202250000Y-147500000D03*
X197250000Y-152500000D03*
X199750000Y-152500000D03*
X198500000Y-152500000D03*
X202250000Y-152500000D03*
X201000000Y-152500000D03*
X197250000Y-167500000D03*
X197250000Y-168750000D03*
X198500000Y-168750000D03*
X199750000Y-168750000D03*
X201000000Y-168750000D03*
X201000000Y-167500000D03*
X202250000Y-107750000D03*
X202250000Y-109000000D03*
X198500000Y-109000000D03*
X201000000Y-109000000D03*
X199750000Y-109000000D03*
X197250000Y-109000000D03*
X197250000Y-107750000D03*
D10*
X202310000Y-121060000D03*
X202310000Y-120240000D03*
X201002307Y-119437200D03*
X202310000Y-119437200D03*
D11*
X197010000Y-163140000D03*
X198260000Y-163140000D03*
X199510000Y-163140000D03*
X200760000Y-163140000D03*
D10*
X242250000Y-120260000D03*
D11*
X239750000Y-107750000D03*
X239750000Y-109000000D03*
X239750000Y-106500000D03*
X239750000Y-105250000D03*
X239750000Y-104000000D03*
X239750000Y-102750000D03*
X239750000Y-101500000D03*
X197250000Y-148350000D03*
X202250000Y-148350000D03*
X197250000Y-151670000D03*
X202250000Y-151670000D03*
D12*
G36*
X213436193Y-83560028D02*
G01*
X213495334Y-83576848D01*
X213550078Y-83604833D01*
X213598344Y-83642918D01*
X213638289Y-83689648D01*
X213668400Y-83743252D01*
X213687527Y-83801687D01*
X213696398Y-83874740D01*
X213696403Y-97154904D01*
X213698186Y-97173007D01*
X213698220Y-97176716D01*
X213698701Y-97180928D01*
X213700105Y-97192487D01*
X213700797Y-97199516D01*
X213701066Y-97200403D01*
X213713290Y-97301064D01*
X213719258Y-97327931D01*
X213724849Y-97354869D01*
X213726139Y-97358907D01*
X213763785Y-97473921D01*
X213774860Y-97499122D01*
X213785573Y-97524454D01*
X213787623Y-97528164D01*
X213846892Y-97633676D01*
X213862631Y-97656218D01*
X213878081Y-97679017D01*
X213880809Y-97682253D01*
X213880813Y-97682259D01*
X213880818Y-97682264D01*
X213959446Y-97774248D01*
X213979276Y-97793315D01*
X213998849Y-97812668D01*
X214002152Y-97815312D01*
X214002157Y-97815317D01*
X214002162Y-97815320D01*
X214097162Y-97890282D01*
X214120343Y-97905150D01*
X214143276Y-97920315D01*
X214147037Y-97922272D01*
X214254792Y-97977356D01*
X214280437Y-97987445D01*
X214305862Y-97997860D01*
X214309931Y-97999049D01*
X214426333Y-98032154D01*
X214453419Y-98037065D01*
X214480411Y-98042348D01*
X214484626Y-98042722D01*
X214484635Y-98042724D01*
X214484644Y-98042724D01*
X214602786Y-98052387D01*
X214615096Y-98053600D01*
X258357611Y-98053600D01*
X258436195Y-98060028D01*
X258495336Y-98076848D01*
X258550080Y-98104833D01*
X258598346Y-98142918D01*
X258638291Y-98189648D01*
X258668402Y-98243252D01*
X258687529Y-98301687D01*
X258696400Y-98374740D01*
X258696401Y-141857599D01*
X258689972Y-141936195D01*
X258673152Y-141995336D01*
X258645167Y-142050080D01*
X258607082Y-142098346D01*
X258560353Y-142138290D01*
X258506745Y-142168403D01*
X258448312Y-142187529D01*
X258375260Y-142196400D01*
X217425096Y-142196400D01*
X217406982Y-142198184D01*
X217403285Y-142198218D01*
X217399073Y-142198699D01*
X217387562Y-142200097D01*
X217380484Y-142200794D01*
X217379591Y-142201065D01*
X217278936Y-142213288D01*
X217252076Y-142219255D01*
X217225131Y-142224847D01*
X217221093Y-142226137D01*
X217106079Y-142263783D01*
X217080920Y-142274840D01*
X217055547Y-142285571D01*
X217051836Y-142287621D01*
X216946324Y-142346889D01*
X216923754Y-142362648D01*
X216900984Y-142378079D01*
X216897742Y-142380811D01*
X216805752Y-142459444D01*
X216786666Y-142479294D01*
X216767333Y-142498847D01*
X216764688Y-142502150D01*
X216764683Y-142502155D01*
X216764680Y-142502160D01*
X216689718Y-142597160D01*
X216674840Y-142620356D01*
X216659685Y-142643274D01*
X216657728Y-142647035D01*
X216602644Y-142754790D01*
X216592555Y-142780435D01*
X216582140Y-142805860D01*
X216580951Y-142809929D01*
X216547846Y-142926331D01*
X216542930Y-142953449D01*
X216537652Y-142980409D01*
X216537278Y-142984624D01*
X216537276Y-142984633D01*
X216537276Y-142984642D01*
X216527608Y-143102843D01*
X216526401Y-143115094D01*
X216526400Y-156857609D01*
X216519972Y-156936193D01*
X216503152Y-156995334D01*
X216475167Y-157050078D01*
X216437082Y-157098344D01*
X216390353Y-157138288D01*
X216336745Y-157168401D01*
X216278312Y-157187527D01*
X216205255Y-157196399D01*
X215995091Y-157196403D01*
X215976992Y-157198186D01*
X215973285Y-157198220D01*
X215969073Y-157198701D01*
X215957503Y-157200106D01*
X215950479Y-157200798D01*
X215949594Y-157201066D01*
X215848936Y-157213290D01*
X215822076Y-157219257D01*
X215795131Y-157224849D01*
X215791093Y-157226139D01*
X215676079Y-157263785D01*
X215650920Y-157274842D01*
X215625547Y-157285573D01*
X215621836Y-157287623D01*
X215516324Y-157346891D01*
X215493754Y-157362650D01*
X215470984Y-157378081D01*
X215467742Y-157380813D01*
X215375752Y-157459446D01*
X215356666Y-157479296D01*
X215337333Y-157498849D01*
X215334688Y-157502152D01*
X215334683Y-157502157D01*
X215334680Y-157502162D01*
X215259718Y-157597162D01*
X215244840Y-157620358D01*
X215229685Y-157643276D01*
X215227728Y-157647037D01*
X215172644Y-157754792D01*
X215162555Y-157780437D01*
X215152140Y-157805862D01*
X215150951Y-157809931D01*
X215117846Y-157926333D01*
X215112930Y-157953451D01*
X215107652Y-157980411D01*
X215107278Y-157984626D01*
X215107276Y-157984635D01*
X215107276Y-157984644D01*
X215097608Y-158102845D01*
X215096401Y-158115096D01*
X215096399Y-171357610D01*
X215089971Y-171436194D01*
X215073151Y-171495335D01*
X215045166Y-171550079D01*
X215007081Y-171598345D01*
X214960352Y-171638289D01*
X214906744Y-171668402D01*
X214848311Y-171687528D01*
X214775259Y-171696399D01*
X183642403Y-171696401D01*
X183563807Y-171689972D01*
X183504666Y-171673152D01*
X183449922Y-171645167D01*
X183401656Y-171607082D01*
X183361712Y-171560353D01*
X183331599Y-171506744D01*
X183312473Y-171448312D01*
X183303602Y-171375260D01*
X183303599Y-83892401D01*
X183310028Y-83813805D01*
X183326848Y-83754664D01*
X183354833Y-83699920D01*
X183392918Y-83651654D01*
X183439648Y-83611709D01*
X183493252Y-83581598D01*
X183551687Y-83562471D01*
X183624740Y-83553600D01*
X213357609Y-83553600D01*
X213436193Y-83560028D01*
G37*
X213436193Y-83560028D02*
X213495334Y-83576848D01*
X213550078Y-83604833D01*
X213598344Y-83642918D01*
X213638289Y-83689648D01*
X213668400Y-83743252D01*
X213687527Y-83801687D01*
X213696398Y-83874740D01*
X213696403Y-97154904D01*
X213698186Y-97173007D01*
X213698220Y-97176716D01*
X213698701Y-97180928D01*
X213700105Y-97192487D01*
X213700797Y-97199516D01*
X213701066Y-97200403D01*
X213713290Y-97301064D01*
X213719258Y-97327931D01*
X213724849Y-97354869D01*
X213726139Y-97358907D01*
X213763785Y-97473921D01*
X213774860Y-97499122D01*
X213785573Y-97524454D01*
X213787623Y-97528164D01*
X213846892Y-97633676D01*
X213862631Y-97656218D01*
X213878081Y-97679017D01*
X213880809Y-97682253D01*
X213880813Y-97682259D01*
X213880818Y-97682264D01*
X213959446Y-97774248D01*
X213979276Y-97793315D01*
X213998849Y-97812668D01*
X214002152Y-97815312D01*
X214002157Y-97815317D01*
X214002162Y-97815320D01*
X214097162Y-97890282D01*
X214120343Y-97905150D01*
X214143276Y-97920315D01*
X214147037Y-97922272D01*
X214254792Y-97977356D01*
X214280437Y-97987445D01*
X214305862Y-97997860D01*
X214309931Y-97999049D01*
X214426333Y-98032154D01*
X214453419Y-98037065D01*
X214480411Y-98042348D01*
X214484626Y-98042722D01*
X214484635Y-98042724D01*
X214484644Y-98042724D01*
X214602786Y-98052387D01*
X214615096Y-98053600D01*
X258357611Y-98053600D01*
X258436195Y-98060028D01*
X258495336Y-98076848D01*
X258550080Y-98104833D01*
X258598346Y-98142918D01*
X258638291Y-98189648D01*
X258668402Y-98243252D01*
X258687529Y-98301687D01*
X258696400Y-98374740D01*
X258696401Y-141857599D01*
X258689972Y-141936195D01*
X258673152Y-141995336D01*
X258645167Y-142050080D01*
X258607082Y-142098346D01*
X258560353Y-142138290D01*
X258506745Y-142168403D01*
X258448312Y-142187529D01*
X258375260Y-142196400D01*
X217425096Y-142196400D01*
X217406982Y-142198184D01*
X217403285Y-142198218D01*
X217399073Y-142198699D01*
X217387562Y-142200097D01*
X217380484Y-142200794D01*
X217379591Y-142201065D01*
X217278936Y-142213288D01*
X217252076Y-142219255D01*
X217225131Y-142224847D01*
X217221093Y-142226137D01*
X217106079Y-142263783D01*
X217080920Y-142274840D01*
X217055547Y-142285571D01*
X217051836Y-142287621D01*
X216946324Y-142346889D01*
X216923754Y-142362648D01*
X216900984Y-142378079D01*
X216897742Y-142380811D01*
X216805752Y-142459444D01*
X216786666Y-142479294D01*
X216767333Y-142498847D01*
X216764688Y-142502150D01*
X216764683Y-142502155D01*
X216764680Y-142502160D01*
X216689718Y-142597160D01*
X216674840Y-142620356D01*
X216659685Y-142643274D01*
X216657728Y-142647035D01*
X216602644Y-142754790D01*
X216592555Y-142780435D01*
X216582140Y-142805860D01*
X216580951Y-142809929D01*
X216547846Y-142926331D01*
X216542930Y-142953449D01*
X216537652Y-142980409D01*
X216537278Y-142984624D01*
X216537276Y-142984633D01*
X216537276Y-142984642D01*
X216527608Y-143102843D01*
X216526401Y-143115094D01*
X216526400Y-156857609D01*
X216519972Y-156936193D01*
X216503152Y-156995334D01*
X216475167Y-157050078D01*
X216437082Y-157098344D01*
X216390353Y-157138288D01*
X216336745Y-157168401D01*
X216278312Y-157187527D01*
X216205255Y-157196399D01*
X215995091Y-157196403D01*
X215976992Y-157198186D01*
X215973285Y-157198220D01*
X215969073Y-157198701D01*
X215957503Y-157200106D01*
X215950479Y-157200798D01*
X215949594Y-157201066D01*
X215848936Y-157213290D01*
X215822076Y-157219257D01*
X215795131Y-157224849D01*
X215791093Y-157226139D01*
X215676079Y-157263785D01*
X215650920Y-157274842D01*
X215625547Y-157285573D01*
X215621836Y-157287623D01*
X215516324Y-157346891D01*
X215493754Y-157362650D01*
X215470984Y-157378081D01*
X215467742Y-157380813D01*
X215375752Y-157459446D01*
X215356666Y-157479296D01*
X215337333Y-157498849D01*
X215334688Y-157502152D01*
X215334683Y-157502157D01*
X215334680Y-157502162D01*
X215259718Y-157597162D01*
X215244840Y-157620358D01*
X215229685Y-157643276D01*
X215227728Y-157647037D01*
X215172644Y-157754792D01*
X215162555Y-157780437D01*
X215152140Y-157805862D01*
X215150951Y-157809931D01*
X215117846Y-157926333D01*
X215112930Y-157953451D01*
X215107652Y-157980411D01*
X215107278Y-157984626D01*
X215107276Y-157984635D01*
X215107276Y-157984644D01*
X215097608Y-158102845D01*
X215096401Y-158115096D01*
X215096399Y-171357610D01*
X215089971Y-171436194D01*
X215073151Y-171495335D01*
X215045166Y-171550079D01*
X215007081Y-171598345D01*
X214960352Y-171638289D01*
X214906744Y-171668402D01*
X214848311Y-171687528D01*
X214775259Y-171696399D01*
X183642403Y-171696401D01*
X183563807Y-171689972D01*
X183504666Y-171673152D01*
X183449922Y-171645167D01*
X183401656Y-171607082D01*
X183361712Y-171560353D01*
X183331599Y-171506744D01*
X183312473Y-171448312D01*
X183303602Y-171375260D01*
X183303599Y-83892401D01*
X183310028Y-83813805D01*
X183326848Y-83754664D01*
X183354833Y-83699920D01*
X183392918Y-83651654D01*
X183439648Y-83611709D01*
X183493252Y-83581598D01*
X183551687Y-83562471D01*
X183624740Y-83553600D01*
X213357609Y-83553600D01*
X213436193Y-83560028D01*
M02*
