G04 #@! TF.GenerationSoftware,KiCad,Pcbnew,(5.1.5)-2*
G04 #@! TF.CreationDate,2020-02-16T11:04:41+01:00*
G04 #@! TF.ProjectId,OSHPark_4Layers_trl-board_v0_1,4f534850-6172-46b5-9f34-4c6179657273,rev?*
G04 #@! TF.SameCoordinates,Original*
G04 #@! TF.FileFunction,Paste,Top*
G04 #@! TF.FilePolarity,Positive*
%FSLAX46Y46*%
G04 Gerber Fmt 4.6, Leading zero omitted, Abs format (unit mm)*
G04 Created by KiCad (PCBNEW (5.1.5)-2) date 2020-02-16 11:04:41*
%MOMM*%
%LPD*%
G04 APERTURE LIST*
%ADD10R,0.889000X0.406400*%
%ADD11R,5.537200X3.225800*%
%ADD12C,0.152400*%
G04 APERTURE END LIST*
D10*
X214955500Y-165000000D03*
D11*
X212631400Y-167463800D03*
X212631400Y-162536200D03*
D10*
X183444500Y-165000000D03*
D11*
X185768600Y-162536200D03*
X185768600Y-167463800D03*
D10*
X216385500Y-150000000D03*
D11*
X214061400Y-152463800D03*
X214061400Y-147536200D03*
D10*
X183444500Y-150000000D03*
D11*
X185768600Y-147536200D03*
X185768600Y-152463800D03*
D10*
X258555500Y-135250000D03*
D11*
X256231400Y-137713800D03*
X256231400Y-132786200D03*
D10*
X183444500Y-135250000D03*
D11*
X185768600Y-132786200D03*
X185768600Y-137713800D03*
D10*
X258555500Y-120250000D03*
D11*
X256231400Y-122713800D03*
X256231400Y-117786200D03*
D10*
X183444500Y-120250000D03*
D11*
X185768600Y-117786200D03*
X185768600Y-122713800D03*
D10*
X258555500Y-105250000D03*
D11*
X256231400Y-107713800D03*
X256231400Y-102786200D03*
D10*
X183444500Y-105250000D03*
D11*
X185768600Y-102786200D03*
X185768600Y-107713800D03*
D10*
X213555500Y-90250000D03*
D11*
X211231400Y-92713800D03*
X211231400Y-87786200D03*
D10*
X183444500Y-90250000D03*
D11*
X185768600Y-87786200D03*
X185768600Y-92713800D03*
D12*
G36*
X199255142Y-149301174D02*
G01*
X199278803Y-149304684D01*
X199302007Y-149310496D01*
X199324529Y-149318554D01*
X199346153Y-149328782D01*
X199366670Y-149341079D01*
X199385883Y-149355329D01*
X199403607Y-149371393D01*
X199419671Y-149389117D01*
X199433921Y-149408330D01*
X199446218Y-149428847D01*
X199456446Y-149450471D01*
X199464504Y-149472993D01*
X199470316Y-149496197D01*
X199473826Y-149519858D01*
X199475000Y-149543750D01*
X199475000Y-150456250D01*
X199473826Y-150480142D01*
X199470316Y-150503803D01*
X199464504Y-150527007D01*
X199456446Y-150549529D01*
X199446218Y-150571153D01*
X199433921Y-150591670D01*
X199419671Y-150610883D01*
X199403607Y-150628607D01*
X199385883Y-150644671D01*
X199366670Y-150658921D01*
X199346153Y-150671218D01*
X199324529Y-150681446D01*
X199302007Y-150689504D01*
X199278803Y-150695316D01*
X199255142Y-150698826D01*
X199231250Y-150700000D01*
X198743750Y-150700000D01*
X198719858Y-150698826D01*
X198696197Y-150695316D01*
X198672993Y-150689504D01*
X198650471Y-150681446D01*
X198628847Y-150671218D01*
X198608330Y-150658921D01*
X198589117Y-150644671D01*
X198571393Y-150628607D01*
X198555329Y-150610883D01*
X198541079Y-150591670D01*
X198528782Y-150571153D01*
X198518554Y-150549529D01*
X198510496Y-150527007D01*
X198504684Y-150503803D01*
X198501174Y-150480142D01*
X198500000Y-150456250D01*
X198500000Y-149543750D01*
X198501174Y-149519858D01*
X198504684Y-149496197D01*
X198510496Y-149472993D01*
X198518554Y-149450471D01*
X198528782Y-149428847D01*
X198541079Y-149408330D01*
X198555329Y-149389117D01*
X198571393Y-149371393D01*
X198589117Y-149355329D01*
X198608330Y-149341079D01*
X198628847Y-149328782D01*
X198650471Y-149318554D01*
X198672993Y-149310496D01*
X198696197Y-149304684D01*
X198719858Y-149301174D01*
X198743750Y-149300000D01*
X199231250Y-149300000D01*
X199255142Y-149301174D01*
G37*
G36*
X201130142Y-149301174D02*
G01*
X201153803Y-149304684D01*
X201177007Y-149310496D01*
X201199529Y-149318554D01*
X201221153Y-149328782D01*
X201241670Y-149341079D01*
X201260883Y-149355329D01*
X201278607Y-149371393D01*
X201294671Y-149389117D01*
X201308921Y-149408330D01*
X201321218Y-149428847D01*
X201331446Y-149450471D01*
X201339504Y-149472993D01*
X201345316Y-149496197D01*
X201348826Y-149519858D01*
X201350000Y-149543750D01*
X201350000Y-150456250D01*
X201348826Y-150480142D01*
X201345316Y-150503803D01*
X201339504Y-150527007D01*
X201331446Y-150549529D01*
X201321218Y-150571153D01*
X201308921Y-150591670D01*
X201294671Y-150610883D01*
X201278607Y-150628607D01*
X201260883Y-150644671D01*
X201241670Y-150658921D01*
X201221153Y-150671218D01*
X201199529Y-150681446D01*
X201177007Y-150689504D01*
X201153803Y-150695316D01*
X201130142Y-150698826D01*
X201106250Y-150700000D01*
X200618750Y-150700000D01*
X200594858Y-150698826D01*
X200571197Y-150695316D01*
X200547993Y-150689504D01*
X200525471Y-150681446D01*
X200503847Y-150671218D01*
X200483330Y-150658921D01*
X200464117Y-150644671D01*
X200446393Y-150628607D01*
X200430329Y-150610883D01*
X200416079Y-150591670D01*
X200403782Y-150571153D01*
X200393554Y-150549529D01*
X200385496Y-150527007D01*
X200379684Y-150503803D01*
X200376174Y-150480142D01*
X200375000Y-150456250D01*
X200375000Y-149543750D01*
X200376174Y-149519858D01*
X200379684Y-149496197D01*
X200385496Y-149472993D01*
X200393554Y-149450471D01*
X200403782Y-149428847D01*
X200416079Y-149408330D01*
X200430329Y-149389117D01*
X200446393Y-149371393D01*
X200464117Y-149355329D01*
X200483330Y-149341079D01*
X200503847Y-149328782D01*
X200525471Y-149318554D01*
X200547993Y-149310496D01*
X200571197Y-149304684D01*
X200594858Y-149301174D01*
X200618750Y-149300000D01*
X201106250Y-149300000D01*
X201130142Y-149301174D01*
G37*
G36*
X199680142Y-102401174D02*
G01*
X199703803Y-102404684D01*
X199727007Y-102410496D01*
X199749529Y-102418554D01*
X199771153Y-102428782D01*
X199791670Y-102441079D01*
X199810883Y-102455329D01*
X199828607Y-102471393D01*
X199844671Y-102489117D01*
X199858921Y-102508330D01*
X199871218Y-102528847D01*
X199881446Y-102550471D01*
X199889504Y-102572993D01*
X199895316Y-102596197D01*
X199898826Y-102619858D01*
X199900000Y-102643750D01*
X199900000Y-103131250D01*
X199898826Y-103155142D01*
X199895316Y-103178803D01*
X199889504Y-103202007D01*
X199881446Y-103224529D01*
X199871218Y-103246153D01*
X199858921Y-103266670D01*
X199844671Y-103285883D01*
X199828607Y-103303607D01*
X199810883Y-103319671D01*
X199791670Y-103333921D01*
X199771153Y-103346218D01*
X199749529Y-103356446D01*
X199727007Y-103364504D01*
X199703803Y-103370316D01*
X199680142Y-103373826D01*
X199656250Y-103375000D01*
X198743750Y-103375000D01*
X198719858Y-103373826D01*
X198696197Y-103370316D01*
X198672993Y-103364504D01*
X198650471Y-103356446D01*
X198628847Y-103346218D01*
X198608330Y-103333921D01*
X198589117Y-103319671D01*
X198571393Y-103303607D01*
X198555329Y-103285883D01*
X198541079Y-103266670D01*
X198528782Y-103246153D01*
X198518554Y-103224529D01*
X198510496Y-103202007D01*
X198504684Y-103178803D01*
X198501174Y-103155142D01*
X198500000Y-103131250D01*
X198500000Y-102643750D01*
X198501174Y-102619858D01*
X198504684Y-102596197D01*
X198510496Y-102572993D01*
X198518554Y-102550471D01*
X198528782Y-102528847D01*
X198541079Y-102508330D01*
X198555329Y-102489117D01*
X198571393Y-102471393D01*
X198589117Y-102455329D01*
X198608330Y-102441079D01*
X198628847Y-102428782D01*
X198650471Y-102418554D01*
X198672993Y-102410496D01*
X198696197Y-102404684D01*
X198719858Y-102401174D01*
X198743750Y-102400000D01*
X199656250Y-102400000D01*
X199680142Y-102401174D01*
G37*
G36*
X199680142Y-104276174D02*
G01*
X199703803Y-104279684D01*
X199727007Y-104285496D01*
X199749529Y-104293554D01*
X199771153Y-104303782D01*
X199791670Y-104316079D01*
X199810883Y-104330329D01*
X199828607Y-104346393D01*
X199844671Y-104364117D01*
X199858921Y-104383330D01*
X199871218Y-104403847D01*
X199881446Y-104425471D01*
X199889504Y-104447993D01*
X199895316Y-104471197D01*
X199898826Y-104494858D01*
X199900000Y-104518750D01*
X199900000Y-105006250D01*
X199898826Y-105030142D01*
X199895316Y-105053803D01*
X199889504Y-105077007D01*
X199881446Y-105099529D01*
X199871218Y-105121153D01*
X199858921Y-105141670D01*
X199844671Y-105160883D01*
X199828607Y-105178607D01*
X199810883Y-105194671D01*
X199791670Y-105208921D01*
X199771153Y-105221218D01*
X199749529Y-105231446D01*
X199727007Y-105239504D01*
X199703803Y-105245316D01*
X199680142Y-105248826D01*
X199656250Y-105250000D01*
X198743750Y-105250000D01*
X198719858Y-105248826D01*
X198696197Y-105245316D01*
X198672993Y-105239504D01*
X198650471Y-105231446D01*
X198628847Y-105221218D01*
X198608330Y-105208921D01*
X198589117Y-105194671D01*
X198571393Y-105178607D01*
X198555329Y-105160883D01*
X198541079Y-105141670D01*
X198528782Y-105121153D01*
X198518554Y-105099529D01*
X198510496Y-105077007D01*
X198504684Y-105053803D01*
X198501174Y-105030142D01*
X198500000Y-105006250D01*
X198500000Y-104518750D01*
X198501174Y-104494858D01*
X198504684Y-104471197D01*
X198510496Y-104447993D01*
X198518554Y-104425471D01*
X198528782Y-104403847D01*
X198541079Y-104383330D01*
X198555329Y-104364117D01*
X198571393Y-104346393D01*
X198589117Y-104330329D01*
X198608330Y-104316079D01*
X198628847Y-104303782D01*
X198650471Y-104293554D01*
X198672993Y-104285496D01*
X198696197Y-104279684D01*
X198719858Y-104276174D01*
X198743750Y-104275000D01*
X199656250Y-104275000D01*
X199680142Y-104276174D01*
G37*
G36*
X199680142Y-107126174D02*
G01*
X199703803Y-107129684D01*
X199727007Y-107135496D01*
X199749529Y-107143554D01*
X199771153Y-107153782D01*
X199791670Y-107166079D01*
X199810883Y-107180329D01*
X199828607Y-107196393D01*
X199844671Y-107214117D01*
X199858921Y-107233330D01*
X199871218Y-107253847D01*
X199881446Y-107275471D01*
X199889504Y-107297993D01*
X199895316Y-107321197D01*
X199898826Y-107344858D01*
X199900000Y-107368750D01*
X199900000Y-107856250D01*
X199898826Y-107880142D01*
X199895316Y-107903803D01*
X199889504Y-107927007D01*
X199881446Y-107949529D01*
X199871218Y-107971153D01*
X199858921Y-107991670D01*
X199844671Y-108010883D01*
X199828607Y-108028607D01*
X199810883Y-108044671D01*
X199791670Y-108058921D01*
X199771153Y-108071218D01*
X199749529Y-108081446D01*
X199727007Y-108089504D01*
X199703803Y-108095316D01*
X199680142Y-108098826D01*
X199656250Y-108100000D01*
X198743750Y-108100000D01*
X198719858Y-108098826D01*
X198696197Y-108095316D01*
X198672993Y-108089504D01*
X198650471Y-108081446D01*
X198628847Y-108071218D01*
X198608330Y-108058921D01*
X198589117Y-108044671D01*
X198571393Y-108028607D01*
X198555329Y-108010883D01*
X198541079Y-107991670D01*
X198528782Y-107971153D01*
X198518554Y-107949529D01*
X198510496Y-107927007D01*
X198504684Y-107903803D01*
X198501174Y-107880142D01*
X198500000Y-107856250D01*
X198500000Y-107368750D01*
X198501174Y-107344858D01*
X198504684Y-107321197D01*
X198510496Y-107297993D01*
X198518554Y-107275471D01*
X198528782Y-107253847D01*
X198541079Y-107233330D01*
X198555329Y-107214117D01*
X198571393Y-107196393D01*
X198589117Y-107180329D01*
X198608330Y-107166079D01*
X198628847Y-107153782D01*
X198650471Y-107143554D01*
X198672993Y-107135496D01*
X198696197Y-107129684D01*
X198719858Y-107126174D01*
X198743750Y-107125000D01*
X199656250Y-107125000D01*
X199680142Y-107126174D01*
G37*
G36*
X199680142Y-105251174D02*
G01*
X199703803Y-105254684D01*
X199727007Y-105260496D01*
X199749529Y-105268554D01*
X199771153Y-105278782D01*
X199791670Y-105291079D01*
X199810883Y-105305329D01*
X199828607Y-105321393D01*
X199844671Y-105339117D01*
X199858921Y-105358330D01*
X199871218Y-105378847D01*
X199881446Y-105400471D01*
X199889504Y-105422993D01*
X199895316Y-105446197D01*
X199898826Y-105469858D01*
X199900000Y-105493750D01*
X199900000Y-105981250D01*
X199898826Y-106005142D01*
X199895316Y-106028803D01*
X199889504Y-106052007D01*
X199881446Y-106074529D01*
X199871218Y-106096153D01*
X199858921Y-106116670D01*
X199844671Y-106135883D01*
X199828607Y-106153607D01*
X199810883Y-106169671D01*
X199791670Y-106183921D01*
X199771153Y-106196218D01*
X199749529Y-106206446D01*
X199727007Y-106214504D01*
X199703803Y-106220316D01*
X199680142Y-106223826D01*
X199656250Y-106225000D01*
X198743750Y-106225000D01*
X198719858Y-106223826D01*
X198696197Y-106220316D01*
X198672993Y-106214504D01*
X198650471Y-106206446D01*
X198628847Y-106196218D01*
X198608330Y-106183921D01*
X198589117Y-106169671D01*
X198571393Y-106153607D01*
X198555329Y-106135883D01*
X198541079Y-106116670D01*
X198528782Y-106096153D01*
X198518554Y-106074529D01*
X198510496Y-106052007D01*
X198504684Y-106028803D01*
X198501174Y-106005142D01*
X198500000Y-105981250D01*
X198500000Y-105493750D01*
X198501174Y-105469858D01*
X198504684Y-105446197D01*
X198510496Y-105422993D01*
X198518554Y-105400471D01*
X198528782Y-105378847D01*
X198541079Y-105358330D01*
X198555329Y-105339117D01*
X198571393Y-105321393D01*
X198589117Y-105305329D01*
X198608330Y-105291079D01*
X198628847Y-105278782D01*
X198650471Y-105268554D01*
X198672993Y-105260496D01*
X198696197Y-105254684D01*
X198719858Y-105251174D01*
X198743750Y-105250000D01*
X199656250Y-105250000D01*
X199680142Y-105251174D01*
G37*
G36*
X243280142Y-102401174D02*
G01*
X243303803Y-102404684D01*
X243327007Y-102410496D01*
X243349529Y-102418554D01*
X243371153Y-102428782D01*
X243391670Y-102441079D01*
X243410883Y-102455329D01*
X243428607Y-102471393D01*
X243444671Y-102489117D01*
X243458921Y-102508330D01*
X243471218Y-102528847D01*
X243481446Y-102550471D01*
X243489504Y-102572993D01*
X243495316Y-102596197D01*
X243498826Y-102619858D01*
X243500000Y-102643750D01*
X243500000Y-103131250D01*
X243498826Y-103155142D01*
X243495316Y-103178803D01*
X243489504Y-103202007D01*
X243481446Y-103224529D01*
X243471218Y-103246153D01*
X243458921Y-103266670D01*
X243444671Y-103285883D01*
X243428607Y-103303607D01*
X243410883Y-103319671D01*
X243391670Y-103333921D01*
X243371153Y-103346218D01*
X243349529Y-103356446D01*
X243327007Y-103364504D01*
X243303803Y-103370316D01*
X243280142Y-103373826D01*
X243256250Y-103375000D01*
X242343750Y-103375000D01*
X242319858Y-103373826D01*
X242296197Y-103370316D01*
X242272993Y-103364504D01*
X242250471Y-103356446D01*
X242228847Y-103346218D01*
X242208330Y-103333921D01*
X242189117Y-103319671D01*
X242171393Y-103303607D01*
X242155329Y-103285883D01*
X242141079Y-103266670D01*
X242128782Y-103246153D01*
X242118554Y-103224529D01*
X242110496Y-103202007D01*
X242104684Y-103178803D01*
X242101174Y-103155142D01*
X242100000Y-103131250D01*
X242100000Y-102643750D01*
X242101174Y-102619858D01*
X242104684Y-102596197D01*
X242110496Y-102572993D01*
X242118554Y-102550471D01*
X242128782Y-102528847D01*
X242141079Y-102508330D01*
X242155329Y-102489117D01*
X242171393Y-102471393D01*
X242189117Y-102455329D01*
X242208330Y-102441079D01*
X242228847Y-102428782D01*
X242250471Y-102418554D01*
X242272993Y-102410496D01*
X242296197Y-102404684D01*
X242319858Y-102401174D01*
X242343750Y-102400000D01*
X243256250Y-102400000D01*
X243280142Y-102401174D01*
G37*
G36*
X243280142Y-104276174D02*
G01*
X243303803Y-104279684D01*
X243327007Y-104285496D01*
X243349529Y-104293554D01*
X243371153Y-104303782D01*
X243391670Y-104316079D01*
X243410883Y-104330329D01*
X243428607Y-104346393D01*
X243444671Y-104364117D01*
X243458921Y-104383330D01*
X243471218Y-104403847D01*
X243481446Y-104425471D01*
X243489504Y-104447993D01*
X243495316Y-104471197D01*
X243498826Y-104494858D01*
X243500000Y-104518750D01*
X243500000Y-105006250D01*
X243498826Y-105030142D01*
X243495316Y-105053803D01*
X243489504Y-105077007D01*
X243481446Y-105099529D01*
X243471218Y-105121153D01*
X243458921Y-105141670D01*
X243444671Y-105160883D01*
X243428607Y-105178607D01*
X243410883Y-105194671D01*
X243391670Y-105208921D01*
X243371153Y-105221218D01*
X243349529Y-105231446D01*
X243327007Y-105239504D01*
X243303803Y-105245316D01*
X243280142Y-105248826D01*
X243256250Y-105250000D01*
X242343750Y-105250000D01*
X242319858Y-105248826D01*
X242296197Y-105245316D01*
X242272993Y-105239504D01*
X242250471Y-105231446D01*
X242228847Y-105221218D01*
X242208330Y-105208921D01*
X242189117Y-105194671D01*
X242171393Y-105178607D01*
X242155329Y-105160883D01*
X242141079Y-105141670D01*
X242128782Y-105121153D01*
X242118554Y-105099529D01*
X242110496Y-105077007D01*
X242104684Y-105053803D01*
X242101174Y-105030142D01*
X242100000Y-105006250D01*
X242100000Y-104518750D01*
X242101174Y-104494858D01*
X242104684Y-104471197D01*
X242110496Y-104447993D01*
X242118554Y-104425471D01*
X242128782Y-104403847D01*
X242141079Y-104383330D01*
X242155329Y-104364117D01*
X242171393Y-104346393D01*
X242189117Y-104330329D01*
X242208330Y-104316079D01*
X242228847Y-104303782D01*
X242250471Y-104293554D01*
X242272993Y-104285496D01*
X242296197Y-104279684D01*
X242319858Y-104276174D01*
X242343750Y-104275000D01*
X243256250Y-104275000D01*
X243280142Y-104276174D01*
G37*
G36*
X243280142Y-107126174D02*
G01*
X243303803Y-107129684D01*
X243327007Y-107135496D01*
X243349529Y-107143554D01*
X243371153Y-107153782D01*
X243391670Y-107166079D01*
X243410883Y-107180329D01*
X243428607Y-107196393D01*
X243444671Y-107214117D01*
X243458921Y-107233330D01*
X243471218Y-107253847D01*
X243481446Y-107275471D01*
X243489504Y-107297993D01*
X243495316Y-107321197D01*
X243498826Y-107344858D01*
X243500000Y-107368750D01*
X243500000Y-107856250D01*
X243498826Y-107880142D01*
X243495316Y-107903803D01*
X243489504Y-107927007D01*
X243481446Y-107949529D01*
X243471218Y-107971153D01*
X243458921Y-107991670D01*
X243444671Y-108010883D01*
X243428607Y-108028607D01*
X243410883Y-108044671D01*
X243391670Y-108058921D01*
X243371153Y-108071218D01*
X243349529Y-108081446D01*
X243327007Y-108089504D01*
X243303803Y-108095316D01*
X243280142Y-108098826D01*
X243256250Y-108100000D01*
X242343750Y-108100000D01*
X242319858Y-108098826D01*
X242296197Y-108095316D01*
X242272993Y-108089504D01*
X242250471Y-108081446D01*
X242228847Y-108071218D01*
X242208330Y-108058921D01*
X242189117Y-108044671D01*
X242171393Y-108028607D01*
X242155329Y-108010883D01*
X242141079Y-107991670D01*
X242128782Y-107971153D01*
X242118554Y-107949529D01*
X242110496Y-107927007D01*
X242104684Y-107903803D01*
X242101174Y-107880142D01*
X242100000Y-107856250D01*
X242100000Y-107368750D01*
X242101174Y-107344858D01*
X242104684Y-107321197D01*
X242110496Y-107297993D01*
X242118554Y-107275471D01*
X242128782Y-107253847D01*
X242141079Y-107233330D01*
X242155329Y-107214117D01*
X242171393Y-107196393D01*
X242189117Y-107180329D01*
X242208330Y-107166079D01*
X242228847Y-107153782D01*
X242250471Y-107143554D01*
X242272993Y-107135496D01*
X242296197Y-107129684D01*
X242319858Y-107126174D01*
X242343750Y-107125000D01*
X243256250Y-107125000D01*
X243280142Y-107126174D01*
G37*
G36*
X243280142Y-105251174D02*
G01*
X243303803Y-105254684D01*
X243327007Y-105260496D01*
X243349529Y-105268554D01*
X243371153Y-105278782D01*
X243391670Y-105291079D01*
X243410883Y-105305329D01*
X243428607Y-105321393D01*
X243444671Y-105339117D01*
X243458921Y-105358330D01*
X243471218Y-105378847D01*
X243481446Y-105400471D01*
X243489504Y-105422993D01*
X243495316Y-105446197D01*
X243498826Y-105469858D01*
X243500000Y-105493750D01*
X243500000Y-105981250D01*
X243498826Y-106005142D01*
X243495316Y-106028803D01*
X243489504Y-106052007D01*
X243481446Y-106074529D01*
X243471218Y-106096153D01*
X243458921Y-106116670D01*
X243444671Y-106135883D01*
X243428607Y-106153607D01*
X243410883Y-106169671D01*
X243391670Y-106183921D01*
X243371153Y-106196218D01*
X243349529Y-106206446D01*
X243327007Y-106214504D01*
X243303803Y-106220316D01*
X243280142Y-106223826D01*
X243256250Y-106225000D01*
X242343750Y-106225000D01*
X242319858Y-106223826D01*
X242296197Y-106220316D01*
X242272993Y-106214504D01*
X242250471Y-106206446D01*
X242228847Y-106196218D01*
X242208330Y-106183921D01*
X242189117Y-106169671D01*
X242171393Y-106153607D01*
X242155329Y-106135883D01*
X242141079Y-106116670D01*
X242128782Y-106096153D01*
X242118554Y-106074529D01*
X242110496Y-106052007D01*
X242104684Y-106028803D01*
X242101174Y-106005142D01*
X242100000Y-105981250D01*
X242100000Y-105493750D01*
X242101174Y-105469858D01*
X242104684Y-105446197D01*
X242110496Y-105422993D01*
X242118554Y-105400471D01*
X242128782Y-105378847D01*
X242141079Y-105358330D01*
X242155329Y-105339117D01*
X242171393Y-105321393D01*
X242189117Y-105305329D01*
X242208330Y-105291079D01*
X242228847Y-105278782D01*
X242250471Y-105268554D01*
X242272993Y-105260496D01*
X242296197Y-105254684D01*
X242319858Y-105251174D01*
X242343750Y-105250000D01*
X243256250Y-105250000D01*
X243280142Y-105251174D01*
G37*
G36*
X199680142Y-164513674D02*
G01*
X199703803Y-164517184D01*
X199727007Y-164522996D01*
X199749529Y-164531054D01*
X199771153Y-164541282D01*
X199791670Y-164553579D01*
X199810883Y-164567829D01*
X199828607Y-164583893D01*
X199844671Y-164601617D01*
X199858921Y-164620830D01*
X199871218Y-164641347D01*
X199881446Y-164662971D01*
X199889504Y-164685493D01*
X199895316Y-164708697D01*
X199898826Y-164732358D01*
X199900000Y-164756250D01*
X199900000Y-165243750D01*
X199898826Y-165267642D01*
X199895316Y-165291303D01*
X199889504Y-165314507D01*
X199881446Y-165337029D01*
X199871218Y-165358653D01*
X199858921Y-165379170D01*
X199844671Y-165398383D01*
X199828607Y-165416107D01*
X199810883Y-165432171D01*
X199791670Y-165446421D01*
X199771153Y-165458718D01*
X199749529Y-165468946D01*
X199727007Y-165477004D01*
X199703803Y-165482816D01*
X199680142Y-165486326D01*
X199656250Y-165487500D01*
X198743750Y-165487500D01*
X198719858Y-165486326D01*
X198696197Y-165482816D01*
X198672993Y-165477004D01*
X198650471Y-165468946D01*
X198628847Y-165458718D01*
X198608330Y-165446421D01*
X198589117Y-165432171D01*
X198571393Y-165416107D01*
X198555329Y-165398383D01*
X198541079Y-165379170D01*
X198528782Y-165358653D01*
X198518554Y-165337029D01*
X198510496Y-165314507D01*
X198504684Y-165291303D01*
X198501174Y-165267642D01*
X198500000Y-165243750D01*
X198500000Y-164756250D01*
X198501174Y-164732358D01*
X198504684Y-164708697D01*
X198510496Y-164685493D01*
X198518554Y-164662971D01*
X198528782Y-164641347D01*
X198541079Y-164620830D01*
X198555329Y-164601617D01*
X198571393Y-164583893D01*
X198589117Y-164567829D01*
X198608330Y-164553579D01*
X198628847Y-164541282D01*
X198650471Y-164531054D01*
X198672993Y-164522996D01*
X198696197Y-164517184D01*
X198719858Y-164513674D01*
X198743750Y-164512500D01*
X199656250Y-164512500D01*
X199680142Y-164513674D01*
G37*
G36*
X199680142Y-166388674D02*
G01*
X199703803Y-166392184D01*
X199727007Y-166397996D01*
X199749529Y-166406054D01*
X199771153Y-166416282D01*
X199791670Y-166428579D01*
X199810883Y-166442829D01*
X199828607Y-166458893D01*
X199844671Y-166476617D01*
X199858921Y-166495830D01*
X199871218Y-166516347D01*
X199881446Y-166537971D01*
X199889504Y-166560493D01*
X199895316Y-166583697D01*
X199898826Y-166607358D01*
X199900000Y-166631250D01*
X199900000Y-167118750D01*
X199898826Y-167142642D01*
X199895316Y-167166303D01*
X199889504Y-167189507D01*
X199881446Y-167212029D01*
X199871218Y-167233653D01*
X199858921Y-167254170D01*
X199844671Y-167273383D01*
X199828607Y-167291107D01*
X199810883Y-167307171D01*
X199791670Y-167321421D01*
X199771153Y-167333718D01*
X199749529Y-167343946D01*
X199727007Y-167352004D01*
X199703803Y-167357816D01*
X199680142Y-167361326D01*
X199656250Y-167362500D01*
X198743750Y-167362500D01*
X198719858Y-167361326D01*
X198696197Y-167357816D01*
X198672993Y-167352004D01*
X198650471Y-167343946D01*
X198628847Y-167333718D01*
X198608330Y-167321421D01*
X198589117Y-167307171D01*
X198571393Y-167291107D01*
X198555329Y-167273383D01*
X198541079Y-167254170D01*
X198528782Y-167233653D01*
X198518554Y-167212029D01*
X198510496Y-167189507D01*
X198504684Y-167166303D01*
X198501174Y-167142642D01*
X198500000Y-167118750D01*
X198500000Y-166631250D01*
X198501174Y-166607358D01*
X198504684Y-166583697D01*
X198510496Y-166560493D01*
X198518554Y-166537971D01*
X198528782Y-166516347D01*
X198541079Y-166495830D01*
X198555329Y-166476617D01*
X198571393Y-166458893D01*
X198589117Y-166442829D01*
X198608330Y-166428579D01*
X198628847Y-166416282D01*
X198650471Y-166406054D01*
X198672993Y-166397996D01*
X198696197Y-166392184D01*
X198719858Y-166388674D01*
X198743750Y-166387500D01*
X199656250Y-166387500D01*
X199680142Y-166388674D01*
G37*
M02*
