M48
; DRILL file {KiCad (5.1.7)-1} date 12/28/20 13:52:34
; FORMAT={-:-/ absolute / inch / decimal}
; #@! TF.CreationDate,2020-12-28T13:52:34+01:00
; #@! TF.GenerationSoftware,Kicad,Pcbnew,(5.1.7)-1
FMAT,2
INCH
T1C0.0157
T2C0.0160
T3C0.0780
%
G90
G05
T1
X4.702Y-2.7791
X4.7028Y-2.9551
X4.7028Y-5.2945
X4.7512Y-2.7791
X4.752Y-2.9551
X4.802Y-2.7791
X4.802Y-2.8276
X4.8024Y-2.8701
X4.8024Y-2.9091
X4.8024Y-2.9547
X6.3201Y-2.7752
X6.3201Y-2.8185
X6.3201Y-2.8677
X6.3201Y-2.9169
X6.3201Y-2.9567
X6.3693Y-2.7752
X6.3693Y-2.9567
X6.4185Y-2.7752
X6.4185Y-2.9567
T2
X4.685Y-4.5551
X4.685Y-4.7008
X4.7323Y-4.5551
X4.7323Y-4.7008
X4.7835Y-4.5551
X4.7835Y-4.7008
X4.7898Y-3.4251
X4.7898Y-3.4567
X4.7898Y-3.489
X6.4205Y-3.4272
X6.4205Y-3.4909
X6.4209Y-3.4583
T3
X6.9465Y-3.2703
X6.9465Y-3.6455
X6.9465Y-2.6797
X6.9465Y-3.0549
X4.174Y-5.0321
X4.174Y-5.4073
X4.174Y-4.4415
X4.174Y-4.8167
X4.174Y-2.0892
X4.174Y-2.4644
X4.174Y-3.8608
X4.174Y-4.236
X4.174Y-3.2703
X4.174Y-3.6455
X5.2299Y-5.0321
X5.2299Y-5.4073
X4.174Y-2.6797
X4.174Y-3.0549
X5.2862Y-4.4415
X5.2862Y-4.8167
X5.1748Y-2.0892
X5.1748Y-2.4644
X6.9465Y-3.8608
X6.9465Y-4.236
T0
M30
