G04 #@! TF.GenerationSoftware,KiCad,Pcbnew,(5.1.7)-1*
G04 #@! TF.CreationDate,2020-12-28T13:52:33+01:00*
G04 #@! TF.ProjectId,6Layers_trl-board,364c6179-6572-4735-9f74-726c2d626f61,0.3*
G04 #@! TF.SameCoordinates,Original*
G04 #@! TF.FileFunction,Copper,L1,Top*
G04 #@! TF.FilePolarity,Positive*
%FSLAX46Y46*%
G04 Gerber Fmt 4.6, Leading zero omitted, Abs format (unit mm)*
G04 Created by KiCad (PCBNEW (5.1.7)-1) date 2020-12-28 13:52:33*
%MOMM*%
%LPD*%
G01*
G04 APERTURE LIST*
G04 #@! TA.AperFunction,ComponentPad*
%ADD10C,2.800000*%
G04 #@! TD*
G04 #@! TA.AperFunction,SMDPad,CuDef*
%ADD11R,0.762000X0.203200*%
G04 #@! TD*
G04 #@! TA.AperFunction,ViaPad*
%ADD12C,0.600000*%
G04 #@! TD*
G04 #@! TA.AperFunction,ViaPad*
%ADD13C,0.762000*%
G04 #@! TD*
G04 #@! TA.AperFunction,Conductor*
%ADD14C,0.216000*%
G04 #@! TD*
G04 #@! TA.AperFunction,Conductor*
%ADD15C,0.340360*%
G04 #@! TD*
G04 #@! TA.AperFunction,Conductor*
%ADD16C,0.723900*%
G04 #@! TD*
G04 #@! TA.AperFunction,Conductor*
%ADD17C,0.215900*%
G04 #@! TD*
G04 APERTURE END LIST*
G04 #@! TA.AperFunction,SMDPad,CuDef*
G36*
G01*
X162860000Y-74080000D02*
X163200000Y-74080000D01*
G75*
G02*
X163350000Y-74230000I0J-150000D01*
G01*
X163350000Y-74530000D01*
G75*
G02*
X163200000Y-74680000I-150000J0D01*
G01*
X162860000Y-74680000D01*
G75*
G02*
X162710000Y-74530000I0J150000D01*
G01*
X162710000Y-74230000D01*
G75*
G02*
X162860000Y-74080000I150000J0D01*
G01*
G37*
G04 #@! TD.AperFunction*
G04 #@! TA.AperFunction,SMDPad,CuDef*
G36*
G01*
X162860000Y-73120000D02*
X163200000Y-73120000D01*
G75*
G02*
X163350000Y-73270000I0J-150000D01*
G01*
X163350000Y-73570000D01*
G75*
G02*
X163200000Y-73720000I-150000J0D01*
G01*
X162860000Y-73720000D01*
G75*
G02*
X162710000Y-73570000I0J150000D01*
G01*
X162710000Y-73270000D01*
G75*
G02*
X162860000Y-73120000I150000J0D01*
G01*
G37*
G04 #@! TD.AperFunction*
G04 #@! TA.AperFunction,SMDPad,CuDef*
G36*
G01*
X163200000Y-71520000D02*
X162860000Y-71520000D01*
G75*
G02*
X162710000Y-71370000I0J150000D01*
G01*
X162710000Y-71070000D01*
G75*
G02*
X162860000Y-70920000I150000J0D01*
G01*
X163200000Y-70920000D01*
G75*
G02*
X163350000Y-71070000I0J-150000D01*
G01*
X163350000Y-71370000D01*
G75*
G02*
X163200000Y-71520000I-150000J0D01*
G01*
G37*
G04 #@! TD.AperFunction*
G04 #@! TA.AperFunction,SMDPad,CuDef*
G36*
G01*
X163200000Y-72480000D02*
X162860000Y-72480000D01*
G75*
G02*
X162710000Y-72330000I0J150000D01*
G01*
X162710000Y-72030000D01*
G75*
G02*
X162860000Y-71880000I150000J0D01*
G01*
X163200000Y-71880000D01*
G75*
G02*
X163350000Y-72030000I0J-150000D01*
G01*
X163350000Y-72330000D01*
G75*
G02*
X163200000Y-72480000I-150000J0D01*
G01*
G37*
G04 #@! TD.AperFunction*
G04 #@! TA.AperFunction,SMDPad,CuDef*
G36*
G01*
X119280000Y-73980000D02*
X119620000Y-73980000D01*
G75*
G02*
X119770000Y-74130000I0J-150000D01*
G01*
X119770000Y-74430000D01*
G75*
G02*
X119620000Y-74580000I-150000J0D01*
G01*
X119280000Y-74580000D01*
G75*
G02*
X119130000Y-74430000I0J150000D01*
G01*
X119130000Y-74130000D01*
G75*
G02*
X119280000Y-73980000I150000J0D01*
G01*
G37*
G04 #@! TD.AperFunction*
G04 #@! TA.AperFunction,SMDPad,CuDef*
G36*
G01*
X119280000Y-73020000D02*
X119620000Y-73020000D01*
G75*
G02*
X119770000Y-73170000I0J-150000D01*
G01*
X119770000Y-73470000D01*
G75*
G02*
X119620000Y-73620000I-150000J0D01*
G01*
X119280000Y-73620000D01*
G75*
G02*
X119130000Y-73470000I0J150000D01*
G01*
X119130000Y-73170000D01*
G75*
G02*
X119280000Y-73020000I150000J0D01*
G01*
G37*
G04 #@! TD.AperFunction*
G04 #@! TA.AperFunction,SMDPad,CuDef*
G36*
G01*
X119600000Y-71670000D02*
X119260000Y-71670000D01*
G75*
G02*
X119110000Y-71520000I0J150000D01*
G01*
X119110000Y-71220000D01*
G75*
G02*
X119260000Y-71070000I150000J0D01*
G01*
X119600000Y-71070000D01*
G75*
G02*
X119750000Y-71220000I0J-150000D01*
G01*
X119750000Y-71520000D01*
G75*
G02*
X119600000Y-71670000I-150000J0D01*
G01*
G37*
G04 #@! TD.AperFunction*
G04 #@! TA.AperFunction,SMDPad,CuDef*
G36*
G01*
X119600000Y-72630000D02*
X119260000Y-72630000D01*
G75*
G02*
X119110000Y-72480000I0J150000D01*
G01*
X119110000Y-72180000D01*
G75*
G02*
X119260000Y-72030000I150000J0D01*
G01*
X119600000Y-72030000D01*
G75*
G02*
X119750000Y-72180000I0J-150000D01*
G01*
X119750000Y-72480000D01*
G75*
G02*
X119600000Y-72630000I-150000J0D01*
G01*
G37*
G04 #@! TD.AperFunction*
G04 #@! TA.AperFunction,SMDPad,CuDef*
G36*
G01*
X119620000Y-133010000D02*
X119280000Y-133010000D01*
G75*
G02*
X119130000Y-132860000I0J150000D01*
G01*
X119130000Y-132560000D01*
G75*
G02*
X119280000Y-132410000I150000J0D01*
G01*
X119620000Y-132410000D01*
G75*
G02*
X119770000Y-132560000I0J-150000D01*
G01*
X119770000Y-132860000D01*
G75*
G02*
X119620000Y-133010000I-150000J0D01*
G01*
G37*
G04 #@! TD.AperFunction*
G04 #@! TA.AperFunction,SMDPad,CuDef*
G36*
G01*
X119620000Y-133970000D02*
X119280000Y-133970000D01*
G75*
G02*
X119130000Y-133820000I0J150000D01*
G01*
X119130000Y-133520000D01*
G75*
G02*
X119280000Y-133370000I150000J0D01*
G01*
X119620000Y-133370000D01*
G75*
G02*
X119770000Y-133520000I0J-150000D01*
G01*
X119770000Y-133820000D01*
G75*
G02*
X119620000Y-133970000I-150000J0D01*
G01*
G37*
G04 #@! TD.AperFunction*
G04 #@! TA.AperFunction,SMDPad,CuDef*
G36*
G01*
X119975000Y-117410000D02*
X119975000Y-117750000D01*
G75*
G02*
X119825000Y-117900000I-150000J0D01*
G01*
X119525000Y-117900000D01*
G75*
G02*
X119375000Y-117750000I0J150000D01*
G01*
X119375000Y-117410000D01*
G75*
G02*
X119525000Y-117260000I150000J0D01*
G01*
X119825000Y-117260000D01*
G75*
G02*
X119975000Y-117410000I0J-150000D01*
G01*
G37*
G04 #@! TD.AperFunction*
G04 #@! TA.AperFunction,SMDPad,CuDef*
G36*
G01*
X120935000Y-117410000D02*
X120935000Y-117750000D01*
G75*
G02*
X120785000Y-117900000I-150000J0D01*
G01*
X120485000Y-117900000D01*
G75*
G02*
X120335000Y-117750000I0J150000D01*
G01*
X120335000Y-117410000D01*
G75*
G02*
X120485000Y-117260000I150000J0D01*
G01*
X120785000Y-117260000D01*
G75*
G02*
X120935000Y-117410000I0J-150000D01*
G01*
G37*
G04 #@! TD.AperFunction*
D10*
X132840000Y-137345000D03*
X132840000Y-127815000D03*
D11*
X135185500Y-132580000D03*
D10*
X106020000Y-127815000D03*
X106020000Y-137345000D03*
D11*
X103674500Y-132580000D03*
D10*
X134270000Y-122345000D03*
X134270000Y-112815000D03*
D11*
X136615500Y-117580000D03*
D10*
X106020000Y-112815000D03*
X106020000Y-122345000D03*
D11*
X103674500Y-117580000D03*
D10*
X176440000Y-107595000D03*
X176440000Y-98065000D03*
D11*
X178785500Y-102830000D03*
D10*
X106020000Y-98065000D03*
X106020000Y-107595000D03*
D11*
X103674500Y-102830000D03*
D10*
X176440000Y-92595000D03*
X176440000Y-83065000D03*
D11*
X178785500Y-87830000D03*
D10*
X106020000Y-83065000D03*
X106020000Y-92595000D03*
D11*
X103674500Y-87830000D03*
D10*
X176440000Y-77595000D03*
X176440000Y-68065000D03*
D11*
X178785500Y-72830000D03*
D10*
X106020000Y-68065000D03*
X106020000Y-77595000D03*
D11*
X103674500Y-72830000D03*
D10*
X131440000Y-62595000D03*
X131440000Y-53065000D03*
D11*
X133785500Y-57830000D03*
D10*
X106020000Y-53065000D03*
X106020000Y-62595000D03*
D11*
X103674500Y-57830000D03*
D12*
X119430000Y-70590000D03*
X120680000Y-70590000D03*
X121970000Y-70590000D03*
X121980000Y-72900000D03*
X121970000Y-71820000D03*
X163030000Y-70490000D03*
X161780000Y-70490000D03*
X161780000Y-75100000D03*
X160530000Y-75100000D03*
X163030000Y-75100000D03*
D13*
X121500000Y-119400000D03*
D12*
X119450000Y-134480000D03*
X121980000Y-75050000D03*
X120700000Y-75060000D03*
X119450000Y-75060000D03*
D13*
X121660000Y-88620000D03*
X121660000Y-87800000D03*
X121660000Y-86997200D03*
X163090000Y-87840000D03*
D12*
X160530000Y-74090000D03*
X160530000Y-72840000D03*
X160530000Y-71590000D03*
X160530000Y-70490000D03*
X121980000Y-73890000D03*
D13*
X119000000Y-115700000D03*
X121500000Y-115700000D03*
X163080000Y-87050000D03*
X163080000Y-88670000D03*
X120200000Y-115700000D03*
X120200000Y-119400000D03*
X119000000Y-119400000D03*
D14*
X103660000Y-87830000D02*
X118600000Y-87830000D01*
X120800000Y-117580000D02*
X136630000Y-117580000D01*
X103660000Y-117580000D02*
X119600000Y-117580000D01*
X178785500Y-87830000D02*
X163480000Y-87830000D01*
D15*
X163030000Y-70490000D02*
X163030000Y-71170000D01*
X163030000Y-71170000D02*
X163000000Y-71200000D01*
X163030000Y-74380000D02*
X163030000Y-75100000D01*
X119430000Y-70590000D02*
X119430000Y-71370000D01*
X119430000Y-71370000D02*
X119400000Y-71400000D01*
X119450000Y-75060000D02*
X119450000Y-74350000D01*
X119450000Y-74350000D02*
X119400000Y-74300000D01*
X119450000Y-134480000D02*
X119450000Y-133670000D01*
D16*
X119000000Y-115700000D02*
X120210000Y-115700000D01*
X119000000Y-119400000D02*
X120230000Y-119400000D01*
X120210000Y-115700000D02*
X121500000Y-115700000D01*
X120230000Y-119400000D02*
X121500000Y-119400000D01*
D14*
X103660000Y-132580000D02*
X135210000Y-132580000D01*
X103660000Y-57830000D02*
X133800000Y-57830000D01*
D17*
X118730000Y-72830000D02*
X119370000Y-72830000D01*
D14*
X103660000Y-72830000D02*
X118730000Y-72830000D01*
D16*
X119430000Y-72330000D02*
X119430000Y-73290000D01*
X163030000Y-72350000D02*
X163030000Y-73310000D01*
D14*
X178800000Y-72830000D02*
X163030000Y-72830000D01*
X103660000Y-102830000D02*
X178800000Y-102830000D01*
M02*
