G04 #@! TF.GenerationSoftware,KiCad,Pcbnew,(5.1.7)-1*
G04 #@! TF.CreationDate,2020-12-28T13:52:33+01:00*
G04 #@! TF.ProjectId,6Layers_trl-board,364c6179-6572-4735-9f74-726c2d626f61,0.3*
G04 #@! TF.SameCoordinates,Original*
G04 #@! TF.FileFunction,Soldermask,Bot*
G04 #@! TF.FilePolarity,Negative*
%FSLAX46Y46*%
G04 Gerber Fmt 4.6, Leading zero omitted, Abs format (unit mm)*
G04 Created by KiCad (PCBNEW (5.1.7)-1) date 2020-12-28 13:52:33*
%MOMM*%
%LPD*%
G01*
G04 APERTURE LIST*
%ADD10C,0.100000*%
%ADD11C,2.800000*%
G04 APERTURE END LIST*
D10*
G36*
X130230000Y-139080000D02*
G01*
X130230000Y-126080000D01*
X135730000Y-126080000D01*
X135730000Y-139080000D01*
X130230000Y-139080000D01*
G37*
X130230000Y-139080000D02*
X130230000Y-126080000D01*
X135730000Y-126080000D01*
X135730000Y-139080000D01*
X130230000Y-139080000D01*
G36*
X108630000Y-126080000D02*
G01*
X108630000Y-139080000D01*
X103130000Y-139080000D01*
X103130000Y-126080000D01*
X108630000Y-126080000D01*
G37*
X108630000Y-126080000D02*
X108630000Y-139080000D01*
X103130000Y-139080000D01*
X103130000Y-126080000D01*
X108630000Y-126080000D01*
G36*
X131660000Y-124080000D02*
G01*
X131660000Y-111080000D01*
X137160000Y-111080000D01*
X137160000Y-124080000D01*
X131660000Y-124080000D01*
G37*
X131660000Y-124080000D02*
X131660000Y-111080000D01*
X137160000Y-111080000D01*
X137160000Y-124080000D01*
X131660000Y-124080000D01*
G36*
X108630000Y-111080000D02*
G01*
X108630000Y-124080000D01*
X103130000Y-124080000D01*
X103130000Y-111080000D01*
X108630000Y-111080000D01*
G37*
X108630000Y-111080000D02*
X108630000Y-124080000D01*
X103130000Y-124080000D01*
X103130000Y-111080000D01*
X108630000Y-111080000D01*
G36*
X173830000Y-109330000D02*
G01*
X173830000Y-96330000D01*
X179330000Y-96330000D01*
X179330000Y-109330000D01*
X173830000Y-109330000D01*
G37*
X173830000Y-109330000D02*
X173830000Y-96330000D01*
X179330000Y-96330000D01*
X179330000Y-109330000D01*
X173830000Y-109330000D01*
G36*
X108630000Y-96330000D02*
G01*
X108630000Y-109330000D01*
X103130000Y-109330000D01*
X103130000Y-96330000D01*
X108630000Y-96330000D01*
G37*
X108630000Y-96330000D02*
X108630000Y-109330000D01*
X103130000Y-109330000D01*
X103130000Y-96330000D01*
X108630000Y-96330000D01*
G36*
X173830000Y-94330000D02*
G01*
X173830000Y-81330000D01*
X179330000Y-81330000D01*
X179330000Y-94330000D01*
X173830000Y-94330000D01*
G37*
X173830000Y-94330000D02*
X173830000Y-81330000D01*
X179330000Y-81330000D01*
X179330000Y-94330000D01*
X173830000Y-94330000D01*
G36*
X108630000Y-81330000D02*
G01*
X108630000Y-94330000D01*
X103130000Y-94330000D01*
X103130000Y-81330000D01*
X108630000Y-81330000D01*
G37*
X108630000Y-81330000D02*
X108630000Y-94330000D01*
X103130000Y-94330000D01*
X103130000Y-81330000D01*
X108630000Y-81330000D01*
G36*
X173830000Y-79330000D02*
G01*
X173830000Y-66330000D01*
X179330000Y-66330000D01*
X179330000Y-79330000D01*
X173830000Y-79330000D01*
G37*
X173830000Y-79330000D02*
X173830000Y-66330000D01*
X179330000Y-66330000D01*
X179330000Y-79330000D01*
X173830000Y-79330000D01*
G36*
X108630000Y-66330000D02*
G01*
X108630000Y-79330000D01*
X103130000Y-79330000D01*
X103130000Y-66330000D01*
X108630000Y-66330000D01*
G37*
X108630000Y-66330000D02*
X108630000Y-79330000D01*
X103130000Y-79330000D01*
X103130000Y-66330000D01*
X108630000Y-66330000D01*
G36*
X128830000Y-64330000D02*
G01*
X128830000Y-51330000D01*
X134330000Y-51330000D01*
X134330000Y-64330000D01*
X128830000Y-64330000D01*
G37*
X128830000Y-64330000D02*
X128830000Y-51330000D01*
X134330000Y-51330000D01*
X134330000Y-64330000D01*
X128830000Y-64330000D01*
G36*
X108630000Y-51330000D02*
G01*
X108630000Y-64330000D01*
X103130000Y-64330000D01*
X103130000Y-51330000D01*
X108630000Y-51330000D01*
G37*
X108630000Y-51330000D02*
X108630000Y-64330000D01*
X103130000Y-64330000D01*
X103130000Y-51330000D01*
X108630000Y-51330000D01*
D11*
X132840000Y-137345000D03*
X132840000Y-127815000D03*
X106020000Y-127815000D03*
X106020000Y-137345000D03*
X134270000Y-122345000D03*
X134270000Y-112815000D03*
X106020000Y-112815000D03*
X106020000Y-122345000D03*
X176440000Y-107595000D03*
X176440000Y-98065000D03*
X106020000Y-98065000D03*
X106020000Y-107595000D03*
X176440000Y-92595000D03*
X176440000Y-83065000D03*
X106020000Y-83065000D03*
X106020000Y-92595000D03*
X176440000Y-77595000D03*
X176440000Y-68065000D03*
X106020000Y-68065000D03*
X106020000Y-77595000D03*
X131440000Y-62595000D03*
X131440000Y-53065000D03*
X106020000Y-53065000D03*
X106020000Y-62595000D03*
M02*
