G04 #@! TF.GenerationSoftware,KiCad,Pcbnew,(5.1.7)-1*
G04 #@! TF.CreationDate,2020-12-28T13:52:33+01:00*
G04 #@! TF.ProjectId,6Layers_trl-board,364c6179-6572-4735-9f74-726c2d626f61,0.3*
G04 #@! TF.SameCoordinates,Original*
G04 #@! TF.FileFunction,Copper,L5,Inr*
G04 #@! TF.FilePolarity,Positive*
%FSLAX46Y46*%
G04 Gerber Fmt 4.6, Leading zero omitted, Abs format (unit mm)*
G04 Created by KiCad (PCBNEW (5.1.7)-1) date 2020-12-28 13:52:33*
%MOMM*%
%LPD*%
G01*
G04 APERTURE LIST*
G04 #@! TA.AperFunction,ComponentPad*
%ADD10C,2.800000*%
G04 #@! TD*
G04 #@! TA.AperFunction,ViaPad*
%ADD11C,0.600000*%
G04 #@! TD*
G04 #@! TA.AperFunction,ViaPad*
%ADD12C,0.762000*%
G04 #@! TD*
G04 #@! TA.AperFunction,Conductor*
%ADD13C,0.250000*%
G04 #@! TD*
G04 #@! TA.AperFunction,Conductor*
%ADD14C,0.152400*%
G04 #@! TD*
G04 APERTURE END LIST*
D10*
X132840000Y-137345000D03*
X132840000Y-127815000D03*
X106020000Y-127815000D03*
X106020000Y-137345000D03*
X134270000Y-122345000D03*
X134270000Y-112815000D03*
X106020000Y-112815000D03*
X106020000Y-122345000D03*
X176440000Y-107595000D03*
X176440000Y-98065000D03*
X106020000Y-98065000D03*
X106020000Y-107595000D03*
X176440000Y-92595000D03*
X176440000Y-83065000D03*
X106020000Y-83065000D03*
X106020000Y-92595000D03*
X176440000Y-77595000D03*
X176440000Y-68065000D03*
X106020000Y-68065000D03*
X106020000Y-77595000D03*
X131440000Y-62595000D03*
X131440000Y-53065000D03*
X106020000Y-53065000D03*
X106020000Y-62595000D03*
D11*
X119430000Y-70590000D03*
X120680000Y-70590000D03*
X121970000Y-70590000D03*
X121980000Y-72900000D03*
X121970000Y-71820000D03*
X163030000Y-70490000D03*
X161780000Y-70490000D03*
X161780000Y-75100000D03*
X160530000Y-75100000D03*
X163030000Y-75100000D03*
D12*
X121500000Y-119400000D03*
D11*
X119450000Y-134480000D03*
X121980000Y-75050000D03*
X120700000Y-75060000D03*
X119450000Y-75060000D03*
D12*
X121660000Y-88620000D03*
X121660000Y-87800000D03*
X121660000Y-86997200D03*
X163090000Y-87840000D03*
D11*
X160530000Y-74090000D03*
X160530000Y-72840000D03*
X160530000Y-71590000D03*
X160530000Y-70490000D03*
X121980000Y-73890000D03*
D12*
X119000000Y-115700000D03*
X121500000Y-115700000D03*
X163080000Y-87050000D03*
X163080000Y-88670000D03*
X120200000Y-115700000D03*
X120200000Y-119400000D03*
X119000000Y-119400000D03*
D13*
X133639958Y-51284771D02*
X133671475Y-51293735D01*
X133700660Y-51308654D01*
X133726385Y-51328953D01*
X133747679Y-51353864D01*
X133763730Y-51382440D01*
X133773925Y-51413586D01*
X133779998Y-51463595D01*
X133780003Y-64742105D01*
X133782622Y-64768694D01*
X133782655Y-64772334D01*
X133783369Y-64778576D01*
X133784565Y-64788421D01*
X133786514Y-64808215D01*
X133787271Y-64810712D01*
X133797958Y-64898713D01*
X133806810Y-64938565D01*
X133815090Y-64978464D01*
X133817003Y-64984449D01*
X133854649Y-65099462D01*
X133871070Y-65136827D01*
X133886943Y-65174363D01*
X133889980Y-65179859D01*
X133889983Y-65179865D01*
X133889987Y-65179870D01*
X133949250Y-65285375D01*
X133972623Y-65318849D01*
X133995480Y-65352579D01*
X133999529Y-65357384D01*
X134078162Y-65449374D01*
X134107568Y-65477648D01*
X134136565Y-65506320D01*
X134141470Y-65510246D01*
X134236475Y-65585211D01*
X134270789Y-65607220D01*
X134304825Y-65629728D01*
X134310400Y-65632627D01*
X134418155Y-65687711D01*
X134456137Y-65702654D01*
X134493851Y-65718103D01*
X134499875Y-65719862D01*
X134499881Y-65719864D01*
X134499887Y-65719865D01*
X134616285Y-65752969D01*
X134656418Y-65760245D01*
X134696439Y-65768080D01*
X134702698Y-65768636D01*
X134819602Y-65778198D01*
X134837895Y-65780000D01*
X178581630Y-65780000D01*
X178639960Y-65784771D01*
X178671477Y-65793735D01*
X178700662Y-65808654D01*
X178726387Y-65828953D01*
X178747681Y-65853864D01*
X178763732Y-65882440D01*
X178773927Y-65913586D01*
X178780000Y-65963594D01*
X178780001Y-109431617D01*
X178775229Y-109489960D01*
X178766265Y-109521477D01*
X178751346Y-109550661D01*
X178731046Y-109576388D01*
X178706135Y-109597682D01*
X178677562Y-109613732D01*
X178646413Y-109623927D01*
X178596406Y-109630000D01*
X137647895Y-109630000D01*
X137621294Y-109632620D01*
X137617667Y-109632653D01*
X137611424Y-109633367D01*
X137601623Y-109634557D01*
X137581785Y-109636511D01*
X137579282Y-109637270D01*
X137491288Y-109647956D01*
X137451450Y-109656805D01*
X137411536Y-109665088D01*
X137405557Y-109666999D01*
X137405553Y-109667000D01*
X137405550Y-109667001D01*
X137405551Y-109667001D01*
X137290537Y-109704647D01*
X137253187Y-109721061D01*
X137215637Y-109736941D01*
X137210141Y-109739978D01*
X137210135Y-109739981D01*
X137210130Y-109739985D01*
X137104626Y-109799248D01*
X137071154Y-109822619D01*
X137037421Y-109845478D01*
X137032616Y-109849527D01*
X136940626Y-109928160D01*
X136912333Y-109957586D01*
X136883681Y-109986563D01*
X136879754Y-109991468D01*
X136804789Y-110086472D01*
X136782747Y-110120837D01*
X136760272Y-110154824D01*
X136757376Y-110160393D01*
X136757373Y-110160397D01*
X136757373Y-110160398D01*
X136702289Y-110268153D01*
X136687346Y-110306135D01*
X136671897Y-110343849D01*
X136670138Y-110349873D01*
X136670136Y-110349879D01*
X136670136Y-110349881D01*
X136637031Y-110466283D01*
X136629755Y-110506416D01*
X136621920Y-110546437D01*
X136621364Y-110552696D01*
X136611797Y-110669660D01*
X136610001Y-110687893D01*
X136610000Y-124431628D01*
X136605229Y-124489958D01*
X136596265Y-124521475D01*
X136581346Y-124550659D01*
X136561046Y-124576386D01*
X136536135Y-124597680D01*
X136507562Y-124613730D01*
X136476413Y-124623925D01*
X136426399Y-124629999D01*
X136217887Y-124630003D01*
X136191301Y-124632622D01*
X136187667Y-124632655D01*
X136181424Y-124633369D01*
X136171583Y-124634564D01*
X136151777Y-124636515D01*
X136149280Y-124637272D01*
X136061288Y-124647958D01*
X136021450Y-124656807D01*
X135981536Y-124665090D01*
X135975557Y-124667001D01*
X135975553Y-124667002D01*
X135975550Y-124667003D01*
X135975551Y-124667003D01*
X135860537Y-124704649D01*
X135823187Y-124721063D01*
X135785637Y-124736943D01*
X135780141Y-124739980D01*
X135780135Y-124739983D01*
X135780130Y-124739987D01*
X135674626Y-124799250D01*
X135641154Y-124822621D01*
X135607421Y-124845480D01*
X135602616Y-124849529D01*
X135510626Y-124928162D01*
X135482333Y-124957588D01*
X135453681Y-124986565D01*
X135449754Y-124991470D01*
X135374789Y-125086474D01*
X135352747Y-125120839D01*
X135330272Y-125154826D01*
X135327376Y-125160395D01*
X135327373Y-125160399D01*
X135327373Y-125160400D01*
X135272289Y-125268155D01*
X135257346Y-125306137D01*
X135241897Y-125343851D01*
X135240138Y-125349875D01*
X135240136Y-125349881D01*
X135240136Y-125349883D01*
X135207031Y-125466285D01*
X135199755Y-125506418D01*
X135191920Y-125546439D01*
X135191364Y-125552698D01*
X135181797Y-125669662D01*
X135180001Y-125687895D01*
X135179999Y-138931629D01*
X135175228Y-138989959D01*
X135166264Y-139021476D01*
X135151345Y-139050660D01*
X135131045Y-139076387D01*
X135106134Y-139097681D01*
X135077561Y-139113731D01*
X135046412Y-139123926D01*
X134996405Y-139129999D01*
X103878385Y-139130001D01*
X103820042Y-139125229D01*
X103788525Y-139116265D01*
X103759341Y-139101346D01*
X103733614Y-139081046D01*
X103712320Y-139056135D01*
X103696270Y-139027562D01*
X103686075Y-138996413D01*
X103680002Y-138946406D01*
X103679999Y-51478383D01*
X103684771Y-51420040D01*
X103693735Y-51388523D01*
X103708654Y-51359338D01*
X103728953Y-51333613D01*
X103753864Y-51312319D01*
X103782440Y-51296268D01*
X103813586Y-51286073D01*
X103863594Y-51280000D01*
X133581628Y-51280000D01*
X133639958Y-51284771D01*
G04 #@! TA.AperFunction,Conductor*
D14*
G36*
X133639958Y-51284771D02*
G01*
X133671475Y-51293735D01*
X133700660Y-51308654D01*
X133726385Y-51328953D01*
X133747679Y-51353864D01*
X133763730Y-51382440D01*
X133773925Y-51413586D01*
X133779998Y-51463595D01*
X133780003Y-64742105D01*
X133782622Y-64768694D01*
X133782655Y-64772334D01*
X133783369Y-64778576D01*
X133784565Y-64788421D01*
X133786514Y-64808215D01*
X133787271Y-64810712D01*
X133797958Y-64898713D01*
X133806810Y-64938565D01*
X133815090Y-64978464D01*
X133817003Y-64984449D01*
X133854649Y-65099462D01*
X133871070Y-65136827D01*
X133886943Y-65174363D01*
X133889980Y-65179859D01*
X133889983Y-65179865D01*
X133889987Y-65179870D01*
X133949250Y-65285375D01*
X133972623Y-65318849D01*
X133995480Y-65352579D01*
X133999529Y-65357384D01*
X134078162Y-65449374D01*
X134107568Y-65477648D01*
X134136565Y-65506320D01*
X134141470Y-65510246D01*
X134236475Y-65585211D01*
X134270789Y-65607220D01*
X134304825Y-65629728D01*
X134310400Y-65632627D01*
X134418155Y-65687711D01*
X134456137Y-65702654D01*
X134493851Y-65718103D01*
X134499875Y-65719862D01*
X134499881Y-65719864D01*
X134499887Y-65719865D01*
X134616285Y-65752969D01*
X134656418Y-65760245D01*
X134696439Y-65768080D01*
X134702698Y-65768636D01*
X134819602Y-65778198D01*
X134837895Y-65780000D01*
X178581630Y-65780000D01*
X178639960Y-65784771D01*
X178671477Y-65793735D01*
X178700662Y-65808654D01*
X178726387Y-65828953D01*
X178747681Y-65853864D01*
X178763732Y-65882440D01*
X178773927Y-65913586D01*
X178780000Y-65963594D01*
X178780001Y-109431617D01*
X178775229Y-109489960D01*
X178766265Y-109521477D01*
X178751346Y-109550661D01*
X178731046Y-109576388D01*
X178706135Y-109597682D01*
X178677562Y-109613732D01*
X178646413Y-109623927D01*
X178596406Y-109630000D01*
X137647895Y-109630000D01*
X137621294Y-109632620D01*
X137617667Y-109632653D01*
X137611424Y-109633367D01*
X137601623Y-109634557D01*
X137581785Y-109636511D01*
X137579282Y-109637270D01*
X137491288Y-109647956D01*
X137451450Y-109656805D01*
X137411536Y-109665088D01*
X137405557Y-109666999D01*
X137405553Y-109667000D01*
X137405550Y-109667001D01*
X137405551Y-109667001D01*
X137290537Y-109704647D01*
X137253187Y-109721061D01*
X137215637Y-109736941D01*
X137210141Y-109739978D01*
X137210135Y-109739981D01*
X137210130Y-109739985D01*
X137104626Y-109799248D01*
X137071154Y-109822619D01*
X137037421Y-109845478D01*
X137032616Y-109849527D01*
X136940626Y-109928160D01*
X136912333Y-109957586D01*
X136883681Y-109986563D01*
X136879754Y-109991468D01*
X136804789Y-110086472D01*
X136782747Y-110120837D01*
X136760272Y-110154824D01*
X136757376Y-110160393D01*
X136757373Y-110160397D01*
X136757373Y-110160398D01*
X136702289Y-110268153D01*
X136687346Y-110306135D01*
X136671897Y-110343849D01*
X136670138Y-110349873D01*
X136670136Y-110349879D01*
X136670136Y-110349881D01*
X136637031Y-110466283D01*
X136629755Y-110506416D01*
X136621920Y-110546437D01*
X136621364Y-110552696D01*
X136611797Y-110669660D01*
X136610001Y-110687893D01*
X136610000Y-124431628D01*
X136605229Y-124489958D01*
X136596265Y-124521475D01*
X136581346Y-124550659D01*
X136561046Y-124576386D01*
X136536135Y-124597680D01*
X136507562Y-124613730D01*
X136476413Y-124623925D01*
X136426399Y-124629999D01*
X136217887Y-124630003D01*
X136191301Y-124632622D01*
X136187667Y-124632655D01*
X136181424Y-124633369D01*
X136171583Y-124634564D01*
X136151777Y-124636515D01*
X136149280Y-124637272D01*
X136061288Y-124647958D01*
X136021450Y-124656807D01*
X135981536Y-124665090D01*
X135975557Y-124667001D01*
X135975553Y-124667002D01*
X135975550Y-124667003D01*
X135975551Y-124667003D01*
X135860537Y-124704649D01*
X135823187Y-124721063D01*
X135785637Y-124736943D01*
X135780141Y-124739980D01*
X135780135Y-124739983D01*
X135780130Y-124739987D01*
X135674626Y-124799250D01*
X135641154Y-124822621D01*
X135607421Y-124845480D01*
X135602616Y-124849529D01*
X135510626Y-124928162D01*
X135482333Y-124957588D01*
X135453681Y-124986565D01*
X135449754Y-124991470D01*
X135374789Y-125086474D01*
X135352747Y-125120839D01*
X135330272Y-125154826D01*
X135327376Y-125160395D01*
X135327373Y-125160399D01*
X135327373Y-125160400D01*
X135272289Y-125268155D01*
X135257346Y-125306137D01*
X135241897Y-125343851D01*
X135240138Y-125349875D01*
X135240136Y-125349881D01*
X135240136Y-125349883D01*
X135207031Y-125466285D01*
X135199755Y-125506418D01*
X135191920Y-125546439D01*
X135191364Y-125552698D01*
X135181797Y-125669662D01*
X135180001Y-125687895D01*
X135179999Y-138931629D01*
X135175228Y-138989959D01*
X135166264Y-139021476D01*
X135151345Y-139050660D01*
X135131045Y-139076387D01*
X135106134Y-139097681D01*
X135077561Y-139113731D01*
X135046412Y-139123926D01*
X134996405Y-139129999D01*
X103878385Y-139130001D01*
X103820042Y-139125229D01*
X103788525Y-139116265D01*
X103759341Y-139101346D01*
X103733614Y-139081046D01*
X103712320Y-139056135D01*
X103696270Y-139027562D01*
X103686075Y-138996413D01*
X103680002Y-138946406D01*
X103679999Y-51478383D01*
X103684771Y-51420040D01*
X103693735Y-51388523D01*
X103708654Y-51359338D01*
X103728953Y-51333613D01*
X103753864Y-51312319D01*
X103782440Y-51296268D01*
X103813586Y-51286073D01*
X103863594Y-51280000D01*
X133581628Y-51280000D01*
X133639958Y-51284771D01*
G37*
G04 #@! TD.AperFunction*
M02*
