G04 #@! TF.GenerationSoftware,KiCad,Pcbnew,(5.1.7)-1*
G04 #@! TF.CreationDate,2020-12-28T13:52:33+01:00*
G04 #@! TF.ProjectId,6Layers_trl-board,364c6179-6572-4735-9f74-726c2d626f61,0.3*
G04 #@! TF.SameCoordinates,Original*
G04 #@! TF.FileFunction,Soldermask,Top*
G04 #@! TF.FilePolarity,Negative*
%FSLAX46Y46*%
G04 Gerber Fmt 4.6, Leading zero omitted, Abs format (unit mm)*
G04 Created by KiCad (PCBNEW (5.1.7)-1) date 2020-12-28 13:52:33*
%MOMM*%
%LPD*%
G01*
G04 APERTURE LIST*
%ADD10C,3.415900*%
%ADD11C,1.340360*%
%ADD12C,6.000000*%
%ADD13C,0.100000*%
%ADD14C,2.800000*%
G04 APERTURE END LIST*
D10*
X165060000Y-87830000D02*
X176914400Y-87810000D01*
D11*
X119740000Y-119600000D02*
X120990000Y-119600000D01*
X119620000Y-115520000D02*
X120870000Y-115520000D01*
D10*
X103660000Y-102830000D02*
X178800000Y-102830000D01*
D12*
X107050000Y-57830000D02*
X133800000Y-57830000D01*
D10*
X119405500Y-72830000D02*
X105885600Y-72830000D01*
X119430000Y-132580000D02*
X133012800Y-132580000D01*
X105885600Y-132580000D02*
X119430000Y-132580000D01*
X121092500Y-117580000D02*
X134435200Y-117580000D01*
X105885600Y-117580000D02*
X119217500Y-117580000D01*
X176599200Y-72830000D02*
X163030000Y-72830000D01*
X105885600Y-87830000D02*
X117730000Y-87830000D01*
D13*
G36*
X130230000Y-139080000D02*
G01*
X130230000Y-126080000D01*
X135730000Y-126080000D01*
X135730000Y-139080000D01*
X130230000Y-139080000D01*
G37*
X130230000Y-139080000D02*
X130230000Y-126080000D01*
X135730000Y-126080000D01*
X135730000Y-139080000D01*
X130230000Y-139080000D01*
G36*
X108630000Y-126080000D02*
G01*
X108630000Y-139080000D01*
X103130000Y-139080000D01*
X103130000Y-126080000D01*
X108630000Y-126080000D01*
G37*
X108630000Y-126080000D02*
X108630000Y-139080000D01*
X103130000Y-139080000D01*
X103130000Y-126080000D01*
X108630000Y-126080000D01*
G36*
X131660000Y-124080000D02*
G01*
X131660000Y-111080000D01*
X137160000Y-111080000D01*
X137160000Y-124080000D01*
X131660000Y-124080000D01*
G37*
X131660000Y-124080000D02*
X131660000Y-111080000D01*
X137160000Y-111080000D01*
X137160000Y-124080000D01*
X131660000Y-124080000D01*
G36*
X108630000Y-111080000D02*
G01*
X108630000Y-124080000D01*
X103130000Y-124080000D01*
X103130000Y-111080000D01*
X108630000Y-111080000D01*
G37*
X108630000Y-111080000D02*
X108630000Y-124080000D01*
X103130000Y-124080000D01*
X103130000Y-111080000D01*
X108630000Y-111080000D01*
G36*
X173830000Y-109330000D02*
G01*
X173830000Y-96330000D01*
X179330000Y-96330000D01*
X179330000Y-109330000D01*
X173830000Y-109330000D01*
G37*
X173830000Y-109330000D02*
X173830000Y-96330000D01*
X179330000Y-96330000D01*
X179330000Y-109330000D01*
X173830000Y-109330000D01*
G36*
X108630000Y-96330000D02*
G01*
X108630000Y-109330000D01*
X103130000Y-109330000D01*
X103130000Y-96330000D01*
X108630000Y-96330000D01*
G37*
X108630000Y-96330000D02*
X108630000Y-109330000D01*
X103130000Y-109330000D01*
X103130000Y-96330000D01*
X108630000Y-96330000D01*
G36*
X173830000Y-94330000D02*
G01*
X173830000Y-81330000D01*
X179330000Y-81330000D01*
X179330000Y-94330000D01*
X173830000Y-94330000D01*
G37*
X173830000Y-94330000D02*
X173830000Y-81330000D01*
X179330000Y-81330000D01*
X179330000Y-94330000D01*
X173830000Y-94330000D01*
G36*
X108630000Y-81330000D02*
G01*
X108630000Y-94330000D01*
X103130000Y-94330000D01*
X103130000Y-81330000D01*
X108630000Y-81330000D01*
G37*
X108630000Y-81330000D02*
X108630000Y-94330000D01*
X103130000Y-94330000D01*
X103130000Y-81330000D01*
X108630000Y-81330000D01*
G36*
X173830000Y-79330000D02*
G01*
X173830000Y-66330000D01*
X179330000Y-66330000D01*
X179330000Y-79330000D01*
X173830000Y-79330000D01*
G37*
X173830000Y-79330000D02*
X173830000Y-66330000D01*
X179330000Y-66330000D01*
X179330000Y-79330000D01*
X173830000Y-79330000D01*
G36*
X108630000Y-66330000D02*
G01*
X108630000Y-79330000D01*
X103130000Y-79330000D01*
X103130000Y-66330000D01*
X108630000Y-66330000D01*
G37*
X108630000Y-66330000D02*
X108630000Y-79330000D01*
X103130000Y-79330000D01*
X103130000Y-66330000D01*
X108630000Y-66330000D01*
G36*
X128830000Y-64330000D02*
G01*
X128830000Y-51330000D01*
X134330000Y-51330000D01*
X134330000Y-64330000D01*
X128830000Y-64330000D01*
G37*
X128830000Y-64330000D02*
X128830000Y-51330000D01*
X134330000Y-51330000D01*
X134330000Y-64330000D01*
X128830000Y-64330000D01*
G36*
X108630000Y-51330000D02*
G01*
X108630000Y-64330000D01*
X103130000Y-64330000D01*
X103130000Y-51330000D01*
X108630000Y-51330000D01*
G37*
X108630000Y-51330000D02*
X108630000Y-64330000D01*
X103130000Y-64330000D01*
X103130000Y-51330000D01*
X108630000Y-51330000D01*
G36*
G01*
X162860000Y-74080000D02*
X163200000Y-74080000D01*
G75*
G02*
X163350000Y-74230000I0J-150000D01*
G01*
X163350000Y-74530000D01*
G75*
G02*
X163200000Y-74680000I-150000J0D01*
G01*
X162860000Y-74680000D01*
G75*
G02*
X162710000Y-74530000I0J150000D01*
G01*
X162710000Y-74230000D01*
G75*
G02*
X162860000Y-74080000I150000J0D01*
G01*
G37*
G36*
G01*
X162860000Y-73120000D02*
X163200000Y-73120000D01*
G75*
G02*
X163350000Y-73270000I0J-150000D01*
G01*
X163350000Y-73570000D01*
G75*
G02*
X163200000Y-73720000I-150000J0D01*
G01*
X162860000Y-73720000D01*
G75*
G02*
X162710000Y-73570000I0J150000D01*
G01*
X162710000Y-73270000D01*
G75*
G02*
X162860000Y-73120000I150000J0D01*
G01*
G37*
G36*
G01*
X163200000Y-71520000D02*
X162860000Y-71520000D01*
G75*
G02*
X162710000Y-71370000I0J150000D01*
G01*
X162710000Y-71070000D01*
G75*
G02*
X162860000Y-70920000I150000J0D01*
G01*
X163200000Y-70920000D01*
G75*
G02*
X163350000Y-71070000I0J-150000D01*
G01*
X163350000Y-71370000D01*
G75*
G02*
X163200000Y-71520000I-150000J0D01*
G01*
G37*
G36*
G01*
X163200000Y-72480000D02*
X162860000Y-72480000D01*
G75*
G02*
X162710000Y-72330000I0J150000D01*
G01*
X162710000Y-72030000D01*
G75*
G02*
X162860000Y-71880000I150000J0D01*
G01*
X163200000Y-71880000D01*
G75*
G02*
X163350000Y-72030000I0J-150000D01*
G01*
X163350000Y-72330000D01*
G75*
G02*
X163200000Y-72480000I-150000J0D01*
G01*
G37*
G36*
G01*
X119280000Y-73980000D02*
X119620000Y-73980000D01*
G75*
G02*
X119770000Y-74130000I0J-150000D01*
G01*
X119770000Y-74430000D01*
G75*
G02*
X119620000Y-74580000I-150000J0D01*
G01*
X119280000Y-74580000D01*
G75*
G02*
X119130000Y-74430000I0J150000D01*
G01*
X119130000Y-74130000D01*
G75*
G02*
X119280000Y-73980000I150000J0D01*
G01*
G37*
G36*
G01*
X119280000Y-73020000D02*
X119620000Y-73020000D01*
G75*
G02*
X119770000Y-73170000I0J-150000D01*
G01*
X119770000Y-73470000D01*
G75*
G02*
X119620000Y-73620000I-150000J0D01*
G01*
X119280000Y-73620000D01*
G75*
G02*
X119130000Y-73470000I0J150000D01*
G01*
X119130000Y-73170000D01*
G75*
G02*
X119280000Y-73020000I150000J0D01*
G01*
G37*
G36*
G01*
X119600000Y-71670000D02*
X119260000Y-71670000D01*
G75*
G02*
X119110000Y-71520000I0J150000D01*
G01*
X119110000Y-71220000D01*
G75*
G02*
X119260000Y-71070000I150000J0D01*
G01*
X119600000Y-71070000D01*
G75*
G02*
X119750000Y-71220000I0J-150000D01*
G01*
X119750000Y-71520000D01*
G75*
G02*
X119600000Y-71670000I-150000J0D01*
G01*
G37*
G36*
G01*
X119600000Y-72630000D02*
X119260000Y-72630000D01*
G75*
G02*
X119110000Y-72480000I0J150000D01*
G01*
X119110000Y-72180000D01*
G75*
G02*
X119260000Y-72030000I150000J0D01*
G01*
X119600000Y-72030000D01*
G75*
G02*
X119750000Y-72180000I0J-150000D01*
G01*
X119750000Y-72480000D01*
G75*
G02*
X119600000Y-72630000I-150000J0D01*
G01*
G37*
G36*
G01*
X119620000Y-133010000D02*
X119280000Y-133010000D01*
G75*
G02*
X119130000Y-132860000I0J150000D01*
G01*
X119130000Y-132560000D01*
G75*
G02*
X119280000Y-132410000I150000J0D01*
G01*
X119620000Y-132410000D01*
G75*
G02*
X119770000Y-132560000I0J-150000D01*
G01*
X119770000Y-132860000D01*
G75*
G02*
X119620000Y-133010000I-150000J0D01*
G01*
G37*
G36*
G01*
X119620000Y-133970000D02*
X119280000Y-133970000D01*
G75*
G02*
X119130000Y-133820000I0J150000D01*
G01*
X119130000Y-133520000D01*
G75*
G02*
X119280000Y-133370000I150000J0D01*
G01*
X119620000Y-133370000D01*
G75*
G02*
X119770000Y-133520000I0J-150000D01*
G01*
X119770000Y-133820000D01*
G75*
G02*
X119620000Y-133970000I-150000J0D01*
G01*
G37*
G36*
G01*
X119975000Y-117410000D02*
X119975000Y-117750000D01*
G75*
G02*
X119825000Y-117900000I-150000J0D01*
G01*
X119525000Y-117900000D01*
G75*
G02*
X119375000Y-117750000I0J150000D01*
G01*
X119375000Y-117410000D01*
G75*
G02*
X119525000Y-117260000I150000J0D01*
G01*
X119825000Y-117260000D01*
G75*
G02*
X119975000Y-117410000I0J-150000D01*
G01*
G37*
G36*
G01*
X120935000Y-117410000D02*
X120935000Y-117750000D01*
G75*
G02*
X120785000Y-117900000I-150000J0D01*
G01*
X120485000Y-117900000D01*
G75*
G02*
X120335000Y-117750000I0J150000D01*
G01*
X120335000Y-117410000D01*
G75*
G02*
X120485000Y-117260000I150000J0D01*
G01*
X120785000Y-117260000D01*
G75*
G02*
X120935000Y-117410000I0J-150000D01*
G01*
G37*
D14*
X132840000Y-137345000D03*
X132840000Y-127815000D03*
G36*
G01*
X134804500Y-132378400D02*
X135566500Y-132378400D01*
G75*
G02*
X135666500Y-132478400I0J-100000D01*
G01*
X135666500Y-132681600D01*
G75*
G02*
X135566500Y-132781600I-100000J0D01*
G01*
X134804500Y-132781600D01*
G75*
G02*
X134704500Y-132681600I0J100000D01*
G01*
X134704500Y-132478400D01*
G75*
G02*
X134804500Y-132378400I100000J0D01*
G01*
G37*
X106020000Y-127815000D03*
X106020000Y-137345000D03*
G36*
G01*
X104055500Y-132781600D02*
X103293500Y-132781600D01*
G75*
G02*
X103193500Y-132681600I0J100000D01*
G01*
X103193500Y-132478400D01*
G75*
G02*
X103293500Y-132378400I100000J0D01*
G01*
X104055500Y-132378400D01*
G75*
G02*
X104155500Y-132478400I0J-100000D01*
G01*
X104155500Y-132681600D01*
G75*
G02*
X104055500Y-132781600I-100000J0D01*
G01*
G37*
X134270000Y-122345000D03*
X134270000Y-112815000D03*
G36*
G01*
X136234500Y-117378400D02*
X136996500Y-117378400D01*
G75*
G02*
X137096500Y-117478400I0J-100000D01*
G01*
X137096500Y-117681600D01*
G75*
G02*
X136996500Y-117781600I-100000J0D01*
G01*
X136234500Y-117781600D01*
G75*
G02*
X136134500Y-117681600I0J100000D01*
G01*
X136134500Y-117478400D01*
G75*
G02*
X136234500Y-117378400I100000J0D01*
G01*
G37*
X106020000Y-112815000D03*
X106020000Y-122345000D03*
G36*
G01*
X104055500Y-117781600D02*
X103293500Y-117781600D01*
G75*
G02*
X103193500Y-117681600I0J100000D01*
G01*
X103193500Y-117478400D01*
G75*
G02*
X103293500Y-117378400I100000J0D01*
G01*
X104055500Y-117378400D01*
G75*
G02*
X104155500Y-117478400I0J-100000D01*
G01*
X104155500Y-117681600D01*
G75*
G02*
X104055500Y-117781600I-100000J0D01*
G01*
G37*
X176440000Y-107595000D03*
X176440000Y-98065000D03*
G36*
G01*
X178404500Y-102628400D02*
X179166500Y-102628400D01*
G75*
G02*
X179266500Y-102728400I0J-100000D01*
G01*
X179266500Y-102931600D01*
G75*
G02*
X179166500Y-103031600I-100000J0D01*
G01*
X178404500Y-103031600D01*
G75*
G02*
X178304500Y-102931600I0J100000D01*
G01*
X178304500Y-102728400D01*
G75*
G02*
X178404500Y-102628400I100000J0D01*
G01*
G37*
X106020000Y-98065000D03*
X106020000Y-107595000D03*
G36*
G01*
X104055500Y-103031600D02*
X103293500Y-103031600D01*
G75*
G02*
X103193500Y-102931600I0J100000D01*
G01*
X103193500Y-102728400D01*
G75*
G02*
X103293500Y-102628400I100000J0D01*
G01*
X104055500Y-102628400D01*
G75*
G02*
X104155500Y-102728400I0J-100000D01*
G01*
X104155500Y-102931600D01*
G75*
G02*
X104055500Y-103031600I-100000J0D01*
G01*
G37*
X176440000Y-92595000D03*
X176440000Y-83065000D03*
G36*
G01*
X178404500Y-87628400D02*
X179166500Y-87628400D01*
G75*
G02*
X179266500Y-87728400I0J-100000D01*
G01*
X179266500Y-87931600D01*
G75*
G02*
X179166500Y-88031600I-100000J0D01*
G01*
X178404500Y-88031600D01*
G75*
G02*
X178304500Y-87931600I0J100000D01*
G01*
X178304500Y-87728400D01*
G75*
G02*
X178404500Y-87628400I100000J0D01*
G01*
G37*
X106020000Y-83065000D03*
X106020000Y-92595000D03*
G36*
G01*
X104055500Y-88031600D02*
X103293500Y-88031600D01*
G75*
G02*
X103193500Y-87931600I0J100000D01*
G01*
X103193500Y-87728400D01*
G75*
G02*
X103293500Y-87628400I100000J0D01*
G01*
X104055500Y-87628400D01*
G75*
G02*
X104155500Y-87728400I0J-100000D01*
G01*
X104155500Y-87931600D01*
G75*
G02*
X104055500Y-88031600I-100000J0D01*
G01*
G37*
X176440000Y-77595000D03*
X176440000Y-68065000D03*
G36*
G01*
X178404500Y-72628400D02*
X179166500Y-72628400D01*
G75*
G02*
X179266500Y-72728400I0J-100000D01*
G01*
X179266500Y-72931600D01*
G75*
G02*
X179166500Y-73031600I-100000J0D01*
G01*
X178404500Y-73031600D01*
G75*
G02*
X178304500Y-72931600I0J100000D01*
G01*
X178304500Y-72728400D01*
G75*
G02*
X178404500Y-72628400I100000J0D01*
G01*
G37*
X106020000Y-68065000D03*
X106020000Y-77595000D03*
G36*
G01*
X104055500Y-73031600D02*
X103293500Y-73031600D01*
G75*
G02*
X103193500Y-72931600I0J100000D01*
G01*
X103193500Y-72728400D01*
G75*
G02*
X103293500Y-72628400I100000J0D01*
G01*
X104055500Y-72628400D01*
G75*
G02*
X104155500Y-72728400I0J-100000D01*
G01*
X104155500Y-72931600D01*
G75*
G02*
X104055500Y-73031600I-100000J0D01*
G01*
G37*
X131440000Y-62595000D03*
X131440000Y-53065000D03*
G36*
G01*
X133404500Y-57628400D02*
X134166500Y-57628400D01*
G75*
G02*
X134266500Y-57728400I0J-100000D01*
G01*
X134266500Y-57931600D01*
G75*
G02*
X134166500Y-58031600I-100000J0D01*
G01*
X133404500Y-58031600D01*
G75*
G02*
X133304500Y-57931600I0J100000D01*
G01*
X133304500Y-57728400D01*
G75*
G02*
X133404500Y-57628400I100000J0D01*
G01*
G37*
X106020000Y-53065000D03*
X106020000Y-62595000D03*
G36*
G01*
X104055500Y-58031600D02*
X103293500Y-58031600D01*
G75*
G02*
X103193500Y-57931600I0J100000D01*
G01*
X103193500Y-57728400D01*
G75*
G02*
X103293500Y-57628400I100000J0D01*
G01*
X104055500Y-57628400D01*
G75*
G02*
X104155500Y-57728400I0J-100000D01*
G01*
X104155500Y-57931600D01*
G75*
G02*
X104055500Y-58031600I-100000J0D01*
G01*
G37*
M02*
